<?xml version="1.0" encoding="UTF-8"?>
<svg version="1.1" xmlns="http://www.w3.org/2000/svg" width="100%" height="100%" viewBox="0 0 500 300">
<path d="M0 0 C10.22633345 8.04471564 16.51439498 20.83618473 18.0703125 33.6328125 C18.69353418 43.62422296 18.97277268 54.23800095 15.0703125 63.6328125 C13.46484375 65.44921875 13.46484375 65.44921875 12.0703125 66.6328125 C7.83601494 65.32219659 3.99623846 63.68924991 0.0703125 61.6328125 C-0.29320312 62.3340625 -0.65671875 63.0353125 -1.03125 63.7578125 C-4.2297783 69.7940095 -7.63503666 75.31780136 -11.9296875 80.6328125 C-11.36378906 81.08011719 -10.79789062 81.52742188 -10.21484375 81.98828125 C-9.48136719 82.59285156 -8.74789062 83.19742188 -7.9921875 83.8203125 C-7.26128906 84.41199219 -6.53039062 85.00367188 -5.77734375 85.61328125 C-3.60016194 87.9929916 -3.10086556 89.43230155 -2.9296875 92.6328125 C-4.54296991 94.67630355 -5.93633513 96.01235053 -7.9296875 97.6328125 C-8.53941406 98.1690625 -9.14914062 98.7053125 -9.77734375 99.2578125 C-24.52877112 111.61040963 -41.98435762 116.28127122 -60.9296875 114.6328125 C-76.1868003 112.2119422 -88.26831 103.41865746 -97.39453125 91.1640625 C-105.44177379 77.8953267 -107.0553549 61.58911254 -104.28125 46.4765625 C-99.5742728 27.32680912 -88.37802063 10.10137358 -71.5703125 -0.5625 C-48.19641614 -14.69615178 -22.72021851 -16.09732081 0 0 Z M-59.640625 33.1484375 C-67.72852082 41.92642682 -73.04664276 52.71170846 -73.9296875 64.6328125 C-62.80920125 63.23052245 -53.38957714 56.29287178 -46.578125 47.6484375 C-42.37979605 41.93118361 -38.96505474 36.30438756 -36.87890625 29.4609375 C-35.9296875 27.6328125 -35.9296875 27.6328125 -34.14453125 26.68359375 C-30.99717589 26.61143216 -29.4101933 27.85534525 -26.8046875 29.5703125 C-23.61271067 31.89011167 -23.61271067 31.89011167 -19.9296875 32.6328125 C-19.84882603 30.84188059 -19.79056048 29.04991622 -19.7421875 27.2578125 C-19.70738281 26.26007813 -19.67257812 25.26234375 -19.63671875 24.234375 C-19.73339844 23.37585938 -19.83007812 22.51734375 -19.9296875 21.6328125 C-33.09808161 12.85388309 -49.97830141 24.00757264 -59.640625 33.1484375 Z " fill="#FB5251" transform="translate(291.9296875,72.3671875)"/>
<path d="M0 0 C10.64826609 7.54431808 16.88638434 19.23456055 19.6171875 31.8515625 C20.92747727 42.62802736 21.21866729 54.84394911 17 65 C15.39453125 66.81640625 15.39453125 66.81640625 14 68 C9.39571066 66.68448876 5.81679612 64.90803514 2 62 C2 61.34 2 60.68 2 60 C1.32324219 59.773125 0.64648438 59.54625 -0.05078125 59.3125 C-3.79733269 57.64516055 -6.88826822 55.41323119 -10.1875 53 C-10.81591797 52.54882812 -11.44433594 52.09765625 -12.09179688 51.6328125 C-14.53973024 49.86296977 -16.86064331 48.13935669 -19 46 C-19.22705078 43.66162109 -19.22705078 43.66162109 -19.1953125 40.7734375 C-19.18886719 39.7421875 -19.18242187 38.7109375 -19.17578125 37.6484375 C-19.15064453 36.02808594 -19.15064453 36.02808594 -19.125 34.375 C-19.11597656 33.28703125 -19.10695313 32.1990625 -19.09765625 31.078125 C-19.07403409 28.38519848 -19.04109556 25.69270745 -19 23 C-20.56176127 22.64709383 -22.12610114 22.30558962 -23.69140625 21.96875 C-24.56224854 21.77732422 -25.43309082 21.58589844 -26.33032227 21.38867188 C-36.0525011 19.97324355 -44.8679593 25.25942169 -52.44921875 30.78515625 C-63.7003698 40.08789065 -69.28188927 52.9564279 -72 67 C-78.99108325 67.52433124 -84.5653696 67.76257699 -90.37890625 63.49609375 C-94.85867561 59.36175239 -96.72366434 55.18012511 -97.23828125 49.2578125 C-97.5678367 35.3471035 -94.10887899 24.55419927 -85 14 C-84.40445313 13.29359375 -83.80890625 12.5871875 -83.1953125 11.859375 C-61.98586294 -11.26165585 -26.14881464 -18.13105963 0 0 Z " fill="#5931B8" transform="translate(290,71)"/>
<path d="M0 0 C10.22633345 8.04471564 16.51439498 20.83618473 18.0703125 33.6328125 C18.69353418 43.62422296 18.97277268 54.23800095 15.0703125 63.6328125 C13.46484375 65.44921875 13.46484375 65.44921875 12.0703125 66.6328125 C7.46602316 65.31730126 3.88710862 63.54084764 0.0703125 60.6328125 C0.0703125 59.9728125 0.0703125 59.3128125 0.0703125 58.6328125 C-0.60644531 58.4059375 -1.28320312 58.1790625 -1.98046875 57.9453125 C-5.72702019 56.27797305 -8.81795572 54.04604369 -12.1171875 51.6328125 C-12.74560547 51.18164062 -13.37402344 50.73046875 -14.02148438 50.265625 C-16.46941774 48.49578227 -18.79033081 46.77216919 -20.9296875 44.6328125 C-21.07739258 41.79467773 -21.07739258 41.79467773 -20.94921875 38.19140625 C-20.92021484 36.88494141 -20.89121094 35.57847656 -20.86132812 34.23242188 C-20.80595625 32.1607333 -20.74295983 30.09015446 -20.66235352 28.01928711 C-20.28304067 17.68332291 -21.16336848 11.24584289 -27.88671875 3.328125 C-35.77275629 -3.34595309 -42.00412884 -4.94190413 -52.38671875 -4.73046875 C-57.66081919 -4.18968447 -62.10238768 -2.46462125 -66.9296875 -0.3671875 C-68.92627768 0.30962273 -70.92433372 0.98242749 -72.9296875 1.6328125 C-68.24437227 -3.59441871 -62.31845402 -5.74860007 -55.9296875 -8.3671875 C-55.08535156 -8.71394531 -54.24101562 -9.06070313 -53.37109375 -9.41796875 C-34.71349585 -15.7167738 -15.57867548 -11.03752311 0 0 Z " fill="#528EEA" transform="translate(291.9296875,72.3671875)"/>
<path d="M0 0 C0.33 0 0.66 0 1 0 C1.03738281 0.90621094 1.07476562 1.81242187 1.11328125 2.74609375 C1.71499404 13.89547788 3.28826411 23.45456293 11 32 C20.06395634 38.83018511 27.80120554 39.80816043 39 39 C51.44393903 36.59243138 63.11927227 30.76952128 71.8046875 21.50390625 C75.04905395 19.28134204 77.15011109 19.45893453 81 20 C84.02734375 21.94140625 84.02734375 21.94140625 86.9375 24.5625 C87.70574097 25.24542114 87.70574097 25.24542114 88.48950195 25.94213867 C90.00026349 27.28664302 91.50031976 28.64314645 93 30 C96.28266863 32.67150189 96.28266863 32.67150189 99.57421875 35.33203125 C101.44115126 37.51608654 101.79588629 39.15601562 102 42 C100.38671759 44.04349105 98.99335237 45.37953803 97 47 C96.39027344 47.53625 95.78054688 48.0725 95.15234375 48.625 C80.40091638 60.97759713 62.94532988 65.64845872 44 64 C28.7428872 61.5791297 16.6613775 52.78584496 7.53515625 40.53125 C2.91684396 32.91632287 -0.15535426 24.07991029 -0.09765625 15.13671875 C-0.09443359 14.25048828 -0.09121094 13.36425781 -0.08789062 12.45117188 C-0.07951172 11.53916016 -0.07113281 10.62714844 -0.0625 9.6875 C-0.05798828 8.75615234 -0.05347656 7.82480469 -0.04882812 6.86523438 C-0.03709234 4.57675627 -0.02067363 2.28841192 0 0 Z " fill="#BEEB15" transform="translate(187,123)"/>
<path d="M0 0 C2.31 0.33 4.62 0.66 7 1 C7 4.96 7 8.92 7 13 C7.804375 12.195625 8.60875 11.39125 9.4375 10.5625 C13 7 13 7 15.5625 6.9375 C16.7690625 6.9684375 16.7690625 6.9684375 18 7 C16.88336699 9.31916086 15.75810791 11.33692112 14.25 13.4375 C12.65420179 15.98200638 12.65420179 15.98200638 13.8125 18.8125 C14.204375 19.534375 14.59625 20.25625 15 21 C16.051875 20.814375 17.10375 20.62875 18.1875 20.4375 C21.57119882 20.04920669 23.76425888 20.11752515 27 21 C26.4225 20.566875 25.845 20.13375 25.25 19.6875 C24.5075 19.130625 23.765 18.57375 23 18 C22.2575 17.566875 21.515 17.13375 20.75 16.6875 C19 15 19 15 18.5625 11.9375 C18.706875 10.968125 18.85125 9.99875 19 9 C22.66865241 6.55423173 24.67200343 6.76392746 29 7 C29.66 7.33 30.32 7.66 31 8 C31 9.65 31 11.3 31 13 C30.01 13 29.02 13 28 13 C28 12.34 28 11.68 28 11 C26.35 11 24.7 11 23 11 C23 11.66 23 12.32 23 13 C23.94875 13.309375 24.8975 13.61875 25.875 13.9375 C29 15 29 15 31 16 C31.09765625 22.15234375 31.09765625 22.15234375 31 24 C30 25 30 25 28.0390625 25.09765625 C26.84410156 25.08025391 26.84410156 25.08025391 25.625 25.0625 C24.43777344 25.04896484 24.43777344 25.04896484 23.2265625 25.03515625 C22.49179687 25.02355469 21.75703125 25.01195312 21 25 C20.01 25 19.02 25 18 25 C16 25 14 25 12 25 C11.319375 23.5459375 11.319375 23.5459375 10.625 22.0625 C9.34213779 18.92920418 9.34213779 18.92920418 7 18 C7 20.31 7 22.62 7 25 C5.35 25 3.7 25 2 25 C2 18.4 2 11.8 2 5 C1.34 5 0.68 5 0 5 C0 3.35 0 1.7 0 0 Z " fill="#000000" transform="translate(314,204)"/>
<path d="M0 0 C5.625 1.125 5.625 1.125 7.67578125 4.16015625 C8.11083984 4.78857422 8.54589844 5.41699219 8.99414062 6.06445312 C9.64672852 7.05348633 9.64672852 7.05348633 10.3125 8.0625 C10.76689453 8.72572266 11.22128906 9.38894531 11.68945312 10.07226562 C12.80602967 11.70599341 13.90479181 13.35187117 15 15 C15.33 10.38 15.66 5.76 16 1 C19.465 0.505 19.465 0.505 23 0 C23 1.65 23 3.3 23 5 C22.01 5 21.02 5 20 5 C20 11.6 20 18.2 20 25 C14.73064773 23.94612955 14.17512082 23.50007742 11.36132812 19.29101562 C10.7802832 18.37352539 10.7802832 18.37352539 10.1875 17.4375 C9.57745117 16.51420898 9.57745117 16.51420898 8.95507812 15.57226562 C7.9566127 14.05694751 6.97646735 12.52958612 6 11 C5.67 15.62 5.34 20.24 5 25 C2.69 25 0.38 25 -2 25 C-2 23.68 -2 22.36 -2 21 C-1.34 21 -0.68 21 0 21 C0 14.07 0 7.14 0 0 Z " fill="#000000" transform="translate(200,204)"/>
<path d="M0 0 C14.80587343 -0.65641803 14.80587343 -0.65641803 21.4375 5.125 C23.62122615 9.14305612 23.67603317 12.5202621 23 17 C21.36946123 20.75023917 19.49371105 22.90732029 16 25 C12.80078125 25.328125 12.80078125 25.328125 9.3125 25.25 C8.15363281 25.23453125 6.99476563 25.2190625 5.80078125 25.203125 C3 25 3 25 2 24 C1.91348389 22.58429877 1.89295096 21.164405 1.90234375 19.74609375 C1.90556641 18.89208984 1.90878906 18.03808594 1.91210938 17.15820312 C1.92048828 16.26037109 1.92886719 15.36253906 1.9375 14.4375 C1.94201172 13.53580078 1.94652344 12.63410156 1.95117188 11.70507812 C1.96299775 9.46998686 1.9794778 7.23502563 2 5 C1.34 5 0.68 5 0 5 C0 3.35 0 1.7 0 0 Z M7 5 C7 10.28 7 15.56 7 21 C13.48340918 21.611447 13.48340918 21.611447 16.4375 19.5 C18.63828902 15.97873756 18.80414661 13.04560357 18 9 C16.60314994 6.3530128 16.60314994 6.3530128 14 5 C11.69 5 9.38 5 7 5 Z " fill="#000000" transform="translate(174,204)"/>
<path d="M0 0 C2.25 0 2.25 0 5 1 C6.70175879 3.57166744 7.77644187 6.14503103 9 9 C9.99 6.03 10.98 3.06 12 0 C13.65 0.33 15.3 0.66 17 1 C17.99 3.97 18.98 6.94 20 10 C20.474375 8.535625 20.94875 7.07125 21.4375 5.5625 C22.875 1.125 22.875 1.125 24 0 C25.66617115 -0.04063832 27.33388095 -0.042721 29 0 C29 1.32 29 2.64 29 4 C28.34 4 27.68 4 27 4 C26.79503906 4.75925781 26.59007812 5.51851562 26.37890625 6.30078125 C26.10949219 7.29464844 25.84007812 8.28851563 25.5625 9.3125 C25.29566406 10.29863281 25.02882813 11.28476563 24.75390625 12.30078125 C24.21920575 14.21517526 23.62855462 16.11433615 23 18 C21.02 18 19.04 18 17 18 C16.34 15.03 15.68 12.06 15 9 C14.34 9 13.68 9 13 9 C12.855625 10.11375 12.71125 11.2275 12.5625 12.375 C12 16 12 16 11 18 C9.35 18 7.7 18 6 18 C5.73445313 17.32453125 5.46890625 16.6490625 5.1953125 15.953125 C4.84210938 15.06109375 4.48890625 14.1690625 4.125 13.25 C3.77695312 12.36828125 3.42890625 11.4865625 3.0703125 10.578125 C2.07142668 8.04417218 2.07142668 8.04417218 0.8671875 5.921875 C0 4 0 4 0 0 Z " fill="#000000" transform="translate(253,211)"/>
<path d="M0 0 C2.70471323 2.45883021 2.82434853 4.30272798 3.0625 7.875 C1.4125 7.875 -0.2375 7.875 -1.9375 7.875 C-2.2675 6.885 -2.5975 5.895 -2.9375 4.875 C-6.05143771 3.89633386 -7.58068075 3.74524755 -10.6875 4.875 C-13.24932786 6.78547278 -13.24932786 6.78547278 -13.875 10.3125 C-13.93434526 13.6951801 -13.89890888 15.1909668 -11.9375 17.875 C-8.91312661 19.3871867 -6.27508466 19.04763369 -2.9375 18.875 C-0.58380193 17.99435073 -0.58380193 17.99435073 1.0625 16.875 C1.7225 18.195 2.3825 19.515 3.0625 20.875 C-1.09470903 24.62346666 -4.68145951 24.42315089 -10.078125 24.3046875 C-12.9375 23.875 -12.9375 23.875 -16.125 21.5 C-19.61792838 16.44127614 -19.57570463 11.92483017 -18.9375 5.875 C-14.73023887 -1.48770697 -7.70963407 -2.95262582 0 0 Z " fill="#000000" transform="translate(169.9375,205.125)"/>
<path d="M0 0 C2.8100346 1.79363911 4.50940468 3.01880935 6 6 C6.47707476 10.21416041 6.43171409 12.32364792 4.125 15.9375 C-0.2442557 18.82120876 -3.90316062 18.91260975 -9 18 C-12.42315607 15.91270971 -12.86378538 14.45972435 -14 10.625 C-14 6.16331516 -12.81998243 4.38397892 -10 1 C-6.79826746 -0.60086627 -3.47422941 -0.49917089 0 0 Z M-7.8125 5.1875 C-9.44052002 7.67237266 -9.50975499 9.08711432 -9 12 C-7.40383995 14.00965774 -7.40383995 14.00965774 -5 15 C-2.32859537 14.93290716 -2.32859537 14.93290716 0 14 C1.38125018 11.23749964 1.19079306 9.05268901 1 6 C-0.82203581 3.77033253 -0.82203581 3.77033253 -3.4375 3.6875 C-5.99860335 3.80793124 -5.99860335 3.80793124 -7.8125 5.1875 Z " fill="#000000" transform="translate(295,211)"/>
<path d="M0 0 C2.9375 2.1875 2.9375 2.1875 5 5 C5 6.65 5 8.3 5 10 C-0.94 10.495 -0.94 10.495 -7 11 C-6.01 11.99 -5.02 12.98 -4 14 C-0.35458155 13.76522801 -0.35458155 13.76522801 3 13 C3.99 14.485 3.99 14.485 5 16 C0.74772683 18.83484878 -3.01133771 18.62868576 -8 18 C-10.625 16.5625 -10.625 16.5625 -12 14 C-12.92531621 9.18476224 -12.70329942 6.04429308 -9.9375 1.9375 C-6.21772362 -0.51596953 -4.3766411 -0.78154305 0 0 Z M-6 4 C-6.33 4.99 -6.66 5.98 -7 7 C-4.69 7 -2.38 7 0 7 C-0.33 6.01 -0.66 5.02 -1 4 C-2.65 4 -4.3 4 -6 4 Z " fill="#000000" transform="translate(236,211)"/>
<path d="M0 0 C1.65 0.33 3.3 0.66 5 1 C5 1.99 5 2.98 5 4 C5.99 4.33 6.98 4.66 8 5 C8 6.32 8 7.64 8 9 C7.01 9.33 6.02 9.66 5 10 C5 12.97 5 15.94 5 19 C6.32 19 7.64 19 9 19 C9 20.32 9 21.64 9 23 C3.5320197 23.36453202 3.5320197 23.36453202 1.3125 21.84375 C-0.51962482 19.27005085 -0.29770208 17.43489214 -0.1875 14.3125 C-0.16042969 13.31863281 -0.13335937 12.32476562 -0.10546875 11.30078125 C-0.07066406 10.54152344 -0.03585938 9.78226563 0 9 C-0.66 9 -1.32 9 -2 9 C-2 7.68 -2 6.36 -2 5 C-1.34 5 -0.68 5 0 5 C0 3.35 0 1.7 0 0 Z " fill="#000000" transform="translate(244,206)"/>
<path d="M0 0 C4.75 -0.125 4.75 -0.125 7 1 C9.00800456 0.71887936 11.01014051 0.38932033 13 0 C13 1.65 13 3.3 13 5 C11.35 5.33 9.7 5.66 8 6 C7.34 9.96 6.68 13.92 6 18 C4.68 18 3.36 18 2 18 C2 13.38 2 8.76 2 4 C1.34 4 0.68 4 0 4 C0 2.68 0 1.36 0 0 Z " fill="#000000" transform="translate(302,211)"/>
<path d="M0 0 C1 2 1 2 0.4765625 3.99609375 C0.05503906 5.20458984 0.05503906 5.20458984 -0.375 6.4375 C-2.13160047 11.93188961 -2.68359009 17.26097888 -3 23 C-3.33 23 -3.66 23 -4 23 C-4.144375 21.906875 -4.28875 20.81375 -4.4375 19.6875 C-4.88288104 16.06877013 -4.88288104 16.06877013 -6 13 C-5.0390625 10.1171875 -5.0390625 10.1171875 -3.625 6.875 C-3.16351563 5.79992187 -2.70203125 4.72484375 -2.2265625 3.6171875 C-1 1 -1 1 0 0 Z " fill="#D34550" transform="translate(196,98)"/>
<path d="M0 0 C0.33 0 0.66 0 1 0 C1.06058594 0.92941406 1.12117187 1.85882813 1.18359375 2.81640625 C1.65337564 10.56494437 1.65337564 10.56494437 2.6875 18.25 C2.790625 19.1575 2.89375 20.065 3 21 C2.34 21.66 1.68 22.32 1 23 C0.03911617 20.11734851 -0.11670941 18.32337729 -0.09765625 15.33203125 C-0.09443359 14.43935547 -0.09121094 13.54667969 -0.08789062 12.62695312 C-0.07951172 11.69818359 -0.07113281 10.76941406 -0.0625 9.8125 C-0.05798828 8.87212891 -0.05347656 7.93175781 -0.04882812 6.96289062 C-0.03704626 4.64186288 -0.02059558 2.32096356 0 0 Z " fill="#D6EA1B" transform="translate(187,123)"/>
</svg>
