<?xml version="1.0" encoding="utf-8"?>
<!DOCTYPE svg PUBLIC "-//W3C//DTD SVG 1.0//EN" "http://www.w3.org/TR/2001/REC-SVG-20010904/DTD/svg10.dtd">
<svg version="1.0" xmlns="http://www.w3.org/2000/svg" width="300px" height="309px" viewBox="0 0 300 309" preserveAspectRatio="xMidYMid meet">
 <g fill="#63b6ec">
  <path d="M235.4 62 c-33.3 -31.7 -60 -58 -60.2 -59.1 -0.3 -1.9 0 -2 7 -1.4 4 0.4 11.7 1.6 17.1 2.6 50.4 10 89.1 50.4 98.1 102.4 2 11.5 2 12.5 -0.2 12.5 -1.1 0 -27.4 -24.3 -61.8 -57z"/>
 </g>
 <g fill="#e5f31c">
  <path d="M114.9 307.9 c-37.8 -3.5 -71.9 -23.6 -92.5 -54.5 -13 -19.5 -20.2 -42.1 -22 -68.6 l-0.7 -10.8 2.7 0 c2.3 0 2.6 0.4 2.6 3.8 0 6.8 4 20.6 8.7 30.2 3.9 7.8 6.2 11 13.3 18.1 12.4 12.4 27 19.3 45.5 21.4 4.3 0.5 6.8 1.4 9 3.3 l3 2.5 0.3 -3.1 c0.3 -2.9 0.6 -3.2 4 -3.2 4.6 -0.1 33 -7.6 34.2 -9.1 1.2 -1.5 5.1 -2.9 7.9 -2.9 2.8 0 3.1 0.3 3.1 3.3 0 2.6 -0.6 3.6 -2.5 4.5 -1.4 0.7 -3.5 1.2 -4.5 1.2 -1.1 0 -2 0.4 -2 0.9 0 1.8 -20.9 7.5 -32.7 8.9 l-6.2 0.7 30.9 25 c17 13.8 30.9 25.5 30.9 26.2 0.2 2.3 -18.3 3.6 -33 2.2z"/>
  <path d="M135 234.7 c0 -2.6 0.6 -3.6 2.5 -4.5 1.4 -0.7 3.5 -1.2 4.5 -1.2 1.1 0 2 -0.7 2 -1.5 0 -0.8 0.7 -1.5 1.5 -1.5 0.8 0 1.5 -0.4 1.5 -1 0 -0.5 0.7 -1 1.5 -1 0.8 0 1.5 -0.4 1.5 -1 0 -0.5 0.7 -1 1.5 -1 0.8 0 1.5 -0.4 1.5 -1 0 -0.5 0.9 -1 2 -1 1.1 0 2 -0.7 2 -1.5 0 -0.8 0.9 -1.5 2 -1.5 1.1 0 2 -0.7 2 -1.5 0 -1 1 -1.5 2.9 -1.5 2.5 0 3 -0.4 3.3 -2.7 0.3 -2.4 0.8 -2.8 4.1 -3.1 l3.8 -0.3 -0.3 3.8 c-0.3 3.5 -0.6 3.8 -3.5 4.1 -2.7 0.3 -3.3 0.7 -3.3 2.8 0 1.7 -0.5 2.4 -2 2.4 -1.1 0 -2 0.7 -2 1.5 0 0.8 -0.9 1.5 -2 1.5 -1.1 0 -2 0.7 -2 1.5 0 0.8 -0.7 1.5 -1.5 1.5 -0.8 0 -1.5 0.5 -1.5 1 0 0.6 -0.7 1 -1.5 1 -0.8 0 -1.5 0.5 -1.5 1 0 0.6 -0.7 1 -1.5 1 -0.8 0 -1.5 0.5 -1.5 1 0 0.6 -1.1 1 -2.5 1 -1.4 0 -2.5 0.6 -2.5 1.3 0 1.8 -4.3 3.7 -8 3.7 -2.7 0 -3 -0.3 -3 -3.3z"/>
  <path d="M218 223.5 c0 -3.3 0.2 -3.5 3.5 -3.5 2.8 0 3.5 0.4 3.5 1.9 0 3.7 -1.2 5.1 -4.1 5.1 -2.6 0 -2.9 -0.3 -2.9 -3.5z"/>
  <path d="M210 217 c0 -2.8 -0.3 -3 -3.5 -3 -3.2 0 -3.5 -0.2 -3.5 -3 0 -2.8 -0.3 -3 -3.5 -3 -1.9 0 -3.5 -0.4 -3.5 -0.8 0 -1.1 -6.1 -3.2 -9.3 -3.2 -2.4 0 -2.7 -0.4 -2.7 -3.5 0 -3.5 0.1 -3.5 4.3 -3.5 5.1 0 11.7 1.7 11.7 3 0 0.6 0.7 1 1.5 1 1 0 1.5 1 1.5 3 0 2.8 0.3 3 3.5 3 3.2 0 3.5 0.2 3.5 3 0 2.8 0.3 3 3.5 3 3.3 0 3.5 0.2 3.5 3.5 0 3.3 -0.2 3.5 -3.5 3.5 -3.2 0 -3.5 -0.2 -3.5 -3z"/>
  <path d="M1 162.3 c0 -3.4 1.2 -6.3 2.6 -6.3 1 0 1.4 1.3 1.4 4 0 3.3 -0.3 4 -2 4 -1.2 0 -2 -0.7 -2 -1.7z"/>
 </g>
 <g fill="#5696eb">
  <path d="M253.8 117.6 c-35.1 -33.6 -40.3 -38.2 -40.6 -36 -0.4 3.1 -2.8 3.1 -3.6 -0.1 -0.4 -1.4 -1.1 -2.5 -1.6 -2.5 -2.1 0 -0.9 -2 1.3 -2 2 -0.1 1.9 -0.3 -1.4 -3.3 -2 -1.8 -4.2 -5 -4.9 -7.2 -2.4 -7.6 -9.1 -19.3 -14.6 -25.3 -8.2 -9.1 -22.8 -18 -33.8 -20.6 -3.2 -0.8 -16.6 -12.4 -16.6 -14.3 0 -0.7 0.1 -1.3 0.3 -1.3 0.1 0 4 -0.7 8.7 -1.5 4.7 -0.8 13.5 -1.8 19.5 -2.1 l11 -0.6 60.5 57.7 60.5 57.6 0.8 5.7 c0.8 5.6 0.2 25.6 -1 31.3 -0.4 1.9 -1.2 2.9 -2.4 2.9 -1 0 -19.5 -16.9 -42.1 -38.4z"/>
 </g>
 <g fill="#ccef18">
  <path d="M110 279.4 c-18.4 -15.2 -34.3 -27.8 -35.2 -28.1 -1 -0.3 -1.8 -1.2 -1.8 -1.9 0 -1.1 1.7 -1.4 6.9 -1.4 9 0 21.3 -2.4 32 -6.2 4.7 -1.6 10.3 -3.2 12.4 -3.5 2.1 -0.3 3.7 -1.1 3.7 -1.8 0 -1.6 2.2 -2.5 6.1 -2.5 2.6 0 2.9 0.3 2.9 3.4 0 3.7 -1.2 4.6 -6 4.6 -1.9 0 -2.9 0.6 -3.3 2 -0.4 1.7 4.7 6.2 29.3 26.3 16.5 13.3 29.9 24.7 30 25.4 0 2.4 -32.1 11.4 -40.2 11.2 -2.8 0 -8.4 -4.2 -36.8 -27.5z"/>
  <path d="M177 203.5 c0 -3.3 0.2 -3.5 3.5 -3.5 3.3 0 3.5 0.2 3.5 3.5 0 3.3 -0.2 3.5 -3.5 3.5 -3.3 0 -3.5 -0.2 -3.5 -3.5z"/>
  <path d="M4 193 c0 -1.1 -0.5 -1.9 -1.2 -1.7 -1.6 0.3 -2.5 -4.3 -2.7 -13.3 -0.1 -8.5 0.6 -12 2.4 -12 0.8 0 1.4 2.7 1.8 8.2 0.4 4.6 0.9 11.1 1.3 14.6 0.5 4.3 0.3 6.2 -0.5 6.2 -0.6 0 -1.1 -0.9 -1.1 -2z"/>
 </g>
 <g fill="#b5ea14">
  <path d="M151.5 271.3 c-17.9 -14.6 -32.2 -26.9 -31.9 -27.5 0.4 -0.6 -0.2 -0.8 -1.6 -0.3 -1.7 0.5 -2.1 0.3 -1.8 -1 0.2 -0.9 3.2 -2.9 7 -4.6 3.6 -1.6 9.8 -4.7 13.7 -6.9 3.9 -2.2 7.5 -4 8.1 -4 0.5 0 1 -0.4 1 -1 0 -0.5 0.7 -1 1.5 -1 0.8 0 1.5 -0.4 1.5 -1 0 -0.5 0.7 -1 1.5 -1 0.8 0 1.5 -0.4 1.5 -1 0 -0.5 0.9 -1 2 -1 1.1 0 2 -0.7 2 -1.5 0 -0.8 0.9 -1.5 2 -1.5 1.1 0 2 -0.7 2 -1.5 0 -0.9 0.9 -1.5 2.4 -1.5 1.8 0 2.5 -0.6 2.8 -2.2 0.2 -1.9 1 -2.4 4.1 -2.6 l3.8 -0.3 -0.3 3.8 c-0.3 3.3 -0.7 3.8 -3 4.1 -2 0.2 -2.8 0.9 -2.8 2.3 0 1.2 -0.7 1.9 -2 1.9 -1.1 0 -2 0.7 -2 1.5 0 0.8 -0.9 1.5 -2 1.5 -1.1 0 -2 0.7 -2 1.5 0 0.8 -0.6 1.5 -1.4 1.5 -0.8 0 -1.6 0.7 -1.9 1.5 -0.4 1 8.3 8.7 28.5 25.2 16.1 13.1 29.9 24.3 30.8 25 1.3 1 1.3 1.3 -0.5 2.7 -2.4 1.8 -21.6 11.8 -26.7 13.9 l-3.7 1.6 -32.6 -26.6z"/>
  <path d="M219 224.5 c0 -3.3 0.2 -3.5 3.5 -3.5 3.5 0 4.9 2 2.4 3.5 -0.6 0.4 -0.8 1.3 -0.5 2.1 0.4 1 -0.3 1.4 -2.4 1.4 -2.8 0 -3 -0.3 -3 -3.5z"/>
  <path d="M211 218 c0 -2.8 -0.3 -3 -3.5 -3 -3.2 0 -3.5 -0.2 -3.5 -3 0 -2.8 -0.3 -3 -3.5 -3 -3.3 0 -3.5 -0.2 -3.5 -3.5 0 -3.3 0.2 -3.5 3.5 -3.5 3.2 0 3.5 0.2 3.5 3 0 2.8 0.3 3 3.5 3 3.2 0 3.5 0.2 3.5 3 0 2.8 0.3 3 3.5 3 3.3 0 3.5 0.2 3.5 3.5 0 3.3 -0.2 3.5 -3.5 3.5 -3.2 0 -3.5 -0.2 -3.5 -3z"/>
  <path d="M181 201.5 c0 -3.3 0.2 -3.5 3.3 -3.5 3.2 0 3.4 0.2 3.5 3.5 0.1 3.4 0 3.5 -3.3 3.5 -3.3 0 -3.5 -0.2 -3.5 -3.5z"/>
 </g>
 <g fill="#4978ea">
  <path d="M250.5 148.6 c-21.3 -20.3 -38.1 -35.7 -38.3 -35 -0.2 0.9 -1.7 1.4 -3.8 1.4 -2.8 0 -3.4 -0.4 -3.4 -2 0 -1.4 0.6 -2 1.7 -1.8 2.3 0.4 3.1 -4.9 3.2 -19.8 0.1 -10.8 0 -11.2 -2.4 -12.8 -1.4 -0.9 -2.5 -2.5 -2.5 -3.6 0 -1 -1.1 -5 -2.5 -8.8 -2.6 -7.2 -3.2 -12.2 -1.5 -12.2 1.2 0 2.7 2.8 4.9 8.9 1.4 4.1 7 9.8 46.6 47.6 24.8 23.5 45.1 43.4 45.3 44.1 1 3.9 -6.1 30.4 -8.1 30.4 -0.7 -0.1 -18.3 -16.4 -39.2 -36.4z"/>
  <path d="M195.4 50.5 c-0.3 -1.4 -1 -2.5 -1.5 -2.5 -0.5 0 -1.2 -0.7 -1.6 -1.6 -0.3 -0.8 -3 -3.8 -5.9 -6.6 -3 -2.8 -5.4 -5.7 -5.4 -6.4 0 -0.8 -0.9 -1.4 -2 -1.4 -1.1 0 -2 -0.4 -2 -1 0 -0.5 -0.7 -1 -1.5 -1 -0.8 0 -1.5 -0.7 -1.5 -1.5 0 -0.9 -0.9 -1.5 -2.4 -1.5 -1.4 0 -3.1 -0.7 -4 -1.5 -0.8 -0.8 -2 -1.5 -2.6 -1.5 -0.6 0 -3.9 -0.9 -7.3 -2 -10.8 -3.4 -18.1 -4.1 -30.4 -2.8 -10.5 1.1 -11.4 1 -13.3 -0.7 -4.1 -3.7 -2.7 -5 8.8 -8.8 5.9 -2 12.5 -3.9 14.7 -4.2 3.8 -0.7 4.3 -0.4 10.6 5.4 3.6 3.3 7.9 6.3 9.5 6.7 14.9 3.5 32 15.8 40.4 29 3.6 5.8 3.7 6.4 0.5 6.4 -1.8 0 -2.6 -0.7 -3.1 -2.5z"/>
 </g>
 <g fill="#ff5352">
  <path d="M65.5 250 c-23.8 -3.5 -44.5 -18.2 -54.8 -39 -6.8 -13.9 -9.1 -24.2 -9.1 -42 0 -10.1 0.6 -17.2 1.8 -23.5 2.5 -12.1 2.7 -12.5 8.1 -12.5 l4.5 0 0 6.3 c0 30.7 27.6 54.1 55.8 47 1.6 -0.4 2.2 -0.1 2.2 1.1 0 5.1 24 -4.1 40.8 -15.6 14.6 -10 32.7 -30 41.4 -45.8 1.8 -3.3 3.9 -6 4.8 -6 0.8 0 11.2 -0.9 23 -2 11.8 -1.1 22.3 -2 23.3 -2 2.1 0 2.3 5.1 0.6 11 -1 3.3 -0.9 4.3 1.2 7.9 1.9 3.4 6.5 7 26.1 20.3 16.6 11.3 23.8 16.8 23.8 18.1 0 1 -0.4 1.6 -0.9 1.2 -0.6 -0.3 -3.2 3.9 -6 9.4 -5.9 11.8 -13.9 24.2 -22.1 34.3 -3.3 4 -5.8 7.9 -5.5 8.6 0.3 0.7 -0.4 1.2 -1.8 1.2 -1.5 0 -7.1 -4.1 -15.7 -11.5 -7.3 -6.4 -14.4 -11.8 -15.6 -12.1 -3.7 -0.9 -5.9 0.3 -15.8 9 -9.7 8.5 -23.6 18.6 -25.5 18.6 -0.7 0 -1.4 -0.6 -1.7 -1.4 -0.4 -1.1 -1.9 -0.6 -6.7 2.1 -17 9.6 -36.4 16.1 -53.9 17.8 -6.3 0.7 -6.8 0.6 -6.8 -1.2 0 -1.8 0.9 -2.1 7.3 -2.6 7.5 -0.7 26.1 -5.5 21.7 -5.6 -1.4 -0.1 -12.2 0.8 -24 1.9 -11.8 1.1 -22.2 2 -23 2.1 -2.6 0.2 4.3 1.7 8.8 1.8 3.5 0.1 4.2 0.4 4.2 2.1 0 2.2 -1.4 2.3 -10.5 1z"/>
  <path d="M200 110.5 c0 -3 0.3 -3 4.1 -0.8 3.8 2.3 3.7 3.3 -0.6 3.3 -3.1 0 -3.5 -0.3 -3.5 -2.5z"/>
 </g>
 <g fill="#9ce610">
  <path d="M180.4 257 c-17.5 -14.3 -32 -26.4 -32.2 -26.8 -0.1 -0.4 1.2 -1.6 2.8 -2.6 1.7 -0.9 7.3 -5 12.4 -9 l9.3 -7.3 32.1 26.1 c17.6 14.4 32.3 26.4 32.7 26.7 1 1 -22.3 18.9 -24.6 18.9 -0.3 0 -14.9 -11.7 -32.5 -26z"/>
  <path d="M220 225.9 c0 -2.7 0.2 -3 1.5 -1.9 1.2 1 1.8 1 3.3 -0.1 1.5 -1.3 1.6 -1.2 0.3 0.4 -1.1 1.4 -1.1 2 -0.1 3.2 1.1 1.3 0.8 1.5 -1.9 1.5 -2.8 0 -3.1 -0.3 -3.1 -3.1z"/>
  <path d="M212 218.9 l0 -3 3 2.1 c4.4 3.1 4.5 4 0.6 4 -3.3 0 -3.6 -0.2 -3.6 -3.1z"/>
  <path d="M178 205.8 l4.5 -4 0.3 2.6 c0.5 3.8 -1.4 5.6 -5.7 5.6 l-3.6 -0.1 4.5 -4.1z"/>
 </g>
 <g fill="#f04d4d">
  <path d="M67.1 250 c-10.4 -1.5 -26.5 -6.9 -20.4 -7 2 0 77.6 -6.5 85.8 -7.3 3.7 -0.4 3.4 -0.2 -3.5 3 -20.2 9.4 -44.2 13.7 -61.9 11.3z"/>
  <path d="M221 225.8 c0 -2 0.1 -2.1 2 -0.3 1.1 1 2 2 2 2.2 0 0.1 -0.9 0.3 -2 0.3 -1.4 0 -2 -0.7 -2 -2.2z"/>
  <path d="M44 188 c-14.8 -5.4 -25.2 -17.2 -29.5 -33.5 -1.9 -7.6 -1.9 -8.5 0.4 -8.5 1.6 0 2.1 1 2.6 5.5 0.4 3 1.1 5.5 1.6 5.5 0.5 0 0.9 1.1 0.9 2.5 0 1.4 0.5 2.5 1 2.5 0.6 0 1 1.1 1 2.5 0 1.6 0.6 2.5 1.5 2.5 0.8 0 1.5 0.9 1.5 2 0 1.1 0.7 2 1.5 2 0.9 0 1.5 0.9 1.5 2.4 0 1.9 0.6 2.5 2.8 2.8 1.9 0.2 2.8 0.9 3 2.6 0.2 1.6 1 2.2 2.7 2.2 2.7 0 7.5 1.9 7.5 3 0 0.4 2 1.1 4.5 1.4 3.6 0.6 4.5 1.1 4.5 2.7 0 2.4 -1.9 2.4 -9 -0.1z"/>
  <path d="M247.1 168.5 c-5.2 -3.5 -10.1 -7.1 -11 -7.9 -1.4 -1.5 -1.2 -1.6 2.2 -1.6 2 0 3.7 0.5 3.7 1 0 0.6 0.7 1 1.5 1 0.8 0 1.5 0.5 1.5 1 0 0.6 0.7 1 1.5 1 0.8 0 1.5 0.5 1.5 1 0 0.6 0.7 1 1.5 1 0.8 0 1.5 0.5 1.5 1 0 0.6 0.7 1 1.5 1 0.8 0 1.5 0.5 1.5 1 0 0.6 0.7 1 1.5 1 1 0 1.5 1 1.5 3 0 1.7 -0.1 3 -0.2 2.9 -0.2 0 -4.5 -2.9 -9.7 -6.4z"/>
  <path d="M220.2 150.1 c-6.2 -4.3 -12 -8.8 -12.9 -10 -1.5 -2.2 -1.4 -2.2 1.8 -1.9 2.9 0.2 3.5 0.7 3.7 3.1 0.3 2.4 0.8 2.7 3.8 2.7 1.9 0 3.4 0.5 3.4 1 0 0.6 0.7 1 1.5 1 0.8 0 1.5 0.5 1.5 1 0 0.6 0.7 1 1.5 1 0.8 0 1.5 0.5 1.5 1 0 0.6 0.7 1 1.5 1 0.8 0 1.5 0.5 1.5 1 0 0.6 0.7 1 1.5 1 1 0 1.5 1 1.5 3 0 1.7 -0.1 3 -0.2 3 -0.2 -0.1 -5.4 -3.6 -11.6 -7.9z"/>
  <path d="M13 137.5 c0 -1.2 -0.8 -1.4 -3.9 -0.9 l-4 0.6 2.2 -7.3 c2.2 -7 2.4 -7.4 5.5 -7.7 l3.2 -0.3 0 8.5 c0 7 -0.3 8.6 -1.5 8.6 -0.8 0 -1.5 -0.7 -1.5 -1.5z"/>
  <path d="M204.4 126.3 c0.3 -1.6 0.8 -3.8 1.2 -5 0.5 -2 0.3 -2.1 -3.3 -1.7 -9.8 1.1 -37.4 3.4 -40.6 3.4 l-3.5 0 3.8 -8.7 c3.5 -8.3 6 -11.5 6 -7.8 0 1.5 1 1.6 9 0.9 5 -0.3 10.5 -1 12.3 -1.4 3.1 -0.8 3.1 -0.8 0.5 -0.9 -2.3 -0.1 -2.8 -0.6 -2.8 -2.6 0 -1.4 0.3 -2.5 0.8 -2.5 0.4 0 5 2.7 10.2 6 5.2 3.3 9.8 6 10.2 6 0.4 0 0.8 -0.7 0.8 -1.5 0 -0.8 0.5 -1.5 1.1 -1.5 1.4 0 0.4 10.9 -1.1 12.4 -0.6 0.6 -1 2.5 -1 4.3 0 2.7 -0.4 3.3 -2.1 3.3 -1.8 0 -2.1 -0.4 -1.5 -2.7z"/>
  <path d="M178.2 99.1 c-0.8 -0.4 -1.2 -1.8 -1 -3 l0.3 -2.1 4.3 2.1 c2.3 1.2 4.2 2.5 4.2 3 0 1.1 -6.1 1.2 -7.8 0z"/>
 </g>
 <g fill="#3e5ce9">
  <path d="M269.4 181.9 c-6 -3.9 -11.3 -7.2 -11.9 -7.3 -1.5 -0.2 -44.5 -29.4 -47.8 -32.5 -3.7 -3.4 -5.7 -7.2 -5.7 -11.1 0 -3.6 2.7 -15.7 4.1 -18.2 0.5 -1 0.9 -2.9 0.9 -4.2 0 -1.4 0.4 -2.7 1 -3.1 0.5 -0.3 19.1 16.8 41.4 38 42.6 40.7 42.4 40.4 37.3 44 -4.2 3 -7.9 1.9 -19.3 -5.6z"/>
  <path d="M206.5 78.2 c-1.1 -0.7 -5.5 -15 -5.5 -17.7 0 -0.8 -0.4 -1.5 -0.8 -1.5 -1.1 0 -3.2 -4.6 -3.2 -7 0 -1.1 -0.7 -2 -1.5 -2 -0.8 0 -1.5 -0.9 -1.5 -2 0 -1.1 -0.7 -2 -1.5 -2 -1.1 0 -1.5 -1.1 -1.5 -3.7 l0.1 -3.8 3 3.5 c6.3 7.3 12.9 22.1 14.4 32.3 0.7 4.5 0.2 5.5 -2 3.9z"/>
  <path d="M79 32.1 c0 -1.7 21.8 -14.1 31.8 -18.1 3 -1.2 3.5 -1.1 5.5 0.9 2.2 2 2.7 2 10.8 1 14.9 -1.9 29.6 0.5 43.4 7.1 4.4 2.1 9.6 5.2 11.5 6.9 l3.5 3 -3.7 0.1 c-2.1 0 -3.8 -0.4 -3.8 -1 0 -0.5 -0.7 -1 -1.5 -1 -0.8 0 -1.5 -0.3 -1.5 -0.7 0 -0.5 -2.1 -1.6 -4.6 -2.7 -2.4 -1 -5 -2.4 -5.7 -3 -2 -1.9 -20 -5.6 -27.5 -5.6 -12.7 0 -32.5 5.1 -45.4 11.6 -4.7 2.4 -12.8 3.3 -12.8 1.5z"/>
 </g>
 <g fill="#6739d4">
  <path d="M49.8 189.4 c-14.1 -3.4 -25.3 -12.2 -31.2 -24.7 -4.4 -9.3 -5.6 -15.4 -5.6 -28.7 0 -6.7 -0.4 -11 -1 -11 -0.5 0 -1 -1.6 -1 -3.5 0 -3.4 0.1 -3.5 3.6 -3.5 l3.7 0 -0.5 4.5 -0.6 4.5 38.9 0 c21.4 0 38.9 0.2 38.9 0.4 0 0.2 -2.1 3.9 -4.6 8.1 -8.6 14.7 -14.4 31.9 -16 47.5 l-0.6 6.8 -3.7 0.6 c-5.7 0.9 -14.1 0.5 -20.3 -1z"/>
  <path d="M231.5 157.4 l-3 -2.6 3.3 2.2 c1.7 1.2 3.2 2.3 3.2 2.6 0 0.7 -0.4 0.5 -3.5 -2.2z"/>
  <path d="M210.3 142.4 l-4.8 -4.6 4.5 3.7 c6 5.1 6.5 5.5 5.8 5.5 -0.3 0 -2.8 -2.1 -5.5 -4.6z"/>
  <path d="M204.3 130.5 c0 -2.7 0.2 -3.8 0.4 -2.2 0.2 1.5 0.2 3.7 0 5 -0.2 1.2 -0.4 0 -0.4 -2.8z"/>
  <path d="M68 40.3 c0.1 -1.6 12.6 -10 15.8 -10.6 2.8 -0.6 3.2 -0.4 3.2 1.6 -0.1 1.7 -1.7 3.1 -6.7 6 -5.9 3.3 -12.4 4.9 -12.3 3z"/>
  <path d="M90.2 27.8 c0.3 -0.7 1.9 -1.8 3.6 -2.5 3.1 -1.3 3.2 -1.2 3.2 1.2 0 2.2 -0.4 2.5 -3.6 2.5 -2.3 0 -3.4 -0.4 -3.2 -1.2z"/>
 </g>
 <g fill="#86e20c">
  <path d="M202.5 241 c-17.6 -14.3 -32.1 -26.4 -32.3 -26.9 -0.2 -0.5 2.7 -3.5 6.3 -6.6 5.6 -5 7.2 -5.9 11.4 -6.3 3.1 -0.3 5.8 0.1 7.7 1.1 5.6 2.9 50 42.7 51.6 46.3 1.7 3.7 0.2 7 -6 12.9 -3.1 3 -5.9 5.5 -6.2 5.5 -0.3 0 -14.9 -11.7 -32.5 -26z"/>
 </g>
 <g fill="#dd4747">
  <path d="M54.4 189.9 c-0.3 -0.6 -1.5 -0.9 -2.5 -0.6 -1 0.3 -2.2 0.1 -2.5 -0.5 -0.3 -0.5 -1.2 -0.7 -2 -0.4 -0.7 0.3 -1.6 0.1 -1.9 -0.4 -0.4 -0.6 2.6 -1 7.4 -1 6.2 0 8.1 0.3 8.1 1.4 0 0.7 -1 1.6 -2.2 2 -3.2 0.8 -3.6 0.8 -4.4 -0.5z"/>
  <path d="M64.8 190.3 c-1 -0.2 -1.8 -1.1 -1.8 -1.9 0 -1 1.3 -1.4 4.5 -1.4 4.7 0 5.8 1.2 2.6 3 -2 1 -2.5 1.1 -5.3 0.3z"/>
  <path d="M13.4 127.5 c-0.4 -1.6 -1.3 -2.5 -2.5 -2.5 -2.4 0 -2.4 0.3 0.5 -7.4 4.8 -12.8 17.7 -36.6 19.9 -36.6 1.8 0 0.4 6.5 -2.7 12.2 -4 7.2 -10.3 25.3 -11.2 32.2 -0.7 5.1 -2.9 6.3 -4 2.1z"/>
  <path d="M164 111.1 c0 -3.1 4.6 -13.4 6.7 -15.1 4.4 -3.4 7.3 -2.5 22.5 7.3 l8.1 5.2 -13.4 1.2 c-7.4 0.6 -15.8 1.4 -18.6 1.7 -2.9 0.2 -5.3 0.1 -5.3 -0.3z"/>
 </g>
 <g fill="#5f35c4">
  <path d="M49.5 188.5 c-4.8 -1.2 -4.3 -1.3 9.8 -1.4 13.5 -0.1 18.1 0.7 12.5 2.3 -3.8 1 -17 0.5 -22.3 -0.9z"/>
  <path d="M14.3 124.2 c0.4 -3.2 1.7 -9.2 3 -13.3 l2.3 -7.4 48.3 -0.3 48.4 -0.2 -6.4 6.8 c-3.5 3.7 -8.6 9.8 -11.3 13.5 l-5 6.7 -39.9 0 -40 0 0.6 -5.8z"/>
  <path d="M206.1 78.1 c-0.7 -0.5 -1.6 -2.9 -1.8 -5.5 -0.5 -3.7 -0.3 -4.6 1 -4.6 1 0 1.9 1.6 2.6 5 1.5 6.8 1.3 7.1 -1.8 5.1z"/>
  <path d="M200 58.4 c0 -4.4 1.8 -4.2 3.7 0.4 1.3 3.1 1.2 3.2 -1.2 3.2 -2.2 0 -2.5 -0.4 -2.5 -3.6z"/>
  <path d="M195 50.6 c0 -0.8 -0.5 -1.6 -1.1 -1.8 -0.6 -0.2 -0.9 -1.9 -0.7 -3.8 l0.3 -3.5 3.3 4.4 c3.9 5.3 4 6.1 0.7 6.1 -1.5 0 -2.5 -0.6 -2.5 -1.4z"/>
  <path d="M58 49.4 c0 -0.4 2.1 -2.6 4.8 -5 7.3 -6.8 26.1 -17.5 38.5 -22 3.6 -1.3 3.7 -1.2 3.7 0.9 0 1.7 -0.9 2.6 -3.3 3.5 -1.8 0.7 -4.1 1.2 -5 1.2 -0.9 0 -1.7 0.4 -1.7 0.8 0 1.3 -6.8 4.2 -10 4.2 -2.3 0 -3 0.4 -3 2 0 1.1 -0.6 2 -1.4 2 -0.8 0 -1.6 0.3 -1.8 0.8 -0.6 1.3 -10.8 8.2 -12.2 8.2 -0.7 0 -1.6 0.9 -1.9 2 -0.4 1.5 -1.4 2 -3.6 2 -1.7 0 -3.1 -0.3 -3.1 -0.6z"/>
  <path d="M179 30.9 l0 -3 3 2.1 c4.4 3.1 4.5 4 0.6 4 -3.3 0 -3.6 -0.2 -3.6 -3.1z"/>
  <path d="M159.8 23.3 c-2.2 -0.6 -2.4 -4.3 -0.3 -4.3 2.5 0 8.5 2.8 8.5 3.9 0 1.1 -4.9 1.3 -8.2 0.4z"/>
  <path d="M107 21.6 c0 -1.4 7 -3.4 17.8 -5.1 3.7 -0.6 4.2 -0.4 4.2 1.2 0 1.5 -1.6 2.1 -9.3 3.6 -11.1 2.1 -12.7 2.1 -12.7 0.3z"/>
  <path d="M144 18 c0 -2.1 1.6 -2.5 5.8 -1.4 3.9 1.1 2.7 3.4 -1.8 3.4 -3.3 0 -4 -0.3 -4 -2z"/>
 </g>
 <g fill="#552fb0">
  <path d="M19.5 103.8 c1.8 -6.4 10.8 -22.4 17.4 -31.2 22.2 -29.5 50.1 -48.2 81.3 -54.7 13.2 -2.7 30.5 -2.2 41.3 1.1 25.1 7.8 42.6 27 48 52.8 0.7 3.7 1.2 6.8 1.1 7 -0.2 0.1 -2.3 -0.7 -4.7 -1.7 -22.6 -10 -57.1 -0.4 -84.6 23.5 l-6.1 5.4 -47.2 0 -47.1 0 0.6 -2.2z"/>
 </g>
</svg>