<?xml version="1.0" encoding="utf-8" ?>
<svg baseProfile="full" height="184px" version="1.1" viewBox="0 0 238 184" width="238px" xmlns="http://www.w3.org/2000/svg" xmlns:ev="http://www.w3.org/2001/xml-events" xmlns:xlink="http://www.w3.org/1999/xlink"><defs /><path d="M 124,2 L 123,3 L 118,3 L 117,4 L 116,4 L 115,5 L 113,5 L 111,7 L 110,7 L 108,9 L 107,9 L 103,13 L 102,13 L 100,15 L 100,16 L 99,17 L 98,17 L 96,19 L 95,19 L 94,18 L 93,18 L 92,17 L 91,17 L 90,16 L 89,16 L 88,15 L 86,15 L 85,14 L 81,14 L 80,13 L 75,13 L 74,14 L 70,14 L 69,15 L 67,15 L 66,16 L 65,16 L 64,17 L 63,17 L 62,18 L 61,18 L 60,19 L 59,19 L 54,24 L 54,25 L 49,30 L 49,31 L 48,32 L 48,34 L 47,35 L 47,37 L 45,39 L 40,39 L 39,40 L 38,40 L 37,41 L 34,41 L 33,42 L 32,42 L 31,43 L 29,43 L 28,44 L 27,44 L 26,45 L 25,45 L 17,53 L 17,54 L 16,55 L 16,56 L 14,58 L 14,59 L 12,61 L 12,63 L 11,64 L 11,65 L 10,66 L 10,68 L 9,69 L 9,72 L 8,73 L 8,80 L 7,81 L 7,82 L 8,83 L 8,89 L 9,90 L 9,92 L 10,93 L 10,95 L 9,96 L 9,97 L 8,98 L 8,100 L 7,101 L 7,103 L 6,104 L 6,107 L 5,108 L 5,119 L 6,120 L 6,124 L 7,125 L 7,126 L 8,127 L 8,129 L 10,131 L 10,132 L 18,140 L 18,141 L 19,142 L 19,149 L 20,150 L 20,151 L 21,152 L 21,153 L 22,154 L 22,155 L 23,156 L 23,157 L 32,166 L 33,166 L 34,167 L 35,167 L 36,168 L 39,168 L 40,169 L 48,169 L 49,168 L 52,168 L 53,167 L 54,167 L 55,166 L 57,166 L 58,165 L 59,165 L 61,167 L 61,168 L 63,170 L 63,171 L 64,172 L 65,172 L 66,173 L 67,173 L 68,174 L 69,174 L 70,175 L 71,175 L 72,176 L 85,176 L 86,175 L 87,175 L 88,174 L 90,174 L 92,172 L 94,172 L 96,170 L 97,170 L 98,171 L 98,172 L 100,174 L 101,174 L 102,175 L 103,175 L 106,178 L 107,178 L 108,179 L 110,179 L 111,180 L 116,180 L 117,181 L 119,181 L 120,180 L 125,180 L 126,179 L 127,179 L 128,178 L 129,178 L 130,177 L 131,177 L 132,176 L 133,176 L 135,174 L 136,174 L 138,172 L 141,172 L 142,173 L 143,173 L 146,176 L 148,176 L 149,177 L 150,177 L 151,178 L 156,178 L 157,179 L 167,179 L 168,178 L 171,178 L 172,177 L 173,177 L 174,176 L 175,176 L 176,175 L 177,175 L 178,174 L 179,174 L 180,173 L 181,173 L 182,172 L 183,172 L 189,166 L 189,165 L 193,161 L 193,159 L 195,157 L 195,155 L 196,154 L 196,153 L 197,152 L 197,149 L 198,148 L 198,147 L 199,146 L 199,144 L 200,143 L 201,144 L 202,143 L 206,143 L 207,142 L 208,142 L 209,141 L 210,141 L 211,140 L 212,140 L 214,138 L 215,138 L 215,137 L 216,136 L 217,136 L 218,135 L 218,134 L 220,132 L 220,131 L 221,130 L 221,129 L 222,128 L 222,127 L 223,126 L 223,119 L 224,118 L 224,111 L 223,110 L 223,106 L 222,105 L 222,104 L 221,103 L 221,102 L 220,101 L 220,98 L 222,96 L 222,95 L 224,93 L 224,92 L 225,91 L 225,88 L 227,86 L 227,82 L 228,81 L 228,76 L 227,75 L 227,70 L 226,69 L 226,68 L 225,67 L 225,66 L 224,65 L 224,64 L 223,63 L 223,62 L 222,61 L 222,60 L 219,57 L 218,57 L 217,56 L 216,56 L 214,54 L 213,54 L 212,53 L 209,53 L 208,52 L 208,51 L 207,50 L 207,49 L 206,48 L 206,46 L 205,45 L 205,44 L 203,42 L 203,41 L 202,40 L 202,39 L 194,31 L 193,31 L 191,29 L 190,29 L 188,27 L 186,27 L 185,26 L 184,26 L 183,25 L 179,25 L 178,24 L 177,24 L 176,23 L 165,23 L 164,24 L 163,24 L 162,25 L 160,25 L 159,24 L 159,23 L 157,21 L 157,19 L 155,17 L 155,16 L 148,9 L 147,9 L 145,7 L 144,7 L 143,6 L 142,6 L 140,4 L 137,4 L 136,3 L 133,3 L 132,2 Z" fill="none" stroke="black" stroke-width="2" /><path d="M 48,0 L 49,1 L 50,0 L 52,0 L 53,1 L 54,0 L 55,0 Z" fill="none" stroke="black" stroke-width="2" /></svg>