<?xml version="1.0" encoding="UTF-8"?>
<!DOCTYPE svg PUBLIC "-//W3C//DTD SVG 1.1//EN" "http://www.w3.org/Graphics/SVG/1.1/DTD/svg11.dtd">
<svg xmlns="http://www.w3.org/2000/svg" version="1.1" width="924px" height="520px" style="shape-rendering:geometricPrecision; text-rendering:geometricPrecision; image-rendering:optimizeQuality; fill-rule:evenodd; clip-rule:evenodd" xmlns:xlink="http://www.w3.org/1999/xlink">
<g><path style="opacity:1" fill="#f18e72" d="M 486.5,132.5 C 486.833,132.5 487.167,132.5 487.5,132.5C 487.611,133.117 487.944,133.617 488.5,134C 493.648,135.365 498.648,136.865 503.5,138.5C 502.56,140.612 501.394,142.612 500,144.5C 499.667,143.833 499.333,143.167 499,142.5C 497.893,145.492 496.226,146.159 494,144.5C 492.46,148.574 491.127,148.907 490,145.5C 489.667,146.5 489.333,147.5 489,148.5C 488.086,147.346 487.253,147.513 486.5,149C 489.193,152.285 488.526,153.618 484.5,153C 484.949,155.229 484.949,156.896 484.5,158C 483.896,160.468 482.562,162.468 480.5,164C 481.253,165.487 482.086,165.654 483,164.5C 483.707,166.081 484.54,167.581 485.5,169C 485.056,170.533 484.723,172.033 484.5,173.5C 486.58,175.993 488.414,178.659 490,181.5C 490.974,179.122 491.641,179.456 492,182.5C 492.333,181.833 492.667,181.167 493,180.5C 493.667,181.833 494.333,183.167 495,184.5C 495.333,183.833 495.667,183.167 496,182.5C 496.508,184.904 497.675,185.571 499.5,184.5C 501.132,185.297 502.632,186.297 504,187.5C 505.653,187.18 506.653,186.18 507,184.5C 507.333,185.167 507.667,185.833 508,186.5C 509,185.5 510,184.5 511,183.5C 511.974,185.878 512.641,185.544 513,182.5C 513.333,183.167 513.667,183.833 514,184.5C 514.667,183.167 515.333,181.833 516,180.5C 516.667,183.167 517.333,183.167 518,180.5C 518.333,180.833 518.667,181.167 519,181.5C 519.667,180.167 520.333,178.833 521,177.5C 521.914,178.654 522.747,178.487 523.5,177C 522.328,175.132 522.495,173.298 524,171.5C 524.914,172.654 525.747,172.487 526.5,171C 524.606,169.899 523.939,168.566 524.5,167C 525.253,165.513 526.086,165.346 527,166.5C 527.374,165.584 527.874,164.75 528.5,164C 526.5,162.333 524.5,160.667 522.5,159C 523.428,158.612 524.095,157.945 524.5,157C 522.922,155.028 522.089,152.862 522,150.5C 522.816,151.823 523.983,152.489 525.5,152.5C 536.019,163.905 539.686,177.238 536.5,192.5C 536.289,187.672 536.289,183.005 536.5,178.5C 536.444,177.263 535.944,176.263 535,175.5C 533.873,180.061 532.207,184.061 530,187.5C 529.667,187.167 529.333,186.833 529,186.5C 528.047,188.455 526.713,190.122 525,191.5C 524.667,191.167 524.333,190.833 524,190.5C 522.316,192.701 520.316,193.367 518,192.5C 516.667,193.833 515.333,195.167 514,196.5C 513.026,194.122 512.359,194.456 512,197.5C 511.577,196.044 510.744,195.544 509.5,196C 510.654,196.914 510.487,197.747 509,198.5C 507.956,197.377 507.29,196.044 507,194.5C 505.295,196.977 503.295,198.311 501,198.5C 499.667,197.833 498.667,196.833 498,195.5C 497.333,198.167 496.667,198.167 496,195.5C 495.333,198.167 494.667,198.167 494,195.5C 493.667,196.5 493.333,197.5 493,198.5C 492.333,197.167 491.667,195.833 491,194.5C 490.667,195.167 490.333,195.833 490,196.5C 489.333,195.167 488.667,193.833 488,192.5C 487.667,193.167 487.333,193.833 487,194.5C 484.667,191.5 482.333,188.5 480,185.5C 479.667,185.833 479.333,186.167 479,186.5C 477.778,182.29 476.112,178.29 474,174.5C 472.534,178.246 471.034,182.246 469.5,186.5C 469.5,184.833 469.5,183.167 469.5,181.5C 473.368,172.329 475.702,162.662 476.5,152.5C 479.289,145.589 482.622,138.922 486.5,132.5 Z"/></g>
<g><path style="opacity:1" fill="#ea4834" d="M 433.5,134.5 C 433.902,137.051 434.235,139.717 434.5,142.5C 432.108,145.722 430.775,149.055 430.5,152.5C 431.39,153.711 431.39,155.045 430.5,156.5C 430.818,157.647 431.484,158.481 432.5,159C 431.09,159.368 430.09,160.201 429.5,161.5C 429.623,163.378 429.623,165.211 429.5,167C 430.167,167.667 430.833,168.333 431.5,169C 430.167,170 430.167,171 431.5,172C 429.446,173.682 429.779,175.349 432.5,177C 431.483,178.049 431.316,179.216 432,180.5C 432.914,179.346 433.747,179.513 434.5,181C 432.114,184.828 433.114,188.495 437.5,192C 437.335,193.117 437.002,194.284 436.5,195.5C 437.529,195.296 438.529,195.796 439.5,197C 439.5,198.333 439.5,199.667 439.5,201C 442.266,204.522 445.266,207.855 448.5,211C 448.167,211.333 447.833,211.667 447.5,212C 449.858,214.029 452.192,216.029 454.5,218C 453.833,218.333 453.167,218.667 452.5,219C 454.916,223.416 455.916,228.25 455.5,233.5C 452.251,232.149 449.084,229.149 446,224.5C 445.667,225.167 445.333,225.833 445,226.5C 443.423,223.249 441.423,220.249 439,217.5C 438.667,218.167 438.333,218.833 438,219.5C 437.667,218.167 437.333,216.833 437,215.5C 436.667,216.167 436.333,216.833 436,217.5C 434.325,215.409 433.825,213.242 434.5,211C 432.877,208.92 431.377,206.754 430,204.5C 429.333,207.167 428.667,207.167 428,204.5C 427.358,202.238 426.525,200.071 425.5,198C 426.458,196.853 426.125,195.853 424.5,195C 424.833,194.667 425.167,194.333 425.5,194C 422.461,191.551 421.461,188.551 422.5,185C 419.317,182.521 418.984,179.854 421.5,177C 420.5,174.667 419.5,172.333 418.5,170C 420.973,167.92 420.973,165.754 418.5,163.5C 418.977,162.522 419.643,161.689 420.5,161C 419.692,160.692 419.025,160.192 418.5,159.5C 419.833,158.167 419.833,156.833 418.5,155.5C 420.138,154.295 420.471,152.962 419.5,151.5C 419.977,150.522 420.643,149.689 421.5,149C 419.849,144.756 421.183,141.089 425.5,138C 422.553,138.152 419.553,138.319 416.5,138.5C 421.851,136.278 427.518,134.945 433.5,134.5 Z"/></g>
<g><path style="opacity:0.686" fill="#f2b3b2" d="M 446.5,153.5 C 445.833,152.833 445.167,152.167 444.5,151.5C 443.275,144.984 440.608,139.151 436.5,134C 435.251,133.26 434.251,133.427 433.5,134.5C 427.518,134.945 421.851,136.278 416.5,138.5C 414.145,139.659 411.812,140.659 409.5,141.5C 406.545,143.122 403.878,145.122 401.5,147.5C 397.806,150.527 394.473,153.86 391.5,157.5C 397.761,147.019 406.761,139.853 418.5,136C 425.09,133.842 431.757,133.008 438.5,133.5C 442.542,139.629 445.209,146.295 446.5,153.5 Z"/></g>
<g><path style="opacity:1" fill="#eb5941" d="M 433.5,134.5 C 434.251,133.427 435.251,133.26 436.5,134C 440.608,139.151 443.275,144.984 444.5,151.5C 443.739,154.246 442.405,155.913 440.5,156.5C 442.802,157.999 442.469,159.332 439.5,160.5C 440.247,160.736 441.08,161.07 442,161.5C 442.805,159.099 443.638,159.266 444.5,162C 443.315,164.057 442.315,166.057 441.5,168C 443.657,169.085 443.824,170.251 442,171.5C 441.282,170.549 440.449,170.383 439.5,171C 444.214,174.081 445.547,177.915 443.5,182.5C 444.687,186.465 447.021,190.131 450.5,193.5C 450.047,196.329 451.047,198.829 453.5,201C 452.949,202.398 452.616,203.732 452.5,205C 453.044,205.717 453.711,206.217 454.5,206.5C 454.549,210.078 455.215,213.411 456.5,216.5C 456.5,217.167 456.5,217.833 456.5,218.5C 456.44,236.624 456.44,254.958 456.5,273.5C 456.5,275.167 456.5,276.833 456.5,278.5C 456.167,278.5 455.833,278.5 455.5,278.5C 455.5,269.833 455.5,261.167 455.5,252.5C 455.5,249.833 455.5,247.167 455.5,244.5C 455.5,240.833 455.5,237.167 455.5,233.5C 455.916,228.25 454.916,223.416 452.5,219C 453.167,218.667 453.833,218.333 454.5,218C 452.192,216.029 449.858,214.029 447.5,212C 447.833,211.667 448.167,211.333 448.5,211C 445.266,207.855 442.266,204.522 439.5,201C 439.5,199.667 439.5,198.333 439.5,197C 438.529,195.796 437.529,195.296 436.5,195.5C 437.002,194.284 437.335,193.117 437.5,192C 433.114,188.495 432.114,184.828 434.5,181C 433.747,179.513 432.914,179.346 432,180.5C 431.316,179.216 431.483,178.049 432.5,177C 429.779,175.349 429.446,173.682 431.5,172C 430.167,171 430.167,170 431.5,169C 430.833,168.333 430.167,167.667 429.5,167C 429.623,165.211 429.623,163.378 429.5,161.5C 430.09,160.201 431.09,159.368 432.5,159C 431.484,158.481 430.818,157.647 430.5,156.5C 431.39,155.045 431.39,153.711 430.5,152.5C 430.775,149.055 432.108,145.722 434.5,142.5C 434.235,139.717 433.902,137.051 433.5,134.5 Z"/></g>
<g><path style="opacity:1" fill="#e93829" d="M 455.5,233.5 C 455.5,237.167 455.5,240.833 455.5,244.5C 452.958,242.795 450.292,241.295 447.5,240C 449.901,239.195 449.734,238.362 447,237.5C 446.667,237.833 446.333,238.167 446,238.5C 444.457,236.622 442.624,235.122 440.5,234C 440.833,233.667 441.167,233.333 441.5,233C 440.333,232.5 439.5,231.667 439,230.5C 438.667,230.833 438.333,231.167 438,231.5C 436.272,228.193 433.772,225.693 430.5,224C 431.167,223.667 431.833,223.333 432.5,223C 429.486,220.981 426.82,218.648 424.5,216C 427.167,215.333 427.167,214.667 424.5,214C 424.833,213.667 425.167,213.333 425.5,213C 424.584,212.626 423.75,212.126 423,211.5C 421.554,208.083 419.72,204.916 417.5,202C 417.5,200.667 417.5,199.333 417.5,198C 415.714,194.673 414.047,191.339 412.5,188C 413.833,187.333 413.833,186.667 412.5,186C 413.167,185.667 413.833,185.333 414.5,185C 413.167,184 411.833,183 410.5,182C 411.5,181 412.5,180 413.5,179C 410.751,177.654 410.417,176.32 412.5,175C 410.519,174.395 410.185,173.395 411.5,172C 410.833,170.667 410.167,169.333 409.5,168C 410.833,167.333 410.833,166.667 409.5,166C 412.167,165.333 412.167,164.667 409.5,164C 413.185,163.086 412.852,162.419 408.5,162C 409.659,160.173 410.992,158.507 412.5,157C 411.5,156.667 410.5,156.333 409.5,156C 411.848,153.646 412.514,150.979 411.5,148C 413.441,146.184 414.108,144.184 413.5,142C 412.207,141.51 410.873,141.343 409.5,141.5C 411.812,140.659 414.145,139.659 416.5,138.5C 419.553,138.319 422.553,138.152 425.5,138C 421.183,141.089 419.849,144.756 421.5,149C 420.643,149.689 419.977,150.522 419.5,151.5C 420.471,152.962 420.138,154.295 418.5,155.5C 419.833,156.833 419.833,158.167 418.5,159.5C 419.025,160.192 419.692,160.692 420.5,161C 419.643,161.689 418.977,162.522 418.5,163.5C 420.973,165.754 420.973,167.92 418.5,170C 419.5,172.333 420.5,174.667 421.5,177C 418.984,179.854 419.317,182.521 422.5,185C 421.461,188.551 422.461,191.551 425.5,194C 425.167,194.333 424.833,194.667 424.5,195C 426.125,195.853 426.458,196.853 425.5,198C 426.525,200.071 427.358,202.238 428,204.5C 428.667,207.167 429.333,207.167 430,204.5C 431.377,206.754 432.877,208.92 434.5,211C 433.825,213.242 434.325,215.409 436,217.5C 436.333,216.833 436.667,216.167 437,215.5C 437.333,216.833 437.667,218.167 438,219.5C 438.333,218.833 438.667,218.167 439,217.5C 441.423,220.249 443.423,223.249 445,226.5C 445.333,225.833 445.667,225.167 446,224.5C 449.084,229.149 452.251,232.149 455.5,233.5 Z"/></g>
<g><path style="opacity:1" fill="#f29a80" d="M 503.5,138.5 C 513.177,139.662 520.51,144.329 525.5,152.5C 523.983,152.489 522.816,151.823 522,150.5C 522.089,152.862 522.922,155.028 524.5,157C 524.095,157.945 523.428,158.612 522.5,159C 524.5,160.667 526.5,162.333 528.5,164C 527.874,164.75 527.374,165.584 527,166.5C 526.086,165.346 525.253,165.513 524.5,167C 523.939,168.566 524.606,169.899 526.5,171C 525.747,172.487 524.914,172.654 524,171.5C 522.495,173.298 522.328,175.132 523.5,177C 522.747,178.487 521.914,178.654 521,177.5C 520.333,178.833 519.667,180.167 519,181.5C 518.667,181.167 518.333,180.833 518,180.5C 517.333,183.167 516.667,183.167 516,180.5C 515.333,181.833 514.667,183.167 514,184.5C 513.667,183.833 513.333,183.167 513,182.5C 512.641,185.544 511.974,185.878 511,183.5C 510,184.5 509,185.5 508,186.5C 507.667,185.833 507.333,185.167 507,184.5C 506.653,186.18 505.653,187.18 504,187.5C 502.632,186.297 501.132,185.297 499.5,184.5C 497.675,185.571 496.508,184.904 496,182.5C 495.667,183.167 495.333,183.833 495,184.5C 494.333,183.167 493.667,181.833 493,180.5C 492.667,181.167 492.333,181.833 492,182.5C 491.641,179.456 490.974,179.122 490,181.5C 488.414,178.659 486.58,175.993 484.5,173.5C 484.723,172.033 485.056,170.533 485.5,169C 484.54,167.581 483.707,166.081 483,164.5C 482.086,165.654 481.253,165.487 480.5,164C 482.562,162.468 483.896,160.468 484.5,158C 484.949,156.896 484.949,155.229 484.5,153C 488.526,153.618 489.193,152.285 486.5,149C 487.253,147.513 488.086,147.346 489,148.5C 489.333,147.5 489.667,146.5 490,145.5C 491.127,148.907 492.46,148.574 494,144.5C 496.226,146.159 497.893,145.492 499,142.5C 499.333,143.167 499.667,143.833 500,144.5C 501.394,142.612 502.56,140.612 503.5,138.5 Z"/></g>
<g><path style="opacity:0.847" fill="#f2bebd" d="M 486.5,132.5 C 482.622,138.922 479.289,145.589 476.5,152.5C 476.389,151.883 476.056,151.383 475.5,151C 478.295,145.242 480.962,139.408 483.5,133.5C 484.325,132.614 485.325,132.281 486.5,132.5 Z"/></g>
<g><path style="opacity:1" fill="#e82924" d="M 409.5,141.5 C 410.873,141.343 412.207,141.51 413.5,142C 414.108,144.184 413.441,146.184 411.5,148C 412.514,150.979 411.848,153.646 409.5,156C 410.5,156.333 411.5,156.667 412.5,157C 410.992,158.507 409.659,160.173 408.5,162C 412.852,162.419 413.185,163.086 409.5,164C 412.167,164.667 412.167,165.333 409.5,166C 410.833,166.667 410.833,167.333 409.5,168C 410.167,169.333 410.833,170.667 411.5,172C 410.185,173.395 410.519,174.395 412.5,175C 410.417,176.32 410.751,177.654 413.5,179C 412.5,180 411.5,181 410.5,182C 411.833,183 413.167,184 414.5,185C 413.833,185.333 413.167,185.667 412.5,186C 413.833,186.667 413.833,187.333 412.5,188C 414.047,191.339 415.714,194.673 417.5,198C 417.5,199.333 417.5,200.667 417.5,202C 419.72,204.916 421.554,208.083 423,211.5C 423.75,212.126 424.584,212.626 425.5,213C 425.167,213.333 424.833,213.667 424.5,214C 427.167,214.667 427.167,215.333 424.5,216C 426.82,218.648 429.486,220.981 432.5,223C 431.833,223.333 431.167,223.667 430.5,224C 433.772,225.693 436.272,228.193 438,231.5C 438.333,231.167 438.667,230.833 439,230.5C 439.5,231.667 440.333,232.5 441.5,233C 441.167,233.333 440.833,233.667 440.5,234C 442.624,235.122 444.457,236.622 446,238.5C 446.333,238.167 446.667,237.833 447,237.5C 449.734,238.362 449.901,239.195 447.5,240C 450.292,241.295 452.958,242.795 455.5,244.5C 455.5,247.167 455.5,249.833 455.5,252.5C 443.292,245.92 432.958,237.253 424.5,226.5C 425.46,225.188 425.294,223.854 424,222.5C 423.683,224.301 423.016,224.634 422,223.5C 417.183,215.847 413.017,207.847 409.5,199.5C 410.902,198.158 410.569,197.324 408.5,197C 408.112,195.475 408.112,193.808 408.5,192C 406.875,191.147 406.542,190.147 407.5,189C 405.883,186.63 404.883,183.964 404.5,181C 405.898,179.351 405.564,178.018 403.5,177C 404.725,174.34 404.392,171.673 402.5,169C 404.441,167.184 405.108,165.184 404.5,163C 402.394,160.888 402.727,158.888 405.5,157C 404.572,156.612 403.905,155.945 403.5,155C 404.517,152.213 404.684,149.38 404,146.5C 403.329,147.252 402.496,147.586 401.5,147.5C 403.878,145.122 406.545,143.122 409.5,141.5 Z"/></g>
<g><path style="opacity:0.212" fill="#f2c1c0" d="M 487.5,132.5 C 527.116,138.351 543.616,161.351 537,201.5C 536.295,204.476 535.129,207.142 533.5,209.5C 534.372,203.808 535.372,198.141 536.5,192.5C 539.686,177.238 536.019,163.905 525.5,152.5C 520.51,144.329 513.177,139.662 503.5,138.5C 498.648,136.865 493.648,135.365 488.5,134C 487.944,133.617 487.611,133.117 487.5,132.5 Z"/></g>
<g><path style="opacity:1" fill="#e61e23" d="M 455.5,252.5 C 455.5,261.167 455.5,269.833 455.5,278.5C 454.8,288.161 454.134,297.828 453.5,307.5C 452.627,311.768 452.294,316.102 452.5,320.5C 450.336,320.279 448.67,319.279 447.5,317.5C 447.573,315.973 446.906,314.973 445.5,314.5C 445.649,313.448 445.483,312.448 445,311.5C 443.383,309.237 441.55,307.237 439.5,305.5C 439.573,303.973 438.906,302.973 437.5,302.5C 433.996,294.666 429.662,287.332 424.5,280.5C 424.573,278.973 423.906,277.973 422.5,277.5C 420.327,273.148 417.66,269.148 414.5,265.5C 413.662,265.158 413.328,264.492 413.5,263.5C 413.445,260.386 412.112,258.052 409.5,256.5C 409.5,256.167 409.5,255.833 409.5,255.5C 405.778,245.65 401.111,236.316 395.5,227.5C 394.404,221.747 392.404,216.414 389.5,211.5C 388.289,206.536 387.289,201.536 386.5,196.5C 386.784,194.585 386.451,192.919 385.5,191.5C 385.821,185.974 385.488,180.64 384.5,175.5C 384.5,175.167 384.5,174.833 384.5,174.5C 385.117,174.389 385.617,174.056 386,173.5C 386.983,167.869 388.816,162.536 391.5,157.5C 394.473,153.86 397.806,150.527 401.5,147.5C 402.496,147.586 403.329,147.252 404,146.5C 404.684,149.38 404.517,152.213 403.5,155C 403.905,155.945 404.572,156.612 405.5,157C 402.727,158.888 402.394,160.888 404.5,163C 405.108,165.184 404.441,167.184 402.5,169C 404.392,171.673 404.725,174.34 403.5,177C 405.564,178.018 405.898,179.351 404.5,181C 404.883,183.964 405.883,186.63 407.5,189C 406.542,190.147 406.875,191.147 408.5,192C 408.112,193.808 408.112,195.475 408.5,197C 410.569,197.324 410.902,198.158 409.5,199.5C 413.017,207.847 417.183,215.847 422,223.5C 423.016,224.634 423.683,224.301 424,222.5C 425.294,223.854 425.46,225.188 424.5,226.5C 432.958,237.253 443.292,245.92 455.5,252.5 Z"/></g>
<g><path style="opacity:1" fill="#ed6c51" d="M 444.5,151.5 C 445.167,152.167 445.833,152.833 446.5,153.5C 448.61,163.884 450.777,174.218 453,184.5C 453.548,191.835 454.048,199.169 454.5,206.5C 453.711,206.217 453.044,205.717 452.5,205C 452.616,203.732 452.949,202.398 453.5,201C 451.047,198.829 450.047,196.329 450.5,193.5C 447.021,190.131 444.687,186.465 443.5,182.5C 445.547,177.915 444.214,174.081 439.5,171C 440.449,170.383 441.282,170.549 442,171.5C 443.824,170.251 443.657,169.085 441.5,168C 442.315,166.057 443.315,164.057 444.5,162C 443.638,159.266 442.805,159.099 442,161.5C 441.08,161.07 440.247,160.736 439.5,160.5C 442.469,159.332 442.802,157.999 440.5,156.5C 442.405,155.913 443.739,154.246 444.5,151.5 Z"/></g>
<g><path style="opacity:0.988" fill="#f3a590" d="M 499.5,153.5 C 500.161,154.718 500.828,156.051 501.5,157.5C 501.749,156.418 501.915,155.085 502,153.5C 503.655,153.802 504.988,155.136 506,157.5C 506.667,156.167 507.333,154.833 508,153.5C 508.667,156.167 509.333,156.167 510,153.5C 511.709,156.418 513.542,159.252 515.5,162C 514.747,163.487 513.914,163.654 513,162.5C 512.175,164.701 512.675,166.534 514.5,168C 513.747,169.487 512.914,169.654 512,168.5C 512.88,171.125 512.213,173.458 510,175.5C 508.956,174.377 508.29,173.044 508,171.5C 507.667,171.833 507.333,172.167 507,172.5C 505.266,171.362 503.432,170.862 501.5,171C 503.993,172.583 503.826,174.083 501,175.5C 498.631,174.073 498.131,172.239 499.5,170C 499,169.5 498.5,169 498,168.5C 497.667,169.833 497.333,171.167 497,172.5C 495.805,169.813 495.638,167.146 496.5,164.5C 492.866,161.848 493.033,159.181 497,156.5C 497.667,157.167 498.333,157.833 499,158.5C 499.494,156.866 499.66,155.199 499.5,153.5 Z"/></g>
<g><path style="opacity:0.075" fill="#f3c5c5" d="M 391.5,157.5 C 388.816,162.536 386.983,167.869 386,173.5C 385.617,174.056 385.117,174.389 384.5,174.5C 384.713,167.838 387.046,162.171 391.5,157.5 Z"/></g>
<g><path style="opacity:0.655" fill="#f2bab6" d="M 476.5,152.5 C 475.702,162.662 473.368,172.329 469.5,181.5C 469.196,180.85 468.863,180.183 468.5,179.5C 470.072,173.62 471.738,167.787 473.5,162C 473.167,161.667 472.833,161.333 472.5,161C 473.562,157.953 474.895,155.12 476.5,152.5 Z"/></g>
<g><path style="opacity:0.075" fill="#f3bebb" d="M 384.5,175.5 C 385.488,180.64 385.821,185.974 385.5,191.5C 385.167,191.5 384.833,191.5 384.5,191.5C 383.167,186.167 383.167,180.833 384.5,175.5 Z"/></g>
<g><path style="opacity:0.4" fill="#f3bebe" d="M 349.5,180.5 C 347.983,180.489 346.816,179.823 346,178.5C 345.005,179.066 344.172,179.733 343.5,180.5C 343.167,180.5 342.833,180.5 342.5,180.5C 344.789,175.185 347.123,175.185 349.5,180.5 Z"/></g>
<g><path style="opacity:1" fill="#ef7d61" d="M 536.5,192.5 C 535.372,198.141 534.372,203.808 533.5,209.5C 533.167,209.5 532.833,209.5 532.5,209.5C 532.66,207.801 532.494,206.134 532,204.5C 531.333,205.833 530.667,205.833 530,204.5C 529.667,205.5 529.333,206.5 529,207.5C 528.333,200.833 527.667,200.833 527,207.5C 526.667,206.167 526.333,204.833 526,203.5C 525.667,205.5 525.333,207.5 525,209.5C 524.333,204.167 523.667,204.167 523,209.5C 522.086,205.815 521.419,206.148 521,210.5C 520.333,206.5 519.667,206.5 519,210.5C 518.333,207.833 517.667,207.833 517,210.5C 516.026,208.122 515.359,208.456 515,211.5C 514.333,206.167 513.667,206.167 513,211.5C 512.026,209.122 511.359,209.456 511,212.5C 510.333,209.833 509.667,209.833 509,212.5C 508.085,211.672 507.419,210.672 507,209.5C 506.641,212.544 505.974,212.878 505,210.5C 503.84,212.797 502.84,212.464 502,209.5C 501.027,213.989 499.693,214.322 498,210.5C 497.641,213.544 496.974,213.878 496,211.5C 494.667,214.167 493.333,214.167 492,211.5C 491.667,211.833 491.333,212.167 491,212.5C 487.956,209.006 485.289,206.673 483,205.5C 481.84,207.797 480.84,207.464 480,204.5C 479.333,208.5 478.667,208.5 478,204.5C 477.667,205.167 477.333,205.833 477,206.5C 475.19,202.743 473.19,199.076 471,195.5C 471.122,198.309 470.288,200.975 468.5,203.5C 468.635,197.819 468.968,192.152 469.5,186.5C 471.034,182.246 472.534,178.246 474,174.5C 476.112,178.29 477.778,182.29 479,186.5C 479.333,186.167 479.667,185.833 480,185.5C 482.333,188.5 484.667,191.5 487,194.5C 487.333,193.833 487.667,193.167 488,192.5C 488.667,193.833 489.333,195.167 490,196.5C 490.333,195.833 490.667,195.167 491,194.5C 491.667,195.833 492.333,197.167 493,198.5C 493.333,197.5 493.667,196.5 494,195.5C 494.667,198.167 495.333,198.167 496,195.5C 496.667,198.167 497.333,198.167 498,195.5C 498.667,196.833 499.667,197.833 501,198.5C 503.295,198.311 505.295,196.977 507,194.5C 507.29,196.044 507.956,197.377 509,198.5C 510.487,197.747 510.654,196.914 509.5,196C 510.744,195.544 511.577,196.044 512,197.5C 512.359,194.456 513.026,194.122 514,196.5C 515.333,195.167 516.667,193.833 518,192.5C 520.316,193.367 522.316,192.701 524,190.5C 524.333,190.833 524.667,191.167 525,191.5C 526.713,190.122 528.047,188.455 529,186.5C 529.333,186.833 529.667,187.167 530,187.5C 532.207,184.061 533.873,180.061 535,175.5C 535.944,176.263 536.444,177.263 536.5,178.5C 536.289,183.005 536.289,187.672 536.5,192.5 Z"/></g>
<g><path style="opacity:0.561" fill="#f3c0c0" d="M 583.5,184.5 C 581.973,184.573 580.973,183.906 580.5,182.5C 579.521,180.855 578.188,179.521 576.5,178.5C 574.985,180.082 573.319,181.416 571.5,182.5C 572.794,180.672 573.794,178.672 574.5,176.5C 578.734,177.731 581.734,180.398 583.5,184.5 Z"/></g>
<g><path style="opacity:1" fill="#e41e23" d="M 349.5,180.5 C 349.738,182.404 350.738,183.738 352.5,184.5C 352.427,186.027 353.094,187.027 354.5,187.5C 354.66,189.153 355.326,190.486 356.5,191.5C 357.167,191.833 357.833,192.167 358.5,192.5C 358.738,194.404 359.738,195.738 361.5,196.5C 361.427,198.027 362.094,199.027 363.5,199.5C 363.427,201.027 364.094,202.027 365.5,202.5C 367.4,206.732 370.067,210.399 373.5,213.5C 373.554,215.632 374.554,216.965 376.5,217.5C 376.427,219.027 377.094,220.027 378.5,220.5C 379.338,220.842 379.672,221.508 379.5,222.5C 379.554,224.632 380.554,225.965 382.5,226.5C 382.75,228.674 383.75,230.341 385.5,231.5C 386.069,234.719 387.736,237.052 390.5,238.5C 391.674,239.514 392.34,240.847 392.5,242.5C 396.489,251.148 401.489,259.148 407.5,266.5C 408.338,266.842 408.672,267.508 408.5,268.5C 408.427,270.027 409.094,271.027 410.5,271.5C 410.031,274.393 411.031,276.393 413.5,277.5C 414.577,281.187 416.243,284.52 418.5,287.5C 421.182,292.202 423.849,296.869 426.5,301.5C 426.794,304.754 428.127,307.421 430.5,309.5C 430.53,312.852 431.863,315.518 434.5,317.5C 435.338,317.842 435.672,318.508 435.5,319.5C 436.439,322.803 437.439,326.136 438.5,329.5C 435.996,328.361 433.33,327.694 430.5,327.5C 428.272,324.55 425.272,322.884 421.5,322.5C 420.306,321.728 419.306,320.728 418.5,319.5C 416.819,317.992 414.819,316.992 412.5,316.5C 410.858,314.919 408.858,314.253 406.5,314.5C 405.508,314.672 404.842,314.338 404.5,313.5C 402.948,310.888 400.614,309.555 397.5,309.5C 396.694,308.272 395.694,307.272 394.5,306.5C 392.664,304.412 390.331,303.079 387.5,302.5C 386.609,301.89 385.609,301.557 384.5,301.5C 381.167,299.167 377.833,296.833 374.5,294.5C 374.611,293.883 374.944,293.383 375.5,293C 373.951,291.786 372.785,290.286 372,288.5C 371.667,289.167 371.333,289.833 371,290.5C 368.647,288.14 366.647,285.473 365,282.5C 364.667,283.167 364.333,283.833 364,284.5C 363.39,281.978 362.057,279.978 360,278.5C 359.536,272.825 358.869,272.492 358,277.5C 353.913,267.927 348.579,258.594 342,249.5C 341.097,248.299 339.931,247.465 338.5,247C 340.991,246.374 340.991,245.541 338.5,244.5C 337.689,242.22 337.689,239.72 338.5,237C 337.638,234.266 336.805,234.099 336,236.5C 335.316,235.216 335.483,234.049 336.5,233C 335.925,230.63 334.591,228.297 332.5,226C 332.645,225.228 332.978,224.561 333.5,224C 331.376,218.927 328.709,213.761 325.5,208.5C 325.833,206.5 326.167,204.5 326.5,202.5C 328.669,200.66 330.002,198.326 330.5,195.5C 331.167,195.167 331.833,194.833 332.5,194.5C 334.104,193.713 334.771,192.38 334.5,190.5C 335.906,190.027 336.573,189.027 336.5,187.5C 339.833,186.167 342.167,183.833 343.5,180.5C 344.172,179.733 345.005,179.066 346,178.5C 346.816,179.823 347.983,180.489 349.5,180.5 Z"/></g>
<g><path style="opacity:1" fill="#ec5c42" d="M 580.5,182.5 C 579.504,182.586 578.671,182.252 578,181.5C 577.333,184.167 576.667,184.167 576,181.5C 575.5,182.5 575,183.5 574.5,184.5C 574.723,185.967 575.056,187.467 575.5,189C 574.107,190.171 573.273,191.671 573,193.5C 572.195,191.099 571.362,191.266 570.5,194C 571.119,196.544 570.619,199.044 569,201.5C 568.086,200.346 567.253,200.513 566.5,202C 567.833,203.84 567.666,204.34 566,203.5C 564.716,204.572 564.383,205.905 565,207.5C 564.667,207.167 564.333,206.833 564,206.5C 561.377,208.015 560.377,210.015 561,212.5C 559.853,211.542 558.853,211.875 558,213.5C 557.667,215.167 557.333,216.833 557,218.5C 556.667,217.5 556.333,216.5 556,215.5C 555.667,217.167 555.333,218.833 555,220.5C 554.667,219.5 554.333,218.5 554,217.5C 553.439,219.725 552.439,221.725 551,223.5C 550.667,222.5 550.333,221.5 550,220.5C 549.529,222.246 548.862,223.913 548,225.5C 547.667,224.833 547.333,224.167 547,223.5C 546.667,224.833 546.333,226.167 546,227.5C 545.581,226.328 544.915,225.328 544,224.5C 543.037,227.617 541.204,229.951 538.5,231.5C 539.242,229.02 540.242,226.687 541.5,224.5C 546.889,218.083 552.055,211.416 557,204.5C 558.808,201.562 560.308,198.562 561.5,195.5C 564.261,194.407 565.927,192.407 566.5,189.5C 568.9,187.704 570.567,185.37 571.5,182.5C 573.319,181.416 574.985,180.082 576.5,178.5C 578.188,179.521 579.521,180.855 580.5,182.5 Z"/></g>
<g><path style="opacity:0.671" fill="#f09999" d="M 342.5,180.5 C 342.833,180.5 343.167,180.5 343.5,180.5C 342.167,183.833 339.833,186.167 336.5,187.5C 337.757,184.573 339.757,182.239 342.5,180.5 Z"/></g>
<g><path style="opacity:0.561" fill="#f3c5c5" d="M 349.5,180.5 C 351.262,181.262 352.262,182.596 352.5,184.5C 350.738,183.738 349.738,182.404 349.5,180.5 Z"/></g>
<g><path style="opacity:1" fill="#ea4834" d="M 580.5,182.5 C 580.973,183.906 581.973,184.573 583.5,184.5C 584.806,186.816 586.139,189.15 587.5,191.5C 586.603,192.598 585.77,192.598 585,191.5C 583.495,193.298 583.328,195.132 584.5,197C 583.638,199.734 582.805,199.901 582,197.5C 580.684,202.298 578.517,206.631 575.5,210.5C 576.46,211.812 576.294,213.146 575,214.5C 574.667,213.833 574.333,213.167 574,212.5C 573.138,214.087 572.471,215.754 572,217.5C 569.742,220.831 566.409,224.497 562,228.5C 561.667,228.167 561.333,227.833 561,227.5C 560.641,230.544 559.974,230.878 559,228.5C 558.667,229.833 558.333,231.167 558,232.5C 557.667,231.833 557.333,231.167 557,230.5C 556.333,231.833 555.667,233.167 555,234.5C 554.667,233.833 554.333,233.167 554,232.5C 553.482,235.023 552.148,237.023 550,238.5C 547.601,238.028 545.601,239.028 544,241.5C 542.984,240.366 542.317,240.699 542,242.5C 541.667,241.833 541.333,241.167 541,240.5C 540.333,241.833 539.667,243.167 539,244.5C 538.667,243.833 538.333,243.167 538,242.5C 537.333,243.833 536.333,244.833 535,245.5C 534,245.167 533,244.833 532,244.5C 530.629,246.041 529.129,247.375 527.5,248.5C 528.758,246.313 529.758,243.98 530.5,241.5C 533.147,238.236 535.814,234.903 538.5,231.5C 541.204,229.951 543.037,227.617 544,224.5C 544.915,225.328 545.581,226.328 546,227.5C 546.333,226.167 546.667,224.833 547,223.5C 547.333,224.167 547.667,224.833 548,225.5C 548.862,223.913 549.529,222.246 550,220.5C 550.333,221.5 550.667,222.5 551,223.5C 552.439,221.725 553.439,219.725 554,217.5C 554.333,218.5 554.667,219.5 555,220.5C 555.333,218.833 555.667,217.167 556,215.5C 556.333,216.5 556.667,217.5 557,218.5C 557.333,216.833 557.667,215.167 558,213.5C 558.853,211.875 559.853,211.542 561,212.5C 560.377,210.015 561.377,208.015 564,206.5C 564.333,206.833 564.667,207.167 565,207.5C 564.383,205.905 564.716,204.572 566,203.5C 567.666,204.34 567.833,203.84 566.5,202C 567.253,200.513 568.086,200.346 569,201.5C 570.619,199.044 571.119,196.544 570.5,194C 571.362,191.266 572.195,191.099 573,193.5C 573.273,191.671 574.107,190.171 575.5,189C 575.056,187.467 574.723,185.967 574.5,184.5C 575,183.5 575.5,182.5 576,181.5C 576.667,184.167 577.333,184.167 578,181.5C 578.671,182.252 579.504,182.586 580.5,182.5 Z"/></g>
<g><path style="opacity:0.561" fill="#f3bfbc" d="M 446.5,153.5 C 449.535,162.796 452.202,172.296 454.5,182C 454.167,182.333 453.833,182.667 453.5,183C 455.845,194 456.845,205.166 456.5,216.5C 455.215,213.411 454.549,210.078 454.5,206.5C 454.048,199.169 453.548,191.835 453,184.5C 450.777,174.218 448.61,163.884 446.5,153.5 Z"/></g>
<g><path style="opacity:0.686" fill="#f2bfbf" d="M 583.5,184.5 C 586.645,187.46 589.312,190.793 591.5,194.5C 590.833,194.167 590.167,193.833 589.5,193.5C 589.167,192.5 588.5,191.833 587.5,191.5C 586.139,189.15 584.806,186.816 583.5,184.5 Z"/></g>
<g><path style="opacity:0.4" fill="#f2c1c1" d="M 352.5,184.5 C 353.906,184.973 354.573,185.973 354.5,187.5C 353.094,187.027 352.427,186.027 352.5,184.5 Z"/></g>
<g><path style="opacity:0.561" fill="#f2bfbf" d="M 571.5,182.5 C 570.567,185.37 568.9,187.704 566.5,189.5C 567.433,186.63 569.1,184.296 571.5,182.5 Z"/></g>
<g><path style="opacity:0.4" fill="#f3c3c3" d="M 336.5,187.5 C 336.573,189.027 335.906,190.027 334.5,190.5C 334.427,188.973 335.094,187.973 336.5,187.5 Z"/></g>
<g><path style="opacity:0.953" fill="#ec7a7a" d="M 354.5,187.5 C 355.5,187.833 356.167,188.5 356.5,189.5C 356.5,190.167 356.5,190.833 356.5,191.5C 355.326,190.486 354.66,189.153 354.5,187.5 Z"/></g>
<g><path style="opacity:0.4" fill="#f3c8c7" d="M 356.5,189.5 C 357.906,189.973 358.573,190.973 358.5,192.5C 357.833,192.167 357.167,191.833 356.5,191.5C 356.5,190.833 356.5,190.167 356.5,189.5 Z"/></g>
<g><path style="opacity:1" fill="#e93829" d="M 587.5,191.5 C 588.5,191.833 589.167,192.5 589.5,193.5C 589.427,195.027 590.094,196.027 591.5,196.5C 592.11,197.391 592.443,198.391 592.5,199.5C 591.067,200.833 589.733,202.333 588.5,204C 588.833,204.333 589.167,204.667 589.5,205C 583.726,216.442 576.059,226.442 566.5,235C 563.456,235.359 563.122,236.026 565.5,237C 564.069,237.465 562.903,238.299 562,239.5C 561.667,238.833 561.333,238.167 561,237.5C 559.14,240.272 556.806,242.605 554,244.5C 551.908,244.929 549.908,246.262 548,248.5C 547,248.167 546,247.833 545,247.5C 543.317,249.514 541.317,251.18 539,252.5C 537.442,251.655 536.442,252.321 536,254.5C 535.667,253.833 535.333,253.167 535,252.5C 533.016,254.303 531.016,255.303 529,255.5C 528.667,254.833 528.333,254.167 528,253.5C 527.302,256.411 525.802,257.077 523.5,255.5C 524.079,252.669 525.412,250.336 527.5,248.5C 529.129,247.375 530.629,246.041 532,244.5C 533,244.833 534,245.167 535,245.5C 536.333,244.833 537.333,243.833 538,242.5C 538.333,243.167 538.667,243.833 539,244.5C 539.667,243.167 540.333,241.833 541,240.5C 541.333,241.167 541.667,241.833 542,242.5C 542.317,240.699 542.984,240.366 544,241.5C 545.601,239.028 547.601,238.028 550,238.5C 552.148,237.023 553.482,235.023 554,232.5C 554.333,233.167 554.667,233.833 555,234.5C 555.667,233.167 556.333,231.833 557,230.5C 557.333,231.167 557.667,231.833 558,232.5C 558.333,231.167 558.667,229.833 559,228.5C 559.974,230.878 560.641,230.544 561,227.5C 561.333,227.833 561.667,228.167 562,228.5C 566.409,224.497 569.742,220.831 572,217.5C 572.471,215.754 573.138,214.087 574,212.5C 574.333,213.167 574.667,213.833 575,214.5C 576.294,213.146 576.46,211.812 575.5,210.5C 578.517,206.631 580.684,202.298 582,197.5C 582.805,199.901 583.638,199.734 584.5,197C 583.328,195.132 583.495,193.298 585,191.5C 585.77,192.598 586.603,192.598 587.5,191.5 Z"/></g>
<g><path style="opacity:0.969" fill="#ed8483" d="M 384.5,191.5 C 384.833,191.5 385.167,191.5 385.5,191.5C 386.451,192.919 386.784,194.585 386.5,196.5C 386.167,196.5 385.833,196.5 385.5,196.5C 384.549,195.081 384.216,193.415 384.5,191.5 Z"/></g>
<g><path style="opacity:0.4" fill="#f3c1c0" d="M 566.5,189.5 C 565.927,192.407 564.261,194.407 561.5,195.5C 562.419,192.911 564.086,190.911 566.5,189.5 Z"/></g>
<g><path style="opacity:0.953" fill="#ec7372" d="M 334.5,190.5 C 334.771,192.38 334.104,193.713 332.5,194.5C 332.5,193.833 332.5,193.167 332.5,192.5C 332.833,191.5 333.5,190.833 334.5,190.5 Z"/></g>
<g><path style="opacity:0.212" fill="#f4cbcb" d="M 332.5,192.5 C 332.5,193.167 332.5,193.833 332.5,194.5C 331.833,194.833 331.167,195.167 330.5,195.5C 330.427,193.973 331.094,192.973 332.5,192.5 Z"/></g>
<g><path style="opacity:0.561" fill="#f2bebd" d="M 358.5,192.5 C 360.262,193.262 361.262,194.596 361.5,196.5C 359.738,195.738 358.738,194.404 358.5,192.5 Z"/></g>
<g><path style="opacity:0.969" fill="#e96e6f" d="M 589.5,193.5 C 590.167,193.833 590.833,194.167 591.5,194.5C 591.5,195.167 591.5,195.833 591.5,196.5C 590.094,196.027 589.427,195.027 589.5,193.5 Z"/></g>
<g><path style="opacity:0.686" fill="#f3c4c3" d="M 361.5,196.5 C 362.906,196.973 363.573,197.973 363.5,199.5C 362.094,199.027 361.427,198.027 361.5,196.5 Z"/></g>
<g><path style="opacity:0.31" fill="#f2bcbc" d="M 330.5,195.5 C 330.002,198.326 328.669,200.66 326.5,202.5C 327.079,199.669 328.412,197.336 330.5,195.5 Z"/></g>
<g><path style="opacity:1" fill="#e82a25" d="M 592.5,199.5 C 594.588,201.336 595.921,203.669 596.5,206.5C 593.183,212.505 590.017,218.171 587,223.5C 580.953,230.527 574.953,236.861 569,242.5C 568.667,242.167 568.333,241.833 568,241.5C 566.579,244.009 564.912,246.343 563,248.5C 562.667,248.167 562.333,247.833 562,247.5C 559.896,249.738 557.562,250.738 555,250.5C 554.641,253.544 553.974,253.878 553,251.5C 552.218,254.188 550.718,255.188 548.5,254.5C 547.201,255.09 546.368,256.09 546,257.5C 545.026,255.122 544.359,255.456 544,258.5C 541.816,257.892 539.816,258.559 538,260.5C 536.984,259.366 536.317,259.699 536,261.5C 534,261.5 532,261.5 530,261.5C 529.333,264.167 528.667,264.167 528,261.5C 527.581,262.672 526.915,263.672 526,264.5C 521.24,263.055 517.406,264.721 514.5,269.5C 514.833,268.167 515.167,266.833 515.5,265.5C 518.167,262.167 520.833,258.833 523.5,255.5C 525.802,257.077 527.302,256.411 528,253.5C 528.333,254.167 528.667,254.833 529,255.5C 531.016,255.303 533.016,254.303 535,252.5C 535.333,253.167 535.667,253.833 536,254.5C 536.442,252.321 537.442,251.655 539,252.5C 541.317,251.18 543.317,249.514 545,247.5C 546,247.833 547,248.167 548,248.5C 549.908,246.262 551.908,244.929 554,244.5C 556.806,242.605 559.14,240.272 561,237.5C 561.333,238.167 561.667,238.833 562,239.5C 562.903,238.299 564.069,237.465 565.5,237C 563.122,236.026 563.456,235.359 566.5,235C 576.059,226.442 583.726,216.442 589.5,205C 589.167,204.667 588.833,204.333 588.5,204C 589.733,202.333 591.067,200.833 592.5,199.5 Z"/></g>
<g><path style="opacity:1" fill="#ed6a4f" d="M 532.5,209.5 C 530.728,214.053 529.228,218.719 528,223.5C 527.148,224.571 526.315,225.571 525.5,226.5C 524.294,225.12 524.627,223.953 526.5,223C 526,222.5 525.5,222 525,221.5C 523.615,222.551 522.615,223.884 522,225.5C 521.333,222.833 520.667,222.833 520,225.5C 519.667,224.833 519.333,224.167 519,223.5C 518.581,224.672 517.915,225.672 517,226.5C 515.887,225.289 514.72,225.289 513.5,226.5C 512.808,225.975 512.308,225.308 512,224.5C 511.027,228.989 509.693,229.322 508,225.5C 507.333,228.167 506.667,228.167 506,225.5C 505.667,226.167 505.333,226.833 505,227.5C 503.602,226.949 502.268,226.616 501,226.5C 499.203,229.096 497.869,228.763 497,225.5C 495.221,228.276 494.221,227.943 494,224.5C 493.333,227.167 492.667,227.167 492,224.5C 491.667,225.167 491.333,225.833 491,226.5C 490,225.167 489,223.833 488,222.5C 487.333,225.167 486.667,225.167 486,222.5C 485.333,225.167 484.667,225.167 484,222.5C 483.333,225.167 482.667,225.167 482,222.5C 481,222.5 480,222.5 479,222.5C 477.615,221.449 476.615,220.116 476,218.5C 475.667,219.167 475.333,219.833 475,220.5C 474,218.833 473,217.167 472,215.5C 471.333,218.167 470.667,218.167 470,215.5C 469.329,216.252 468.496,216.586 467.5,216.5C 467.182,211.968 467.515,207.634 468.5,203.5C 470.288,200.975 471.122,198.309 471,195.5C 473.19,199.076 475.19,202.743 477,206.5C 477.333,205.833 477.667,205.167 478,204.5C 478.667,208.5 479.333,208.5 480,204.5C 480.84,207.464 481.84,207.797 483,205.5C 485.289,206.673 487.956,209.006 491,212.5C 491.333,212.167 491.667,211.833 492,211.5C 493.333,214.167 494.667,214.167 496,211.5C 496.974,213.878 497.641,213.544 498,210.5C 499.693,214.322 501.027,213.989 502,209.5C 502.84,212.464 503.84,212.797 505,210.5C 505.974,212.878 506.641,212.544 507,209.5C 507.419,210.672 508.085,211.672 509,212.5C 509.667,209.833 510.333,209.833 511,212.5C 511.359,209.456 512.026,209.122 513,211.5C 513.667,206.167 514.333,206.167 515,211.5C 515.359,208.456 516.026,208.122 517,210.5C 517.667,207.833 518.333,207.833 519,210.5C 519.667,206.5 520.333,206.5 521,210.5C 521.419,206.148 522.086,205.815 523,209.5C 523.667,204.167 524.333,204.167 525,209.5C 525.333,207.5 525.667,205.5 526,203.5C 526.333,204.833 526.667,206.167 527,207.5C 527.667,200.833 528.333,200.833 529,207.5C 529.333,206.5 529.667,205.5 530,204.5C 530.667,205.833 531.333,205.833 532,204.5C 532.494,206.134 532.66,207.801 532.5,209.5 Z"/></g>
<g><path style="opacity:0.686" fill="#f1b3b2" d="M 363.5,199.5 C 364.906,199.973 365.573,200.973 365.5,202.5C 364.094,202.027 363.427,201.027 363.5,199.5 Z"/></g>
<g><path style="opacity:0.31" fill="#f3c3c3" d="M 385.5,196.5 C 385.833,196.5 386.167,196.5 386.5,196.5C 387.289,201.536 388.289,206.536 389.5,211.5C 387.311,207.281 385.644,202.781 384.5,198C 385.056,197.617 385.389,197.117 385.5,196.5 Z"/></g>
<g><path style="opacity:0.4" fill="#f2b7b6" d="M 365.5,202.5 C 368.933,205.601 371.6,209.268 373.5,213.5C 370.067,210.399 367.4,206.732 365.5,202.5 Z"/></g>
<g><path style="opacity:1" fill="#e61e23" d="M 596.5,206.5 C 602.08,216.314 604.08,226.98 602.5,238.5C 601.709,241.115 601.043,243.782 600.5,246.5C 599.326,247.514 598.66,248.847 598.5,250.5C 597.766,251.708 597.433,253.041 597.5,254.5C 595.738,255.262 594.738,256.596 594.5,258.5C 588.806,263.527 583.473,268.86 578.5,274.5C 577.448,274.351 576.448,274.517 575.5,275C 572.568,277.285 569.902,279.785 567.5,282.5C 567.5,283.167 567.167,283.5 566.5,283.5C 564.368,283.554 563.035,284.554 562.5,286.5C 560.973,286.427 559.973,287.094 559.5,288.5C 554.321,289.917 549.988,292.583 546.5,296.5C 541.271,298.522 536.271,301.022 531.5,304C 530.748,304.671 530.414,305.504 530.5,306.5C 521.733,310.383 513.067,314.549 504.5,319C 501.664,320.391 499.331,322.224 497.5,324.5C 495.297,324.604 493.297,325.27 491.5,326.5C 489.368,326.554 488.035,327.554 487.5,329.5C 486.5,329.5 485.5,329.5 484.5,329.5C 485.367,325.776 486.534,322.109 488,318.5C 492.472,309.892 496.639,301.225 500.5,292.5C 500.75,290.326 501.75,288.659 503.5,287.5C 506.086,286.513 507.419,284.513 507.5,281.5C 508.989,279.355 509.989,277.022 510.5,274.5C 511.906,274.027 512.573,273.027 512.5,271.5C 513.167,270.833 513.833,270.167 514.5,269.5C 517.406,264.721 521.24,263.055 526,264.5C 526.915,263.672 527.581,262.672 528,261.5C 528.667,264.167 529.333,264.167 530,261.5C 532,261.5 534,261.5 536,261.5C 536.317,259.699 536.984,259.366 538,260.5C 539.816,258.559 541.816,257.892 544,258.5C 544.359,255.456 545.026,255.122 546,257.5C 546.368,256.09 547.201,255.09 548.5,254.5C 550.718,255.188 552.218,254.188 553,251.5C 553.974,253.878 554.641,253.544 555,250.5C 557.562,250.738 559.896,249.738 562,247.5C 562.333,247.833 562.667,248.167 563,248.5C 564.912,246.343 566.579,244.009 568,241.5C 568.333,241.833 568.667,242.167 569,242.5C 574.953,236.861 580.953,230.527 587,223.5C 590.017,218.171 593.183,212.505 596.5,206.5 Z"/></g>
<g><path style="opacity:0.31" fill="#f3bfbe" d="M 326.5,202.5 C 326.167,204.5 325.833,206.5 325.5,208.5C 324.167,208.5 323.5,209.167 323.5,210.5C 322.833,211.167 322.167,211.833 321.5,212.5C 322.127,208.58 323.793,205.247 326.5,202.5 Z"/></g>
<g><path style="opacity:1" fill="#da1d22" d="M 325.5,208.5 C 328.709,213.761 331.376,218.927 333.5,224C 332.978,224.561 332.645,225.228 332.5,226C 334.591,228.297 335.925,230.63 336.5,233C 335.483,234.049 335.316,235.216 336,236.5C 336.805,234.099 337.638,234.266 338.5,237C 337.689,239.72 337.689,242.22 338.5,244.5C 340.991,245.541 340.991,246.374 338.5,247C 339.931,247.465 341.097,248.299 342,249.5C 348.579,258.594 353.913,267.927 358,277.5C 358.869,272.492 359.536,272.825 360,278.5C 362.057,279.978 363.39,281.978 364,284.5C 364.333,283.833 364.667,283.167 365,282.5C 366.647,285.473 368.647,288.14 371,290.5C 371.333,289.833 371.667,289.167 372,288.5C 372.785,290.286 373.951,291.786 375.5,293C 374.944,293.383 374.611,293.883 374.5,294.5C 373.833,294.167 373.167,293.833 372.5,293.5C 370.853,291.674 368.853,290.34 366.5,289.5C 362.472,287.155 358.472,284.822 354.5,282.5C 353.292,279.956 351.292,278.622 348.5,278.5C 348.167,277.5 347.5,276.833 346.5,276.5C 345.415,274.413 343.749,273.08 341.5,272.5C 340.089,270.086 338.089,268.419 335.5,267.5C 333.168,263.532 330.335,259.866 327,256.5C 324.335,251.331 322.168,245.998 320.5,240.5C 320.39,232.475 320.724,224.475 321.5,216.5C 321.5,216.167 321.5,215.833 321.5,215.5C 322.931,214.22 323.598,212.553 323.5,210.5C 323.5,209.167 324.167,208.5 325.5,208.5 Z"/></g>
<g><path style="opacity:0.561" fill="#f2b9b7" d="M 561.5,195.5 C 560.308,198.562 558.808,201.562 557,204.5C 552.055,211.416 546.889,218.083 541.5,224.5C 547.394,214.278 554.06,204.611 561.5,195.5 Z"/></g>
<g><path style="opacity:0.671" fill="#f0a1a0" d="M 591.5,194.5 C 601.931,207.74 605.931,222.407 603.5,238.5C 603.167,238.5 602.833,238.5 602.5,238.5C 604.08,226.98 602.08,216.314 596.5,206.5C 595.921,203.669 594.588,201.336 592.5,199.5C 592.443,198.391 592.11,197.391 591.5,196.5C 591.5,195.833 591.5,195.167 591.5,194.5 Z"/></g>
<g><path style="opacity:0.78" fill="#ea7879" d="M 323.5,210.5 C 323.598,212.553 322.931,214.22 321.5,215.5C 321.5,214.833 321.5,214.167 321.5,213.5C 321.5,213.167 321.5,212.833 321.5,212.5C 322.167,211.833 322.833,211.167 323.5,210.5 Z"/></g>
<g><path style="opacity:0.075" fill="#f3c4c3" d="M 389.5,211.5 C 392.404,216.414 394.404,221.747 395.5,227.5C 392.531,222.601 390.531,217.267 389.5,211.5 Z"/></g>
<g><path style="opacity:0.075" fill="#f3c9c9" d="M 321.5,213.5 C 321.5,214.167 321.5,214.833 321.5,215.5C 321.5,215.833 321.5,216.167 321.5,216.5C 320.833,217.833 320.167,219.167 319.5,220.5C 319.171,217.772 319.837,215.438 321.5,213.5 Z"/></g>
<g><path style="opacity:1" fill="#ec593f" d="M 525.5,226.5 C 524.065,231.49 522.065,236.156 519.5,240.5C 519.649,239.448 519.483,238.448 519,237.5C 517.333,237.833 515.667,238.167 514,238.5C 513.085,237.672 512.419,236.672 512,235.5C 511,236.5 510,237.5 509,238.5C 507.351,235.123 505.351,234.79 503,237.5C 502.667,236.833 502.333,236.167 502,235.5C 501.071,240.425 499.404,240.758 497,236.5C 496.667,237.5 496.333,238.5 496,239.5C 495.16,236.536 494.16,236.203 493,238.5C 492.641,235.456 491.974,235.122 491,237.5C 490.333,236.167 489.667,236.167 489,237.5C 488.085,236.672 487.419,235.672 487,234.5C 486.374,236.991 485.541,236.991 484.5,234.5C 482.482,235.813 481.315,235.147 481,232.5C 480.667,233.5 480.333,234.5 480,235.5C 478.348,234.932 476.682,233.599 475,231.5C 474.667,232.167 474.333,232.833 474,233.5C 472.482,229.609 470.316,228.276 467.5,229.5C 467.709,230.086 468.043,230.586 468.5,231C 467.883,233.277 467.216,235.444 466.5,237.5C 466.5,235.5 466.5,233.5 466.5,231.5C 466.221,226.405 466.555,221.405 467.5,216.5C 468.496,216.586 469.329,216.252 470,215.5C 470.667,218.167 471.333,218.167 472,215.5C 473,217.167 474,218.833 475,220.5C 475.333,219.833 475.667,219.167 476,218.5C 476.615,220.116 477.615,221.449 479,222.5C 480,222.5 481,222.5 482,222.5C 482.667,225.167 483.333,225.167 484,222.5C 484.667,225.167 485.333,225.167 486,222.5C 486.667,225.167 487.333,225.167 488,222.5C 489,223.833 490,225.167 491,226.5C 491.333,225.833 491.667,225.167 492,224.5C 492.667,227.167 493.333,227.167 494,224.5C 494.221,227.943 495.221,228.276 497,225.5C 497.869,228.763 499.203,229.096 501,226.5C 502.268,226.616 503.602,226.949 505,227.5C 505.333,226.833 505.667,226.167 506,225.5C 506.667,228.167 507.333,228.167 508,225.5C 509.693,229.322 511.027,228.989 512,224.5C 512.308,225.308 512.808,225.975 513.5,226.5C 514.72,225.289 515.887,225.289 517,226.5C 517.915,225.672 518.581,224.672 519,223.5C 519.333,224.167 519.667,224.833 520,225.5C 520.667,222.833 521.333,222.833 522,225.5C 522.615,223.884 523.615,222.551 525,221.5C 525.5,222 526,222.5 526.5,223C 524.627,223.953 524.294,225.12 525.5,226.5 Z"/></g>
<g><path style="opacity:0.4" fill="#f2bab9" d="M 373.5,213.5 C 375.446,214.035 376.446,215.368 376.5,217.5C 374.554,216.965 373.554,215.632 373.5,213.5 Z"/></g>
<g><path style="opacity:0.212" fill="#f3c9c9" d="M 376.5,217.5 C 377.906,217.973 378.573,218.973 378.5,220.5C 377.094,220.027 376.427,219.027 376.5,217.5 Z"/></g>
<g><path style="opacity:0.4" fill="#f1b1b0" d="M 456.5,218.5 C 457.833,236.833 457.833,255.167 456.5,273.5C 456.44,254.958 456.44,236.624 456.5,218.5 Z"/></g>
<g><path style="opacity:0.78" fill="#efa5a4" d="M 379.5,222.5 C 381.262,223.262 382.262,224.596 382.5,226.5C 380.554,225.965 379.554,224.632 379.5,222.5 Z"/></g>
<g><path style="opacity:0.075" fill="#f3bebc" d="M 532.5,209.5 C 532.833,209.5 533.167,209.5 533.5,209.5C 532.851,213.951 531.684,218.284 530,222.5C 526.315,231.204 522.148,239.537 517.5,247.5C 517.878,245.079 518.545,242.746 519.5,240.5C 522.065,236.156 524.065,231.49 525.5,226.5C 526.315,225.571 527.148,224.571 528,223.5C 529.228,218.719 530.728,214.053 532.5,209.5 Z"/></g>
<g><path style="opacity:1" fill="#e84143" d="M 321.5,216.5 C 320.724,224.475 320.39,232.475 320.5,240.5C 320.167,240.5 319.833,240.5 319.5,240.5C 319.5,233.833 319.5,227.167 319.5,220.5C 320.167,219.167 320.833,217.833 321.5,216.5 Z"/></g>
<g><path style="opacity:0.4" fill="#f1b0af" d="M 319.5,220.5 C 319.5,227.167 319.5,233.833 319.5,240.5C 316.892,233.843 316.892,227.176 319.5,220.5 Z"/></g>
<g><path style="opacity:0.212" fill="#f2bfbf" d="M 382.5,226.5 C 384.25,227.659 385.25,229.326 385.5,231.5C 383.75,230.341 382.75,228.674 382.5,226.5 Z"/></g>
<g><path style="opacity:1" fill="#ea4834" d="M 519.5,240.5 C 518.545,242.746 517.878,245.079 517.5,247.5C 515.818,248.827 514.485,250.494 513.5,252.5C 513.66,250.801 513.494,249.134 513,247.5C 512.641,250.544 511.974,250.878 511,248.5C 509.434,247.939 508.101,248.606 507,250.5C 505.192,250.112 503.525,250.112 502,250.5C 500.47,249.364 499.137,248.364 498,247.5C 497.641,250.544 496.974,250.878 496,248.5C 494.333,248.833 492.667,249.167 491,249.5C 490.085,248.672 489.419,247.672 489,246.5C 488.667,247.167 488.333,247.833 488,248.5C 486.47,247.364 485.137,246.364 484,245.5C 483.309,247.891 482.309,247.891 481,245.5C 480.667,246.167 480.333,246.833 480,247.5C 479.16,244.536 478.16,244.203 477,246.5C 475.659,243.813 473.993,242.147 472,241.5C 471.333,244.167 470.667,244.167 470,241.5C 469.333,242.833 468.667,242.833 468,241.5C 467.809,243.708 467.309,245.708 466.5,247.5C 466.5,244.167 466.5,240.833 466.5,237.5C 467.216,235.444 467.883,233.277 468.5,231C 468.043,230.586 467.709,230.086 467.5,229.5C 470.316,228.276 472.482,229.609 474,233.5C 474.333,232.833 474.667,232.167 475,231.5C 476.682,233.599 478.348,234.932 480,235.5C 480.333,234.5 480.667,233.5 481,232.5C 481.315,235.147 482.482,235.813 484.5,234.5C 485.541,236.991 486.374,236.991 487,234.5C 487.419,235.672 488.085,236.672 489,237.5C 489.667,236.167 490.333,236.167 491,237.5C 491.974,235.122 492.641,235.456 493,238.5C 494.16,236.203 495.16,236.536 496,239.5C 496.333,238.5 496.667,237.5 497,236.5C 499.404,240.758 501.071,240.425 502,235.5C 502.333,236.167 502.667,236.833 503,237.5C 505.351,234.79 507.351,235.123 509,238.5C 510,237.5 511,236.5 512,235.5C 512.419,236.672 513.085,237.672 514,238.5C 515.667,238.167 517.333,237.833 519,237.5C 519.483,238.448 519.649,239.448 519.5,240.5 Z"/></g>
<g><path style="opacity:0.075" fill="#f2bcbb" d="M 385.5,231.5 C 388.323,232.992 389.99,235.326 390.5,238.5C 387.736,237.052 386.069,234.719 385.5,231.5 Z"/></g>
<g><path style="opacity:0.4" fill="#f2b3b1" d="M 541.5,224.5 C 540.242,226.687 539.242,229.02 538.5,231.5C 535.814,234.903 533.147,238.236 530.5,241.5C 531.045,239.407 531.878,237.407 533,235.5C 535.853,231.765 538.687,228.098 541.5,224.5 Z"/></g>
<g><path style="opacity:1" fill="#e9382a" d="M 513.5,252.5 C 511.94,254.954 510.94,257.62 510.5,260.5C 510.167,260.5 509.833,260.5 509.5,260.5C 509.992,256.71 509.159,256.044 507,258.5C 504,258.84 501,258.173 498,256.5C 497.309,258.891 496.309,258.891 495,256.5C 493.691,258.891 492.691,258.891 492,256.5C 490.732,256.616 489.398,256.949 488,257.5C 487.085,256.672 486.419,255.672 486,254.5C 485.667,255.167 485.333,255.833 485,256.5C 484,255.5 483,254.5 482,253.5C 480.68,255.583 479.346,255.249 478,252.5C 477.333,253.167 476.667,253.833 476,254.5C 473.195,252.622 470.528,250.955 468,249.5C 467.814,252.036 467.314,254.369 466.5,256.5C 466.5,253.5 466.5,250.5 466.5,247.5C 467.309,245.708 467.809,243.708 468,241.5C 468.667,242.833 469.333,242.833 470,241.5C 470.667,244.167 471.333,244.167 472,241.5C 473.993,242.147 475.659,243.813 477,246.5C 478.16,244.203 479.16,244.536 480,247.5C 480.333,246.833 480.667,246.167 481,245.5C 482.309,247.891 483.309,247.891 484,245.5C 485.137,246.364 486.47,247.364 488,248.5C 488.333,247.833 488.667,247.167 489,246.5C 489.419,247.672 490.085,248.672 491,249.5C 492.667,249.167 494.333,248.833 496,248.5C 496.974,250.878 497.641,250.544 498,247.5C 499.137,248.364 500.47,249.364 502,250.5C 503.525,250.112 505.192,250.112 507,250.5C 508.101,248.606 509.434,247.939 511,248.5C 511.974,250.878 512.641,250.544 513,247.5C 513.494,249.134 513.66,250.801 513.5,252.5 Z"/></g>
<g><path style="opacity:0.075" fill="#f3bebc" d="M 602.5,238.5 C 602.833,238.5 603.167,238.5 603.5,238.5C 603.936,242.413 602.936,246.079 600.5,249.5C 600.5,248.5 600.5,247.5 600.5,246.5C 601.043,243.782 601.709,241.115 602.5,238.5 Z"/></g>
<g><path style="opacity:0.075" fill="#f1adac" d="M 319.5,240.5 C 319.833,240.5 320.167,240.5 320.5,240.5C 322.168,245.998 324.335,251.331 327,256.5C 330.335,259.866 333.168,263.532 335.5,267.5C 326.304,260.773 320.971,251.773 319.5,240.5 Z"/></g>
<g><path style="opacity:0.212" fill="#f2b3b2" d="M 395.5,227.5 C 401.111,236.316 405.778,245.65 409.5,255.5C 403.281,247.063 398.615,237.729 395.5,227.5 Z"/></g>
<g><path style="opacity:0.4" fill="#f2b8b7" d="M 530.5,241.5 C 529.758,243.98 528.758,246.313 527.5,248.5C 525.412,250.336 524.079,252.669 523.5,255.5C 520.833,258.833 518.167,262.167 515.5,265.5C 519.716,256.963 524.716,248.963 530.5,241.5 Z"/></g>
<g><path style="opacity:0.871" fill="#e46d6f" d="M 600.5,246.5 C 600.5,247.5 600.5,248.5 600.5,249.5C 599.833,249.833 599.167,250.167 598.5,250.5C 598.66,248.847 599.326,247.514 600.5,246.5 Z"/></g>
<g><path style="opacity:0.31" fill="#f3c1c0" d="M 517.5,247.5 C 515.946,252.276 513.613,256.61 510.5,260.5C 510.94,257.62 511.94,254.954 513.5,252.5C 514.485,250.494 515.818,248.827 517.5,247.5 Z"/></g>
<g><path style="opacity:0.31" fill="#f3c3c2" d="M 600.5,249.5 C 600.25,251.674 599.25,253.341 597.5,254.5C 597.433,253.041 597.766,251.708 598.5,250.5C 599.167,250.167 599.833,249.833 600.5,249.5 Z"/></g>
<g><path style="opacity:0.075" fill="#f3bfbf" d="M 597.5,254.5 C 597.262,256.404 596.262,257.738 594.5,258.5C 594.738,256.596 595.738,255.262 597.5,254.5 Z"/></g>
<g><path style="opacity:0.212" fill="#f2b0af" d="M 392.5,242.5 C 393.794,243.29 394.961,244.29 396,245.5C 400.366,252.234 404.199,259.234 407.5,266.5C 401.489,259.148 396.489,251.148 392.5,242.5 Z"/></g>
<g><path style="opacity:0.212" fill="#f3c2c2" d="M 409.5,256.5 C 412.112,258.052 413.445,260.386 413.5,263.5C 411.412,261.664 410.079,259.331 409.5,256.5 Z"/></g>
<g><path style="opacity:1" fill="#e61f23" d="M 509.5,260.5 C 507.261,264.64 504.761,268.64 502,272.5C 500.872,274.345 500.372,276.345 500.5,278.5C 497.917,281.266 495.417,284.266 493,287.5C 486.781,299.521 479.281,310.521 470.5,320.5C 470.153,315.32 469.487,310.32 468.5,305.5C 468.5,303.5 468.5,301.5 468.5,299.5C 468.213,285.142 467.546,270.808 466.5,256.5C 467.314,254.369 467.814,252.036 468,249.5C 470.528,250.955 473.195,252.622 476,254.5C 476.667,253.833 477.333,253.167 478,252.5C 479.346,255.249 480.68,255.583 482,253.5C 483,254.5 484,255.5 485,256.5C 485.333,255.833 485.667,255.167 486,254.5C 486.419,255.672 487.085,256.672 488,257.5C 489.398,256.949 490.732,256.616 492,256.5C 492.691,258.891 493.691,258.891 495,256.5C 496.309,258.891 497.309,258.891 498,256.5C 501,258.173 504,258.84 507,258.5C 509.159,256.044 509.992,256.71 509.5,260.5 Z"/></g>
<g><path style="opacity:0.212" fill="#f2bcba" d="M 469.5,181.5 C 469.5,183.167 469.5,184.833 469.5,186.5C 468.968,192.152 468.635,197.819 468.5,203.5C 467.515,207.634 467.182,211.968 467.5,216.5C 466.555,221.405 466.221,226.405 466.5,231.5C 465.35,254.205 466.017,276.871 468.5,299.5C 468.5,301.5 468.5,303.5 468.5,305.5C 468.5,308.5 468.5,311.5 468.5,314.5C 463.9,274.889 463.4,234.889 467,194.5C 467.614,189.985 468.448,185.652 469.5,181.5 Z"/></g>
<g><path style="opacity:0.686" fill="#ecaaa9" d="M 628.5,286.5 C 628.167,286.5 627.833,286.5 627.5,286.5C 627.5,282.833 627.5,279.167 627.5,275.5C 626.828,271.812 625.995,268.145 625,264.5C 623.708,263.209 622.542,263.209 621.5,264.5C 619.703,265.73 617.703,266.396 615.5,266.5C 622.611,258.524 626.778,259.858 628,270.5C 628.499,275.823 628.666,281.156 628.5,286.5 Z"/></g>
<g><path style="opacity:0.075" fill="#f4caca" d="M 301.5,263.5 C 300.167,263.5 298.833,263.5 297.5,263.5C 297.5,264.5 297.5,265.5 297.5,266.5C 296.203,268.371 295.203,270.371 294.5,272.5C 294.751,268.751 295.417,265.085 296.5,261.5C 298.698,261.12 300.365,261.787 301.5,263.5 Z"/></g>
<g><path style="opacity:1" fill="#b31c1c" d="M 301.5,263.5 C 301.369,264.376 301.702,265.043 302.5,265.5C 304.604,266.519 306.604,267.519 308.5,268.5C 306.748,268.418 305.748,269.251 305.5,271C 310.7,280.228 315.533,288.728 320,296.5C 320.333,295.833 320.667,295.167 321,294.5C 322.467,297.266 324.3,299.766 326.5,302C 326.167,302.333 325.833,302.667 325.5,303C 332.219,310.449 339.719,318.616 348,327.5C 348.359,330.544 349.026,330.878 350,328.5C 352.353,330.86 354.353,333.527 356,336.5C 356.333,335.833 356.667,335.167 357,334.5C 357.837,336.351 358.671,338.184 359.5,340C 357.833,340.333 356.167,340.667 354.5,341C 360.825,341.5 367.158,341.666 373.5,341.5C 380.167,341.5 386.833,341.5 393.5,341.5C 405.5,341.5 417.5,341.5 429.5,341.5C 403.167,342.833 376.833,342.833 350.5,341.5C 342.231,335.423 334.397,328.09 327,319.5C 319.338,308.848 311.671,298.181 304,287.5C 300.937,282.708 298.437,277.708 296.5,272.5C 296.833,270.5 297.167,268.5 297.5,266.5C 297.5,265.5 297.5,264.5 297.5,263.5C 298.833,263.5 300.167,263.5 301.5,263.5 Z"/></g>
<g><path style="opacity:1" fill="#e72b31" d="M 621.5,264.5 C 622.496,264.414 623.329,264.748 624,265.5C 624.572,269.163 625.738,272.497 627.5,275.5C 627.5,279.167 627.5,282.833 627.5,286.5C 627.167,287.167 626.833,287.833 626.5,288.5C 625.539,290.265 625.205,292.265 625.5,294.5C 625.5,295.833 625.5,297.167 625.5,298.5C 625.5,298.833 625.5,299.167 625.5,299.5C 622.369,304.097 620.036,309.097 618.5,314.5C 617.167,314.5 616.5,315.167 616.5,316.5C 612.528,320.807 608.528,325.141 604.5,329.5C 602.442,330.933 600.108,331.6 597.5,331.5C 597.5,332.5 597.5,333.5 597.5,334.5C 594.607,334.031 592.607,335.031 591.5,337.5C 586.924,338.81 582.257,339.81 577.5,340.5C 549.498,340.667 521.498,340.5 493.5,340C 494.056,339.617 494.389,339.117 494.5,338.5C 497.391,337.211 499.725,335.211 501.5,332.5C 504.331,331.921 506.664,330.588 508.5,328.5C 514.616,326.377 519.949,323.044 524.5,318.5C 526.027,318.573 527.027,317.906 527.5,316.5C 529.933,316.727 531.599,315.727 532.5,313.5C 535.198,313.155 537.198,311.822 538.5,309.5C 540.553,309.598 542.22,308.931 543.5,307.5C 545.404,307.262 546.738,306.262 547.5,304.5C 552.619,303.443 556.953,301.11 560.5,297.5C 562.027,297.573 563.027,296.906 563.5,295.5C 565.933,295.727 567.599,294.727 568.5,292.5C 573.705,291.231 578.372,288.898 582.5,285.5C 584.189,284.069 586.189,283.236 588.5,283C 590.24,281.483 591.906,279.983 593.5,278.5C 595.933,278.727 597.599,277.727 598.5,275.5C 600.38,275.771 601.713,275.104 602.5,273.5C 605.326,273.002 607.66,271.669 609.5,269.5C 611.819,269.008 613.819,268.008 615.5,266.5C 617.703,266.396 619.703,265.73 621.5,264.5 Z"/></g>
<g><path style="opacity:0.212" fill="#efa8a7" d="M 594.5,258.5 C 590.188,264.812 584.855,270.145 578.5,274.5C 583.473,268.86 588.806,263.527 594.5,258.5 Z"/></g>
<g><path style="opacity:0.561" fill="#f3c4c4" d="M 335.5,267.5 C 338.089,268.419 340.089,270.086 341.5,272.5C 338.911,271.581 336.911,269.914 335.5,267.5 Z"/></g>
<g><path style="opacity:0.4" fill="#f1b0af" d="M 414.5,265.5 C 417.66,269.148 420.327,273.148 422.5,277.5C 422.5,278.167 422.5,278.833 422.5,279.5C 419.474,275.116 416.807,270.449 414.5,265.5 Z"/></g>
<g><path style="opacity:0.212" fill="#f3c4c3" d="M 515.5,265.5 C 515.167,266.833 514.833,268.167 514.5,269.5C 513.833,270.167 513.167,270.833 512.5,271.5C 512.461,268.911 513.461,266.911 515.5,265.5 Z"/></g>
<g><path style="opacity:1" fill="#bc1319" d="M 308.5,268.5 C 313.46,270.647 318.127,273.314 322.5,276.5C 319.32,276.176 318.153,277.51 319,280.5C 323.58,286.66 327.914,292.993 332,299.5C 334.043,301.208 335.71,303.208 337,305.5C 337.333,305.167 337.667,304.833 338,304.5C 339.667,307.167 341.333,309.833 343,312.5C 343.333,311.833 343.667,311.167 344,310.5C 344.207,313.423 345.707,315.256 348.5,316C 348.167,316.333 347.833,316.667 347.5,317C 348.667,317.5 349.5,318.333 350,319.5C 350.914,318.346 351.747,318.513 352.5,320C 352.167,320.333 351.833,320.667 351.5,321C 354.333,323.833 357.167,326.667 360,329.5C 360.333,329.167 360.667,328.833 361,328.5C 363.189,331.444 365.689,333.277 368.5,334C 368.167,334.333 367.833,334.667 367.5,335C 369,335.833 370.167,337 371,338.5C 371.333,338.167 371.667,337.833 372,337.5C 372.791,338.745 373.291,340.078 373.5,341.5C 367.158,341.666 360.825,341.5 354.5,341C 356.167,340.667 357.833,340.333 359.5,340C 358.671,338.184 357.837,336.351 357,334.5C 356.667,335.167 356.333,335.833 356,336.5C 354.353,333.527 352.353,330.86 350,328.5C 349.026,330.878 348.359,330.544 348,327.5C 339.719,318.616 332.219,310.449 325.5,303C 325.833,302.667 326.167,302.333 326.5,302C 324.3,299.766 322.467,297.266 321,294.5C 320.667,295.167 320.333,295.833 320,296.5C 315.533,288.728 310.7,280.228 305.5,271C 305.748,269.251 306.748,268.418 308.5,268.5 Z"/></g>
<g><path style="opacity:0.31" fill="#f3cccc" d="M 615.5,266.5 C 613.819,268.008 611.819,269.008 609.5,269.5C 610.911,267.461 612.911,266.461 615.5,266.5 Z"/></g>
<g><path style="opacity:0.4" fill="#f1afae" d="M 509.5,260.5 C 509.833,260.5 510.167,260.5 510.5,260.5C 508.102,267.038 504.768,273.038 500.5,278.5C 500.372,276.345 500.872,274.345 502,272.5C 504.761,268.64 507.261,264.64 509.5,260.5 Z"/></g>
<g><path style="opacity:0.31" fill="#f3c6c6" d="M 408.5,268.5 C 409.906,268.973 410.573,269.973 410.5,271.5C 409.094,271.027 408.427,270.027 408.5,268.5 Z"/></g>
<g><path style="opacity:0.969" fill="#e86263" d="M 621.5,264.5 C 622.542,263.209 623.708,263.209 625,264.5C 625.995,268.145 626.828,271.812 627.5,275.5C 625.738,272.497 624.572,269.163 624,265.5C 623.329,264.748 622.496,264.414 621.5,264.5 Z"/></g>
<g><path style="opacity:0.075" fill="#f3c4c4" d="M 512.5,271.5 C 512.573,273.027 511.906,274.027 510.5,274.5C 510.285,272.821 510.952,271.821 512.5,271.5 Z"/></g>
<g><path style="opacity:0.29" fill="#d16667" d="M 297.5,266.5 C 297.167,268.5 296.833,270.5 296.5,272.5C 296.5,279.5 296.5,286.5 296.5,293.5C 296.167,293.5 295.833,293.5 295.5,293.5C 294.509,286.687 294.175,279.687 294.5,272.5C 295.203,270.371 296.203,268.371 297.5,266.5 Z"/></g>
<g><path style="opacity:1" fill="#9e0d0f" d="M 296.5,272.5 C 298.437,277.708 300.937,282.708 304,287.5C 311.671,298.181 319.338,308.848 327,319.5C 334.397,328.09 342.231,335.423 350.5,341.5C 349.5,341.5 348.5,341.5 347.5,341.5C 344.146,339.742 340.479,338.742 336.5,338.5C 335.041,338.567 333.708,338.234 332.5,337.5C 330.337,335.917 328.004,334.584 325.5,333.5C 324.833,333.5 324.167,333.5 323.5,333.5C 323.027,332.094 322.027,331.427 320.5,331.5C 319.415,329.413 317.749,328.08 315.5,327.5C 315.631,326.761 315.464,326.094 315,325.5C 312.816,323.712 310.649,322.046 308.5,320.5C 307.476,317.445 306.143,314.445 304.5,311.5C 304.043,310.702 303.376,310.369 302.5,310.5C 302.25,308.326 301.25,306.659 299.5,305.5C 299.567,304.041 299.234,302.708 298.5,301.5C 298.889,298.447 298.223,295.78 296.5,293.5C 296.5,286.5 296.5,279.5 296.5,272.5 Z"/></g>
<g><path style="opacity:0.561" fill="#f2bfbf" d="M 609.5,269.5 C 607.66,271.669 605.326,273.002 602.5,273.5C 604.336,271.412 606.669,270.079 609.5,269.5 Z"/></g>
<g><path style="opacity:0.686" fill="#f2b9b9" d="M 341.5,272.5 C 343.749,273.08 345.415,274.413 346.5,276.5C 344.251,275.92 342.585,274.587 341.5,272.5 Z"/></g>
<g><path style="opacity:0.969" fill="#f09593" d="M 410.5,271.5 C 412.008,273.181 413.008,275.181 413.5,277.5C 411.031,276.393 410.031,274.393 410.5,271.5 Z"/></g>
<g><path style="opacity:0.212" fill="#f4cbcb" d="M 602.5,273.5 C 601.713,275.104 600.38,275.771 598.5,275.5C 599.514,274.326 600.847,273.66 602.5,273.5 Z"/></g>
<g><path style="opacity:1" fill="#c8151b" d="M 322.5,276.5 C 328.777,279.469 334.777,282.802 340.5,286.5C 340.64,288.124 339.973,289.29 338.5,290C 339.76,291.113 340.927,291.28 342,290.5C 343.173,294.337 345.173,297.671 348,300.5C 348.333,299.833 348.667,299.167 349,298.5C 350,300.5 351,302.5 352,304.5C 352.333,303.833 352.667,303.167 353,302.5C 356.083,305.908 358.749,309.575 361,313.5C 361.333,312.833 361.667,312.167 362,311.5C 363.646,313.055 363.979,314.721 363,316.5C 366.712,317.265 369.712,319.598 372,323.5C 372.414,323.043 372.914,322.709 373.5,322.5C 375.584,325.003 377.417,327.669 379,330.5C 379.667,326.5 380.333,326.5 381,330.5C 384.384,334.261 387.718,337.261 391,339.5C 391.333,338.5 391.667,337.5 392,336.5C 392.608,338.154 393.108,339.821 393.5,341.5C 386.833,341.5 380.167,341.5 373.5,341.5C 373.291,340.078 372.791,338.745 372,337.5C 371.667,337.833 371.333,338.167 371,338.5C 370.167,337 369,335.833 367.5,335C 367.833,334.667 368.167,334.333 368.5,334C 365.689,333.277 363.189,331.444 361,328.5C 360.667,328.833 360.333,329.167 360,329.5C 357.167,326.667 354.333,323.833 351.5,321C 351.833,320.667 352.167,320.333 352.5,320C 351.747,318.513 350.914,318.346 350,319.5C 349.5,318.333 348.667,317.5 347.5,317C 347.833,316.667 348.167,316.333 348.5,316C 345.707,315.256 344.207,313.423 344,310.5C 343.667,311.167 343.333,311.833 343,312.5C 341.333,309.833 339.667,307.167 338,304.5C 337.667,304.833 337.333,305.167 337,305.5C 335.71,303.208 334.043,301.208 332,299.5C 327.914,292.993 323.58,286.66 319,280.5C 318.153,277.51 319.32,276.176 322.5,276.5 Z"/></g>
<g><path style="opacity:0.561" fill="#f2bbbb" d="M 598.5,275.5 C 597.599,277.727 595.933,278.727 593.5,278.5C 594.899,277.11 596.566,276.11 598.5,275.5 Z"/></g>
<g><path style="opacity:0.075" fill="#f4cece" d="M 346.5,276.5 C 347.5,276.833 348.167,277.5 348.5,278.5C 347.167,278.5 346.5,277.833 346.5,276.5 Z"/></g>
<g><path style="opacity:0.871" fill="#e26769" d="M 422.5,277.5 C 423.906,277.973 424.573,278.973 424.5,280.5C 423.833,280.167 423.167,279.833 422.5,279.5C 422.5,278.833 422.5,278.167 422.5,277.5 Z"/></g>
<g><path style="opacity:0.561" fill="#f2abaa" d="M 578.5,274.5 C 575.796,278.365 572.13,281.031 567.5,282.5C 569.902,279.785 572.568,277.285 575.5,275C 576.448,274.517 577.448,274.351 578.5,274.5 Z"/></g>
<g><path style="opacity:0.847" fill="#f0acab" d="M 301.5,263.5 C 314.78,270.409 328.113,277.409 341.5,284.5C 342.298,284.957 342.631,285.624 342.5,286.5C 341.833,286.5 341.167,286.5 340.5,286.5C 334.777,282.802 328.777,279.469 322.5,276.5C 318.127,273.314 313.46,270.647 308.5,268.5C 306.604,267.519 304.604,266.519 302.5,265.5C 301.702,265.043 301.369,264.376 301.5,263.5 Z"/></g>
<g><path style="opacity:0.212" fill="#f3bfbe" d="M 348.5,278.5 C 351.292,278.622 353.292,279.956 354.5,282.5C 351.802,282.155 349.802,280.822 348.5,278.5 Z"/></g>
<g><path style="opacity:0.075" fill="#f3c5c5" d="M 510.5,274.5 C 509.989,277.022 508.989,279.355 507.5,281.5C 506.833,281.833 506.167,282.167 505.5,282.5C 506.383,279.296 508.05,276.629 510.5,274.5 Z"/></g>
<g><path style="opacity:1" fill="#e75756" d="M 466.5,231.5 C 466.5,233.5 466.5,235.5 466.5,237.5C 466.5,240.833 466.5,244.167 466.5,247.5C 466.5,250.5 466.5,253.5 466.5,256.5C 467.546,270.808 468.213,285.142 468.5,299.5C 466.017,276.871 465.35,254.205 466.5,231.5 Z"/></g>
<g><path style="opacity:0.212" fill="#f2b6b5" d="M 593.5,278.5 C 591.906,279.983 590.24,281.483 588.5,283C 586.189,283.236 584.189,284.069 582.5,285.5C 582.167,285.5 581.833,285.5 581.5,285.5C 581.369,284.624 581.702,283.957 582.5,283.5C 586.338,282.079 590.005,280.412 593.5,278.5 Z"/></g>
<g><path style="opacity:0.31" fill="#f2bfbf" d="M 354.5,282.5 C 358.472,284.822 362.472,287.155 366.5,289.5C 366.833,290.167 367.167,290.833 367.5,291.5C 362.635,289.237 358.302,286.237 354.5,282.5 Z"/></g>
<g><path style="opacity:0.486" fill="#eea4a4" d="M 566.5,283.5 C 565.738,285.262 564.404,286.262 562.5,286.5C 563.035,284.554 564.368,283.554 566.5,283.5 Z"/></g>
<g><path style="opacity:0.914" fill="#f0a4a4" d="M 413.5,277.5 C 416.164,279.484 417.831,282.151 418.5,285.5C 418.5,286.167 418.5,286.833 418.5,287.5C 416.243,284.52 414.577,281.187 413.5,277.5 Z"/></g>
<g><path style="opacity:0.988" fill="#ec6e6b" d="M 507.5,281.5 C 507.419,284.513 506.086,286.513 503.5,287.5C 503.893,285.716 504.559,284.05 505.5,282.5C 506.167,282.167 506.833,281.833 507.5,281.5 Z"/></g>
<g><path style="opacity:0.561" fill="#f2b4b3" d="M 342.5,286.5 C 345.721,286.896 348.388,288.229 350.5,290.5C 347.148,290.47 344.482,289.137 342.5,286.5 Z"/></g>
<g><path style="opacity:0.075" fill="#f4d0d0" d="M 562.5,286.5 C 562.027,287.906 561.027,288.573 559.5,288.5C 559.973,287.094 560.973,286.427 562.5,286.5 Z"/></g>
<g><path style="opacity:0.969" fill="#ee9392" d="M 581.5,285.5 C 581.833,285.5 582.167,285.5 582.5,285.5C 578.372,288.898 573.705,291.231 568.5,292.5C 572.347,289.407 576.68,287.074 581.5,285.5 Z"/></g>
<g><path style="opacity:0.075" fill="#f4cccc" d="M 627.5,286.5 C 627.833,286.5 628.167,286.5 628.5,286.5C 628.728,290.924 627.728,294.924 625.5,298.5C 625.5,297.167 625.5,295.833 625.5,294.5C 626.306,293.003 626.972,291.336 627.5,289.5C 627.376,288.893 627.043,288.56 626.5,288.5C 626.833,287.833 627.167,287.167 627.5,286.5 Z"/></g>
<g><path style="opacity:1" fill="#d71d22" d="M 340.5,286.5 C 341.167,286.5 341.833,286.5 342.5,286.5C 344.482,289.137 347.148,290.47 350.5,290.5C 354.148,293.66 358.148,296.327 362.5,298.5C 364.461,300.312 366.794,301.312 369.5,301.5C 370.492,301.328 371.158,301.662 371.5,302.5C 371.821,304.048 372.821,304.715 374.5,304.5C 384.223,311.21 394.223,317.71 404.5,324C 410.407,327.452 416.407,330.619 422.5,333.5C 424.64,336.977 427.64,339.311 431.5,340.5C 431.5,340.833 431.5,341.167 431.5,341.5C 430.833,341.5 430.167,341.5 429.5,341.5C 417.5,341.5 405.5,341.5 393.5,341.5C 393.108,339.821 392.608,338.154 392,336.5C 391.667,337.5 391.333,338.5 391,339.5C 387.718,337.261 384.384,334.261 381,330.5C 380.333,326.5 379.667,326.5 379,330.5C 377.417,327.669 375.584,325.003 373.5,322.5C 372.914,322.709 372.414,323.043 372,323.5C 369.712,319.598 366.712,317.265 363,316.5C 363.979,314.721 363.646,313.055 362,311.5C 361.667,312.167 361.333,312.833 361,313.5C 358.749,309.575 356.083,305.908 353,302.5C 352.667,303.167 352.333,303.833 352,304.5C 351,302.5 350,300.5 349,298.5C 348.667,299.167 348.333,299.833 348,300.5C 345.173,297.671 343.173,294.337 342,290.5C 340.927,291.28 339.76,291.113 338.5,290C 339.973,289.29 340.64,288.124 340.5,286.5 Z"/></g>
<g><path style="opacity:0.671" fill="#f09d9c" d="M 422.5,279.5 C 423.167,279.833 423.833,280.167 424.5,280.5C 429.662,287.332 433.996,294.666 437.5,302.5C 435.866,301.793 434.532,300.627 433.5,299C 433.833,298.667 434.167,298.333 434.5,298C 430.105,292.032 426.105,285.865 422.5,279.5 Z"/></g>
<g><path style="opacity:0.871" fill="#e66c6e" d="M 626.5,288.5 C 627.043,288.56 627.376,288.893 627.5,289.5C 626.972,291.336 626.306,293.003 625.5,294.5C 625.205,292.265 625.539,290.265 626.5,288.5 Z"/></g>
<g><path style="opacity:0.953" fill="#e86061" d="M 366.5,289.5 C 368.853,290.34 370.853,291.674 372.5,293.5C 371.391,293.443 370.391,293.11 369.5,292.5C 368.508,292.672 367.842,292.338 367.5,291.5C 367.167,290.833 366.833,290.167 366.5,289.5 Z"/></g>
<g><path style="opacity:0.212" fill="#f3c3c3" d="M 568.5,292.5 C 567.599,294.727 565.933,295.727 563.5,295.5C 564.659,293.75 566.326,292.75 568.5,292.5 Z"/></g>
<g><path style="opacity:0.212" fill="#f1adac" d="M 369.5,292.5 C 370.391,293.11 371.391,293.443 372.5,293.5C 373.167,293.833 373.833,294.167 374.5,294.5C 377.833,296.833 381.167,299.167 384.5,301.5C 382.692,301.509 381.025,301.009 379.5,300C 375.851,297.702 372.518,295.202 369.5,292.5 Z"/></g>
<g><path style="opacity:0.075" fill="#f4cac9" d="M 418.5,285.5 C 422.207,290.247 424.874,295.581 426.5,301.5C 423.849,296.869 421.182,292.202 418.5,287.5C 418.5,286.833 418.5,286.167 418.5,285.5 Z"/></g>
<g><path style="opacity:0.212" fill="#f1aaaa" d="M 559.5,288.5 C 556.012,292.417 551.679,295.083 546.5,296.5C 549.988,292.583 554.321,289.917 559.5,288.5 Z"/></g>
<g><path style="opacity:0.984" fill="#cf5c5d" d="M 296.5,293.5 C 298.223,295.78 298.889,298.447 298.5,301.5C 298.167,301.5 297.833,301.5 297.5,301.5C 297.425,298.794 297.092,296.127 296.5,293.5 Z"/></g>
<g><path style="opacity:0.671" fill="#ef9997" d="M 350.5,290.5 C 354.366,292.264 358.033,294.264 361.5,296.5C 361.833,297.167 362.167,297.833 362.5,298.5C 358.148,296.327 354.148,293.66 350.5,290.5 Z"/></g>
<g><path style="opacity:0.686" fill="#f2c1c1" d="M 563.5,295.5 C 563.027,296.906 562.027,297.573 560.5,297.5C 560.821,295.952 561.821,295.285 563.5,295.5 Z"/></g>
<g><path style="opacity:0.212" fill="#f2bbbb" d="M 361.5,296.5 C 364.493,297.719 367.16,299.386 369.5,301.5C 366.794,301.312 364.461,300.312 362.5,298.5C 362.167,297.833 361.833,297.167 361.5,296.5 Z"/></g>
<g><path style="opacity:0.212" fill="#f3c8c8" d="M 295.5,293.5 C 295.833,293.5 296.167,293.5 296.5,293.5C 297.092,296.127 297.425,298.794 297.5,301.5C 295.751,298.955 295.085,296.288 295.5,293.5 Z"/></g>
<g><path style="opacity:0.075" fill="#f3b8b6" d="M 455.5,278.5 C 455.833,278.5 456.167,278.5 456.5,278.5C 456.858,288.388 456.192,298.055 454.5,307.5C 454.167,307.5 453.833,307.5 453.5,307.5C 454.134,297.828 454.8,288.161 455.5,278.5 Z"/></g>
<g><path style="opacity:0.561" fill="#f09d9c" d="M 560.5,297.5 C 556.953,301.11 552.619,303.443 547.5,304.5C 551.347,301.407 555.68,299.074 560.5,297.5 Z"/></g>
<g><path style="opacity:0.075" fill="#f3c5c4" d="M 371.5,302.5 C 373.179,302.285 374.179,302.952 374.5,304.5C 372.821,304.715 371.821,304.048 371.5,302.5 Z"/></g>
<g><path style="opacity:0.561" fill="#f2b9b9" d="M 384.5,301.5 C 385.609,301.557 386.609,301.89 387.5,302.5C 387.833,303.167 388.167,303.833 388.5,304.5C 386.596,304.262 385.262,303.262 384.5,301.5 Z"/></g>
<g><path style="opacity:0.4" fill="#f3c4c4" d="M 297.5,301.5 C 297.833,301.5 298.167,301.5 298.5,301.5C 299.234,302.708 299.567,304.041 299.5,305.5C 298.326,304.486 297.66,303.153 297.5,301.5 Z"/></g>
<g><path style="opacity:0.31" fill="#f1b3b2" d="M 546.5,296.5 C 545.71,297.794 544.71,298.961 543.5,300C 539.275,302.393 534.942,304.56 530.5,306.5C 530.414,305.504 530.748,304.671 531.5,304C 536.271,301.022 541.271,298.522 546.5,296.5 Z"/></g>
<g><path style="opacity:0.4" fill="#f2bcbc" d="M 437.5,302.5 C 438.906,302.973 439.573,303.973 439.5,305.5C 437.952,305.179 437.285,304.179 437.5,302.5 Z"/></g>
<g><path style="opacity:0.561" fill="#f1adad" d="M 625.5,299.5 C 623.933,304.961 621.6,309.961 618.5,314.5C 620.036,309.097 622.369,304.097 625.5,299.5 Z"/></g>
<g><path style="opacity:0.212" fill="#f3c9c9" d="M 388.5,304.5 C 390.027,304.427 391.027,305.094 391.5,306.5C 389.973,306.573 388.973,305.906 388.5,304.5 Z"/></g>
<g><path style="opacity:0.671" fill="#e86668" d="M 387.5,302.5 C 390.331,303.079 392.664,304.412 394.5,306.5C 393.5,306.5 392.5,306.5 391.5,306.5C 391.027,305.094 390.027,304.427 388.5,304.5C 388.167,303.833 387.833,303.167 387.5,302.5 Z"/></g>
<g><path style="opacity:0.31" fill="#f2b8b7" d="M 426.5,301.5 C 428.873,303.579 430.206,306.246 430.5,309.5C 428.127,307.421 426.794,304.754 426.5,301.5 Z"/></g>
<g><path style="opacity:0.31" fill="#f2b2b1" d="M 500.5,278.5 C 492.71,292.489 484.21,306.156 475,319.5C 471.095,323.92 468.928,323.253 468.5,317.5C 469.167,318.5 469.833,319.5 470.5,320.5C 479.281,310.521 486.781,299.521 493,287.5C 495.417,284.266 497.917,281.266 500.5,278.5 Z"/></g>
<g><path style="opacity:0.561" fill="#f2b6b6" d="M 547.5,304.5 C 546.738,306.262 545.404,307.262 543.5,307.5C 544.262,305.738 545.596,304.738 547.5,304.5 Z"/></g>
<g><path style="opacity:0.31" fill="#f3c3c3" d="M 391.5,306.5 C 392.5,306.5 393.5,306.5 394.5,306.5C 395.694,307.272 396.694,308.272 397.5,309.5C 395.181,309.008 393.181,308.008 391.5,306.5 Z"/></g>
<g><path style="opacity:0.686" fill="#f2b7b6" d="M 299.5,305.5 C 301.25,306.659 302.25,308.326 302.5,310.5C 302.5,310.833 302.5,311.167 302.5,311.5C 300.461,310.089 299.461,308.089 299.5,305.5 Z"/></g>
<g><path style="opacity:0.31" fill="#f3c5c5" d="M 543.5,307.5 C 542.22,308.931 540.553,309.598 538.5,309.5C 539.78,308.069 541.447,307.402 543.5,307.5 Z"/></g>
<g><path style="opacity:0.686" fill="#f2b5b4" d="M 374.5,304.5 C 379.447,306.973 384.447,309.473 389.5,312C 400.608,319.206 411.608,326.373 422.5,333.5C 416.407,330.619 410.407,327.452 404.5,324C 394.223,317.71 384.223,311.21 374.5,304.5 Z"/></g>
<g><path style="opacity:0.4" fill="#ee9d9c" d="M 439.5,305.5 C 441.55,307.237 443.383,309.237 445,311.5C 445.483,312.448 445.649,313.448 445.5,314.5C 444.624,314.631 443.957,314.298 443.5,313.5C 441.703,311.045 440.37,308.378 439.5,305.5 Z"/></g>
<g><path style="opacity:0.561" fill="#f2c0c0" d="M 538.5,309.5 C 537.198,311.822 535.198,313.155 532.5,313.5C 534.147,311.674 536.147,310.34 538.5,309.5 Z"/></g>
<g><path style="opacity:0.31" fill="#efafaf" d="M 397.5,309.5 C 400.614,309.555 402.948,310.888 404.5,313.5C 401.674,313.002 399.34,311.669 397.5,309.5 Z"/></g>
<g><path style="opacity:0.212" fill="#f3c8c7" d="M 302.5,311.5 C 303.401,312.29 304.068,313.29 304.5,314.5C 302.952,314.179 302.285,313.179 302.5,311.5 Z"/></g>
<g><path style="opacity:0.871" fill="#f0a5a4" d="M 500.5,292.5 C 496.639,301.225 492.472,309.892 488,318.5C 486.534,322.109 485.367,325.776 484.5,329.5C 485.5,329.5 486.5,329.5 487.5,329.5C 486.399,330.598 485.066,330.765 483.5,330C 483.167,329 482.833,328 482.5,327C 487.862,315.108 493.862,303.608 500.5,292.5 Z"/></g>
<g><path style="opacity:0.561" fill="#f0a4a3" d="M 430.5,309.5 C 432.362,311.891 433.696,314.558 434.5,317.5C 431.863,315.518 430.53,312.852 430.5,309.5 Z"/></g>
<g><path style="opacity:0.486" fill="#efa4a3" d="M 453.5,307.5 C 453.833,307.5 454.167,307.5 454.5,307.5C 454.25,311.168 454.25,314.668 454.5,318C 451.808,324.052 449.475,323.886 447.5,317.5C 448.67,319.279 450.336,320.279 452.5,320.5C 452.294,316.102 452.627,311.768 453.5,307.5 Z"/></g>
<g><path style="opacity:0.31" fill="#f2bcbc" d="M 530.5,306.5 C 519.988,313.259 508.988,319.259 497.5,324.5C 499.331,322.224 501.664,320.391 504.5,319C 513.067,314.549 521.733,310.383 530.5,306.5 Z"/></g>
<g><path style="opacity:0.212" fill="#f3bfbf" d="M 532.5,313.5 C 531.599,315.727 529.933,316.727 527.5,316.5C 528.659,314.75 530.326,313.75 532.5,313.5 Z"/></g>
<g><path style="opacity:0.31" fill="#f2b7b6" d="M 618.5,314.5 C 618.167,315.5 617.5,316.167 616.5,316.5C 616.5,315.167 617.167,314.5 618.5,314.5 Z"/></g>
<g><path style="opacity:0.31" fill="#f0b0af" d="M 445.5,314.5 C 446.906,314.973 447.573,315.973 447.5,317.5C 446.094,317.027 445.427,316.027 445.5,314.5 Z"/></g>
<g><path style="opacity:0.561" fill="#efa7a5" d="M 406.5,314.5 C 408.858,314.253 410.858,314.919 412.5,316.5C 412.833,317.167 413.167,317.833 413.5,318.5C 410.996,317.416 408.663,316.083 406.5,314.5 Z"/></g>
<g><path style="opacity:0.969" fill="#e77471" d="M 468.5,305.5 C 469.487,310.32 470.153,315.32 470.5,320.5C 469.833,319.5 469.167,318.5 468.5,317.5C 468.5,316.5 468.5,315.5 468.5,314.5C 468.5,311.5 468.5,308.5 468.5,305.5 Z"/></g>
<g><path style="opacity:0.29" fill="#de7c7b" d="M 302.5,311.5 C 302.5,311.167 302.5,310.833 302.5,310.5C 303.376,310.369 304.043,310.702 304.5,311.5C 306.143,314.445 307.476,317.445 308.5,320.5C 306.782,318.777 305.449,316.777 304.5,314.5C 304.068,313.29 303.401,312.29 302.5,311.5 Z"/></g>
<g><path style="opacity:0.953" fill="#ec6b6a" d="M 412.5,316.5 C 414.819,316.992 416.819,317.992 418.5,319.5C 417.5,319.5 416.5,319.5 415.5,319.5C 414.508,319.672 413.842,319.338 413.5,318.5C 413.167,317.833 412.833,317.167 412.5,316.5 Z"/></g>
<g><path style="opacity:0.686" fill="#f2bfbf" d="M 527.5,316.5 C 527.027,317.906 526.027,318.573 524.5,318.5C 524.973,317.094 525.973,316.427 527.5,316.5 Z"/></g>
<g><path style="opacity:0.4" fill="#f0acab" d="M 524.5,318.5 C 519.949,323.044 514.616,326.377 508.5,328.5C 508.953,327.542 509.619,326.708 510.5,326C 515.075,323.242 519.742,320.742 524.5,318.5 Z"/></g>
<g><path style="opacity:0.212" fill="#f3c5c5" d="M 415.5,319.5 C 416.5,319.5 417.5,319.5 418.5,319.5C 419.306,320.728 420.306,321.728 421.5,322.5C 418.911,322.539 416.911,321.539 415.5,319.5 Z"/></g>
<g><path style="opacity:0.075" fill="#f2bbba" d="M 308.5,320.5 C 310.649,322.046 312.816,323.712 315,325.5C 315.464,326.094 315.631,326.761 315.5,327.5C 312.189,326.189 309.855,323.855 308.5,320.5 Z"/></g>
<g><path style="opacity:0.561" fill="#f1b4b3" d="M 421.5,322.5 C 425.272,322.884 428.272,324.55 430.5,327.5C 427.008,326.59 424.008,324.924 421.5,322.5 Z"/></g>
<g><path style="opacity:0.212" fill="#f3c4c4" d="M 497.5,324.5 C 495.97,326.346 493.97,327.346 491.5,327.5C 491.5,327.167 491.5,326.833 491.5,326.5C 493.297,325.27 495.297,324.604 497.5,324.5 Z"/></g>
<g><path style="opacity:0.671" fill="#eb8a8a" d="M 491.5,326.5 C 491.5,326.833 491.5,327.167 491.5,327.5C 490.486,328.674 489.153,329.34 487.5,329.5C 488.035,327.554 489.368,326.554 491.5,326.5 Z"/></g>
<g><path style="opacity:0.561" fill="#f2bcbc" d="M 435.5,319.5 C 438.187,322.337 439.687,325.671 440,329.5C 436.383,330.943 433.217,330.277 430.5,327.5C 433.33,327.694 435.996,328.361 438.5,329.5C 437.439,326.136 436.439,322.803 435.5,319.5 Z"/></g>
<g><path style="opacity:0.212" fill="#f2c2c2" d="M 616.5,316.5 C 613.887,322.113 609.887,326.446 604.5,329.5C 608.528,325.141 612.528,320.807 616.5,316.5 Z"/></g>
<g><path style="opacity:0.686" fill="#f2b7b7" d="M 315.5,327.5 C 317.749,328.08 319.415,329.413 320.5,331.5C 318.251,330.92 316.585,329.587 315.5,327.5 Z"/></g>
<g><path style="opacity:0.561" fill="#f2bfbe" d="M 508.5,328.5 C 506.664,330.588 504.331,331.921 501.5,332.5C 503.336,330.412 505.669,329.079 508.5,328.5 Z"/></g>
<g><path style="opacity:0.953" fill="#f19896" d="M 604.5,329.5 C 602.704,331.9 600.37,333.567 597.5,334.5C 597.5,333.5 597.5,332.5 597.5,331.5C 600.108,331.6 602.442,330.933 604.5,329.5 Z"/></g>
<g><path style="opacity:0.4" fill="#f3c3c3" d="M 320.5,331.5 C 322.027,331.427 323.027,332.094 323.5,333.5C 321.973,333.573 320.973,332.906 320.5,331.5 Z"/></g>
<g><path style="opacity:0.212" fill="#f2bfbf" d="M 323.5,333.5 C 324.167,333.5 324.833,333.5 325.5,333.5C 325.833,334.167 326.167,334.833 326.5,335.5C 324.973,335.573 323.973,334.906 323.5,333.5 Z"/></g>
<g><path style="opacity:0.212" fill="#f2b6b5" d="M 422.5,333.5 C 425.004,335.144 427.671,336.644 430.5,338C 431.252,338.671 431.586,339.504 431.5,340.5C 427.64,339.311 424.64,336.977 422.5,333.5 Z"/></g>
<g><path style="opacity:0.871" fill="#e47e7e" d="M 325.5,333.5 C 328.004,334.584 330.337,335.917 332.5,337.5C 332.167,337.5 331.833,337.5 331.5,337.5C 329.597,337.204 327.93,336.537 326.5,335.5C 326.167,334.833 325.833,334.167 325.5,333.5 Z"/></g>
<g><path style="opacity:0.686" fill="#f2bbba" d="M 501.5,332.5 C 499.725,335.211 497.391,337.211 494.5,338.5C 493.833,338.5 493.167,338.5 492.5,338.5C 494.975,335.759 497.975,333.759 501.5,332.5 Z"/></g>
<g><path style="opacity:0.212" fill="#f2b2b0" d="M 597.5,334.5 C 596.089,336.539 594.089,337.539 591.5,337.5C 592.607,335.031 594.607,334.031 597.5,334.5 Z"/></g>
<g><path style="opacity:0.075" fill="#f3c6c6" d="M 331.5,337.5 C 331.833,337.5 332.167,337.5 332.5,337.5C 333.708,338.234 335.041,338.567 336.5,338.5C 337.167,339.167 337.833,339.833 338.5,340.5C 335.654,340.448 333.32,339.448 331.5,337.5 Z"/></g>
<g><path style="opacity:0.871" fill="#d46767" d="M 336.5,338.5 C 340.479,338.742 344.146,339.742 347.5,341.5C 347.5,341.833 347.5,342.167 347.5,342.5C 347.167,342.5 346.833,342.5 346.5,342.5C 345.469,341.751 344.302,341.085 343,340.5C 342.601,340.728 342.435,341.062 342.5,341.5C 340.901,341.768 339.568,341.434 338.5,340.5C 337.833,339.833 337.167,339.167 336.5,338.5 Z"/></g>
<g><path style="opacity:0.969" fill="#e7585c" d="M 492.5,338.5 C 493.167,338.5 493.833,338.5 494.5,338.5C 494.389,339.117 494.056,339.617 493.5,340C 521.498,340.5 549.498,340.667 577.5,340.5C 549.338,341.498 521.005,341.831 492.5,341.5C 492.5,340.5 492.5,339.5 492.5,338.5 Z"/></g>
<g><path style="opacity:0.212" fill="#f3cac9" d="M 346.5,342.5 C 344.901,342.768 343.568,342.434 342.5,341.5C 342.435,341.062 342.601,340.728 343,340.5C 344.302,341.085 345.469,341.751 346.5,342.5 Z"/></g>
<g><path style="opacity:0.686" fill="#f1b7b7" d="M 591.5,337.5 C 586.025,340.669 580.025,342.336 573.5,342.5C 546.328,342.831 519.328,342.498 492.5,341.5C 521.005,341.831 549.338,341.498 577.5,340.5C 582.257,339.81 586.924,338.81 591.5,337.5 Z"/></g>
<g><path style="opacity:0.075" fill="#f4d2d2" d="M 347.5,341.5 C 348.5,341.5 349.5,341.5 350.5,341.5C 376.833,342.833 403.167,342.833 429.5,341.5C 430.167,341.5 430.833,341.5 431.5,341.5C 405.947,343.171 380.114,344.171 354,344.5C 351.723,343.883 349.556,343.216 347.5,342.5C 347.5,342.167 347.5,341.833 347.5,341.5 Z"/></g>
<g><path style="opacity:0.075" fill="#f4d3d3" d="M 492.5,338.5 C 492.5,339.5 492.5,340.5 492.5,341.5C 519.328,342.498 546.328,342.831 573.5,342.5C 567.766,343.186 561.933,343.852 556,344.5C 537.808,343.229 519.808,343.229 502,344.5C 498.589,343.707 495.089,343.207 491.5,343C 489.957,340.955 490.29,339.455 492.5,338.5 Z"/></g>
<g><path style="opacity:0.847" fill="#f1b8b6" d="M 429.5,349.5 C 428.833,349.5 428.167,349.5 427.5,349.5C 425.833,349.5 424.167,349.5 422.5,349.5C 421.209,349.737 420.209,349.404 419.5,348.5C 422.304,347.362 425.304,347.195 428.5,348C 429.056,348.383 429.389,348.883 429.5,349.5 Z"/></g>
<g><path style="opacity:0.576" fill="#f0adad" d="M 418.5,348.5 C 415.5,349.167 412.5,349.833 409.5,350.5C 404.167,350.5 398.833,350.5 393.5,350.5C 388.167,350.5 382.833,350.5 377.5,350.5C 390.984,349.265 404.651,348.599 418.5,348.5 Z"/></g>
<g><path style="opacity:0.953" fill="#e55859" d="M 418.5,348.5 C 418.833,348.5 419.167,348.5 419.5,348.5C 420.209,349.404 421.209,349.737 422.5,349.5C 418.366,350.485 414.032,350.818 409.5,350.5C 412.5,349.833 415.5,349.167 418.5,348.5 Z"/></g>
<g><path style="opacity:0.636" fill="#f1b0af" d="M 547.5,350.5 C 547.5,350.833 547.5,351.167 547.5,351.5C 535.183,350.715 522.85,350.382 510.5,350.5C 504.987,349.184 499.32,349.184 493.5,350.5C 493.624,351.107 493.957,351.44 494.5,351.5C 495.551,352.222 496.218,353.222 496.5,354.5C 492.83,353.807 491.83,351.807 493.5,348.5C 494.772,347.954 496.106,347.621 497.5,347.5C 514.171,348.561 530.837,349.561 547.5,350.5 Z"/></g>
<g><path style="opacity:0.953" fill="#e75256" d="M 510.5,350.5 C 504.974,350.179 499.64,350.512 494.5,351.5C 493.957,351.44 493.624,351.107 493.5,350.5C 499.32,349.184 504.987,349.184 510.5,350.5 Z"/></g>
<g><path style="opacity:0.075" fill="#f3c4c2" d="M 371.5,350.5 C 371.5,350.833 371.5,351.167 371.5,351.5C 371.167,351.5 370.833,351.5 370.5,351.5C 359.15,351.407 347.817,351.741 336.5,352.5C 336.5,352.167 336.5,351.833 336.5,351.5C 347.988,350.505 359.655,350.172 371.5,350.5 Z"/></g>
<g><path style="opacity:1" fill="#cb191e" d="M 422.5,349.5 C 424.167,349.5 425.833,349.5 427.5,349.5C 427.611,350.117 427.944,350.617 428.5,351C 424.099,354.188 419.766,357.355 415.5,360.5C 411.09,361.889 407.59,360.556 405,356.5C 404.667,357.167 404.333,357.833 404,358.5C 401.775,357.061 399.775,355.394 398,353.5C 397.667,353.833 397.333,354.167 397,354.5C 396.517,353.552 396.351,352.552 396.5,351.5C 395.209,351.737 394.209,351.404 393.5,350.5C 398.833,350.5 404.167,350.5 409.5,350.5C 414.032,350.818 418.366,350.485 422.5,349.5 Z"/></g>
<g><path style="opacity:1" fill="#d71e22" d="M 510.5,350.5 C 522.85,350.382 535.183,350.715 547.5,351.5C 560.181,351.405 572.848,351.739 585.5,352.5C 585.5,352.833 585.5,353.167 585.5,353.5C 583.075,353.684 583.075,354.351 585.5,355.5C 584.965,357.271 584.131,357.604 583,356.5C 582.333,359.167 581.667,359.167 581,356.5C 579.667,357.167 578.667,358.167 578,359.5C 577.586,359.043 577.086,358.709 576.5,358.5C 574.468,360.831 572.301,362.164 570,362.5C 569.026,360.122 568.359,360.456 568,363.5C 567.667,362.5 567.333,361.5 567,360.5C 565.961,363.877 564.461,364.543 562.5,362.5C 560.082,363.457 557.916,364.791 556,366.5C 555.333,362.5 554.667,362.5 554,366.5C 553.333,363.833 552.667,363.833 552,366.5C 550.309,363.869 549.142,364.203 548.5,367.5C 547.522,367.023 546.689,366.357 546,365.5C 546.685,369.311 545.518,369.978 542.5,367.5C 541.086,368.624 539.586,369.624 538,370.5C 536,369.167 534,369.167 532,370.5C 531.374,368.009 530.541,368.009 529.5,370.5C 528.914,370.291 528.414,369.957 528,369.5C 527.805,370.819 527.972,372.153 528.5,373.5C 527.5,373.5 526.5,373.5 525.5,373.5C 524.71,372.206 523.71,371.039 522.5,370C 519.766,367.966 516.766,366.466 513.5,365.5C 511.157,363.328 508.49,361.661 505.5,360.5C 504.198,358.178 502.198,356.845 499.5,356.5C 499.027,355.094 498.027,354.427 496.5,354.5C 496.218,353.222 495.551,352.222 494.5,351.5C 499.64,350.512 504.974,350.179 510.5,350.5 Z"/></g>
<g><path style="opacity:0.075" fill="#f3c3c2" d="M 547.5,351.5 C 547.5,351.167 547.5,350.833 547.5,350.5C 560.246,350.187 572.913,350.52 585.5,351.5C 585.5,351.833 585.5,352.167 585.5,352.5C 572.848,351.739 560.181,351.405 547.5,351.5 Z"/></g>
<g><path style="opacity:0.29" fill="#d6686a" d="M 329.5,351.5 C 331.833,351.5 334.167,351.5 336.5,351.5C 336.5,351.833 336.5,352.167 336.5,352.5C 333.166,352.383 329.833,353.049 326.5,354.5C 325.957,354.44 325.624,354.107 325.5,353.5C 326.949,352.828 328.282,352.161 329.5,351.5 Z"/></g>
<g><path style="opacity:1" fill="#ae1015" d="M 370.5,351.5 C 370.833,351.5 371.167,351.5 371.5,351.5C 374.685,351.02 377.519,351.686 380,353.5C 380.333,353.167 380.667,352.833 381,352.5C 386.619,356.771 392.285,361.105 398,365.5C 399.808,365.112 401.475,365.112 403,365.5C 403.483,366.448 403.649,367.448 403.5,368.5C 400.883,369.786 398.55,371.453 396.5,373.5C 396.167,373.5 395.833,373.5 395.5,373.5C 394.402,372.603 394.402,371.77 395.5,371C 394.24,369.887 393.073,369.72 392,370.5C 391.333,369.167 390.667,367.833 390,366.5C 389.333,369.167 388.667,369.167 388,366.5C 385.772,367.299 384.439,366.299 384,363.5C 383.667,364.167 383.333,364.833 383,365.5C 381,363.5 379,361.5 377,359.5C 376.667,359.833 376.333,360.167 376,360.5C 374.199,357.837 371.699,356.003 368.5,355C 368.043,354.586 367.709,354.086 367.5,353.5C 368.602,352.824 369.602,352.158 370.5,351.5 Z"/></g>
<g><path style="opacity:1" fill="#bf2021" d="M 371.5,351.5 C 371.5,351.167 371.5,350.833 371.5,350.5C 373.5,350.5 375.5,350.5 377.5,350.5C 382.833,350.5 388.167,350.5 393.5,350.5C 394.209,351.404 395.209,351.737 396.5,351.5C 396.351,352.552 396.517,353.552 397,354.5C 397.333,354.167 397.667,353.833 398,353.5C 399.775,355.394 401.775,357.061 404,358.5C 404.333,357.833 404.667,357.167 405,356.5C 407.59,360.556 411.09,361.889 415.5,360.5C 415.5,360.833 415.5,361.167 415.5,361.5C 412.733,361.87 410.733,363.204 409.5,365.5C 407.216,365.975 405.216,366.975 403.5,368.5C 403.649,367.448 403.483,366.448 403,365.5C 401.475,365.112 399.808,365.112 398,365.5C 392.285,361.105 386.619,356.771 381,352.5C 380.667,352.833 380.333,353.167 380,353.5C 377.519,351.686 374.685,351.02 371.5,351.5 Z"/></g>
<g><path style="opacity:0.31" fill="#f2b8b8" d="M 329.5,351.5 C 328.282,352.161 326.949,352.828 325.5,353.5C 325.624,354.107 325.957,354.44 326.5,354.5C 329.903,358.29 332.569,362.624 334.5,367.5C 329.631,363.089 326.298,357.756 324.5,351.5C 326.167,351.5 327.833,351.5 329.5,351.5 Z"/></g>
<g><path style="opacity:1" fill="#9e0e0f" d="M 370.5,351.5 C 369.602,352.158 368.602,352.824 367.5,353.5C 367.709,354.086 368.043,354.586 368.5,355C 371.699,356.003 374.199,357.837 376,360.5C 376.333,360.167 376.667,359.833 377,359.5C 379,361.5 381,363.5 383,365.5C 383.333,364.833 383.667,364.167 384,363.5C 384.439,366.299 385.772,367.299 388,366.5C 388.667,369.167 389.333,369.167 390,366.5C 390.667,367.833 391.333,369.167 392,370.5C 393.073,369.72 394.24,369.887 395.5,371C 394.402,371.77 394.402,372.603 395.5,373.5C 388.431,377.367 381.097,380.7 373.5,383.5C 369.154,383.666 364.821,383.499 360.5,383C 356.144,381.485 351.81,379.985 347.5,378.5C 347.027,377.094 346.027,376.427 344.5,376.5C 341.795,372.795 338.462,369.795 334.5,367.5C 332.569,362.624 329.903,358.29 326.5,354.5C 329.833,353.049 333.166,352.383 336.5,352.5C 347.817,351.741 359.15,351.407 370.5,351.5 Z"/></g>
<g><path style="opacity:0.953" fill="#e0585b" d="M 585.5,351.5 C 587.5,351.5 589.5,351.5 591.5,351.5C 592.5,352.167 593.5,352.833 594.5,353.5C 591.5,353.5 588.5,353.5 585.5,353.5C 585.5,353.167 585.5,352.833 585.5,352.5C 585.5,352.167 585.5,351.833 585.5,351.5 Z"/></g>
<g><path style="opacity:1" fill="#c8171c" d="M 585.5,353.5 C 588.5,353.5 591.5,353.5 594.5,353.5C 595.239,353.369 595.906,353.536 596.5,354C 593.12,357.21 590.787,361.043 589.5,365.5C 588.128,366.512 586.795,367.512 585.5,368.5C 583.799,368.966 582.299,368.966 581,368.5C 580.667,369.167 580.333,369.833 580,370.5C 578.94,370.746 577.773,370.746 576.5,370.5C 575.186,371.313 574.019,372.313 573,373.5C 572.667,372.833 572.333,372.167 572,371.5C 571.558,373.679 570.558,374.345 569,373.5C 568.333,374.167 567.667,374.833 567,375.5C 564.812,374.553 562.478,374.553 560,375.5C 557.333,376.833 554.667,378.167 552,379.5C 549.333,378.167 546.667,378.167 544,379.5C 543.722,380.416 543.222,381.082 542.5,381.5C 541.391,381.443 540.391,381.11 539.5,380.5C 538.365,378.787 536.698,378.12 534.5,378.5C 533.167,377.5 531.833,376.5 530.5,375.5C 530.167,374.5 529.5,373.833 528.5,373.5C 527.972,372.153 527.805,370.819 528,369.5C 528.414,369.957 528.914,370.291 529.5,370.5C 530.541,368.009 531.374,368.009 532,370.5C 534,369.167 536,369.167 538,370.5C 539.586,369.624 541.086,368.624 542.5,367.5C 545.518,369.978 546.685,369.311 546,365.5C 546.689,366.357 547.522,367.023 548.5,367.5C 549.142,364.203 550.309,363.869 552,366.5C 552.667,363.833 553.333,363.833 554,366.5C 554.667,362.5 555.333,362.5 556,366.5C 557.916,364.791 560.082,363.457 562.5,362.5C 564.461,364.543 565.961,363.877 567,360.5C 567.333,361.5 567.667,362.5 568,363.5C 568.359,360.456 569.026,360.122 570,362.5C 572.301,362.164 574.468,360.831 576.5,358.5C 577.086,358.709 577.586,359.043 578,359.5C 578.667,358.167 579.667,357.167 581,356.5C 581.667,359.167 582.333,359.167 583,356.5C 584.131,357.604 584.965,357.271 585.5,355.5C 583.075,354.351 583.075,353.684 585.5,353.5 Z"/></g>
<g><path style="opacity:0.561" fill="#f1aeac" d="M 591.5,351.5 C 593.833,351.5 596.167,351.5 598.5,351.5C 596.511,356.809 593.511,361.476 589.5,365.5C 590.787,361.043 593.12,357.21 596.5,354C 595.906,353.536 595.239,353.369 594.5,353.5C 593.5,352.833 592.5,352.167 591.5,351.5 Z"/></g>
<g><path style="opacity:0.31" fill="#f3c6c6" d="M 496.5,354.5 C 498.027,354.427 499.027,355.094 499.5,356.5C 497.973,356.573 496.973,355.906 496.5,354.5 Z"/></g>
<g><path style="opacity:0.4" fill="#f2b5b5" d="M 499.5,356.5 C 502.198,356.845 504.198,358.178 505.5,360.5C 503.147,359.66 501.147,358.326 499.5,356.5 Z"/></g>
<g><path style="opacity:0.561" fill="#f1a9a8" d="M 427.5,349.5 C 428.167,349.5 428.833,349.5 429.5,349.5C 430.043,349.56 430.376,349.893 430.5,350.5C 426.367,355.395 421.367,359.062 415.5,361.5C 415.5,361.167 415.5,360.833 415.5,360.5C 419.766,357.355 424.099,354.188 428.5,351C 427.944,350.617 427.611,350.117 427.5,349.5 Z"/></g>
<g><path style="opacity:0.075" fill="#f2bdbd" d="M 415.5,361.5 C 413.966,363.369 411.966,364.702 409.5,365.5C 410.733,363.204 412.733,361.87 415.5,361.5 Z"/></g>
<g><path style="opacity:0.212" fill="#f2b3b3" d="M 505.5,360.5 C 508.49,361.661 511.157,363.328 513.5,365.5C 510.151,364.831 507.484,363.164 505.5,360.5 Z"/></g>
<g><path style="opacity:0.671" fill="#f0a4a3" d="M 334.5,367.5 C 338.462,369.795 341.795,372.795 344.5,376.5C 340.564,374.234 337.231,371.234 334.5,367.5 Z"/></g>
<g><path style="opacity:0.561" fill="#f2bcbb" d="M 589.5,365.5 C 588.92,367.749 587.587,369.415 585.5,370.5C 585.5,369.833 585.5,369.167 585.5,368.5C 586.795,367.512 588.128,366.512 589.5,365.5 Z"/></g>
<g><path style="opacity:0.212" fill="#f2b9b8" d="M 409.5,365.5 C 405.673,368.995 401.34,371.661 396.5,373.5C 398.55,371.453 400.883,369.786 403.5,368.5C 405.216,366.975 407.216,365.975 409.5,365.5 Z"/></g>
<g><path style="opacity:1" fill="#bf2021" d="M 585.5,368.5 C 585.5,369.167 585.5,369.833 585.5,370.5C 579.001,374.811 572.335,378.978 565.5,383C 561.805,383.318 558.138,383.818 554.5,384.5C 550.232,384.046 546.232,383.046 542.5,381.5C 543.222,381.082 543.722,380.416 544,379.5C 546.667,378.167 549.333,378.167 552,379.5C 554.667,378.167 557.333,376.833 560,375.5C 562.478,374.553 564.812,374.553 567,375.5C 567.667,374.833 568.333,374.167 569,373.5C 570.558,374.345 571.558,373.679 572,371.5C 572.333,372.167 572.667,372.833 573,373.5C 574.019,372.313 575.186,371.313 576.5,370.5C 577.773,370.746 578.94,370.746 580,370.5C 580.333,369.833 580.667,369.167 581,368.5C 582.299,368.966 583.799,368.966 585.5,368.5 Z"/></g>
<g><path style="opacity:0.914" fill="#f19e9c" d="M 513.5,365.5 C 516.766,366.466 519.766,367.966 522.5,370C 523.71,371.039 524.71,372.206 525.5,373.5C 520.678,372.002 516.678,369.336 513.5,365.5 Z"/></g>
<g><path style="opacity:0.953" fill="#ec8080" d="M 525.5,373.5 C 526.5,373.5 527.5,373.5 528.5,373.5C 529.5,373.833 530.167,374.5 530.5,375.5C 530.167,375.5 529.833,375.5 529.5,375.5C 527.847,375.34 526.514,374.674 525.5,373.5 Z"/></g>
<g><path style="opacity:0.075" fill="#f4cccc" d="M 529.5,375.5 C 529.833,375.5 530.167,375.5 530.5,375.5C 531.833,376.5 533.167,377.5 534.5,378.5C 531.966,378.741 530.3,377.741 529.5,375.5 Z"/></g>
<g><path style="opacity:0.4" fill="#f3c3c3" d="M 344.5,376.5 C 346.027,376.427 347.027,377.094 347.5,378.5C 345.973,378.573 344.973,377.906 344.5,376.5 Z"/></g>
<g><path style="opacity:0.075" fill="#f1b2b1" d="M 395.5,373.5 C 395.833,373.5 396.167,373.5 396.5,373.5C 396.047,374.458 395.381,375.292 394.5,376C 387.819,379.557 380.986,382.724 374,385.5C 373.601,385.272 373.435,384.938 373.5,384.5C 373.5,384.167 373.5,383.833 373.5,383.5C 381.097,380.7 388.431,377.367 395.5,373.5 Z"/></g>
<g><path style="opacity:0.914" fill="#e58a89" d="M 534.5,378.5 C 536.698,378.12 538.365,378.787 539.5,380.5C 539.167,380.5 538.833,380.5 538.5,380.5C 537.005,380.011 535.671,379.345 534.5,378.5 Z"/></g>
<g><path style="opacity:0.871" fill="#e99291" d="M 347.5,378.5 C 351.81,379.985 356.144,381.485 360.5,383C 364.821,383.499 369.154,383.666 373.5,383.5C 373.5,383.833 373.5,384.167 373.5,384.5C 363.585,386.274 354.918,384.274 347.5,378.5 Z"/></g>
<g><path style="opacity:0.686" fill="#f2b6b5" d="M 585.5,370.5 C 578.099,378.39 569.099,383.556 558.5,386C 553.378,386.473 548.378,385.806 543.5,384C 541.416,383.303 539.749,382.136 538.5,380.5C 538.833,380.5 539.167,380.5 539.5,380.5C 540.391,381.11 541.391,381.443 542.5,381.5C 546.232,383.046 550.232,384.046 554.5,384.5C 558.138,383.818 561.805,383.318 565.5,383C 572.335,378.978 579.001,374.811 585.5,370.5 Z"/></g>
</svg>
