<?xml version="1.0" encoding="utf-8" ?>
<svg baseProfile="full" height="225px" version="1.1" viewBox="0 0 225 225" width="225px" xmlns="http://www.w3.org/2000/svg" xmlns:ev="http://www.w3.org/2001/xml-events" xmlns:xlink="http://www.w3.org/1999/xlink"><defs /><path d="M 171,155 L 171,176 L 175,176 L 175,155 Z" fill="#e12127" stroke="none" /><path d="M 156,155 L 155,156 L 153,156 L 149,160 L 149,163 L 148,164 L 148,167 L 149,168 L 149,171 L 153,175 L 155,175 L 156,176 L 166,176 L 166,172 L 156,172 L 154,170 L 154,168 L 155,167 L 166,167 L 166,164 L 155,164 L 154,163 L 154,161 L 156,159 L 166,159 L 166,155 Z" fill="#e12127" stroke="none" /><path d="M 113,155 L 113,156 L 114,157 L 114,159 L 115,160 L 115,162 L 116,163 L 116,164 L 117,165 L 117,167 L 118,168 L 118,170 L 119,171 L 119,173 L 120,174 L 120,175 L 121,176 L 126,176 L 126,174 L 127,173 L 127,170 L 128,169 L 128,167 L 129,166 L 129,163 L 130,162 L 131,163 L 131,164 L 132,165 L 132,167 L 133,168 L 133,171 L 134,172 L 134,174 L 135,175 L 135,176 L 140,176 L 141,175 L 141,173 L 142,172 L 142,170 L 143,169 L 143,167 L 144,166 L 144,164 L 145,163 L 145,161 L 146,160 L 146,158 L 147,157 L 147,155 L 143,155 L 142,156 L 142,159 L 141,160 L 141,162 L 140,163 L 140,165 L 139,166 L 139,169 L 138,170 L 137,169 L 137,167 L 136,166 L 136,164 L 135,163 L 135,161 L 134,160 L 134,158 L 133,157 L 133,155 L 128,155 L 127,156 L 127,158 L 126,159 L 126,162 L 125,163 L 125,166 L 124,167 L 124,169 L 123,170 L 122,169 L 122,167 L 121,166 L 121,164 L 120,163 L 120,161 L 119,160 L 119,158 L 118,157 L 118,155 Z" fill="#e12127" stroke="none" /><path d="M 102,155 L 101,156 L 101,157 L 100,158 L 100,159 L 99,160 L 99,161 L 98,162 L 98,164 L 97,165 L 97,166 L 96,167 L 96,168 L 95,169 L 95,170 L 94,171 L 94,172 L 93,173 L 93,174 L 92,175 L 92,176 L 97,176 L 97,175 L 98,174 L 98,172 L 99,171 L 108,171 L 110,173 L 110,175 L 111,176 L 116,176 L 116,175 L 115,174 L 115,173 L 114,172 L 114,171 L 113,170 L 113,169 L 112,168 L 112,167 L 111,166 L 111,165 L 110,164 L 110,163 L 109,162 L 109,160 L 108,159 L 108,158 L 107,157 L 107,156 L 106,155 Z" fill="#e12127" stroke="none" /><path d="M 72,155 L 72,171 L 73,172 L 73,173 L 74,174 L 75,174 L 76,175 L 77,175 L 78,176 L 85,176 L 86,175 L 88,175 L 91,172 L 91,155 L 87,155 L 87,169 L 86,170 L 86,171 L 85,172 L 84,172 L 83,173 L 80,173 L 79,172 L 78,172 L 77,171 L 77,156 L 76,155 Z" fill="#e12127" stroke="none" /><path d="M 49,155 L 49,176 L 53,176 L 53,168 L 54,167 L 63,167 L 64,168 L 64,176 L 68,176 L 68,155 L 64,155 L 64,163 L 63,164 L 54,164 L 53,163 L 53,155 Z" fill="#e12127" stroke="none" /><path d="M 125,132 L 127,134 L 128,134 L 130,136 L 131,136 L 133,138 L 134,138 L 136,140 L 137,140 L 138,141 L 139,141 L 141,143 L 143,143 L 144,144 L 145,144 L 146,145 L 150,145 L 151,144 L 153,144 L 154,143 L 155,143 L 156,142 L 157,142 L 162,137 L 162,136 L 164,134 L 164,133 L 154,133 L 153,132 Z" fill="#e12127" stroke="none" /><path d="M 71,132 L 70,133 L 60,133 L 60,134 L 62,136 L 62,137 L 67,142 L 68,142 L 69,143 L 70,143 L 71,144 L 73,144 L 74,145 L 77,145 L 78,144 L 80,144 L 81,143 L 82,143 L 83,142 L 84,142 L 85,141 L 86,141 L 87,140 L 88,140 L 90,138 L 91,138 L 93,136 L 94,136 L 96,134 L 97,134 L 99,132 Z" fill="#e12127" stroke="none" /><path d="M 175,98 L 174,99 L 173,99 L 172,100 L 171,100 L 170,101 L 169,101 L 168,102 L 167,102 L 166,103 L 165,103 L 163,105 L 162,105 L 161,106 L 160,106 L 159,107 L 158,107 L 156,109 L 155,109 L 154,110 L 153,110 L 152,111 L 151,111 L 149,113 L 148,113 L 147,114 L 146,114 L 145,115 L 144,115 L 142,117 L 141,117 L 140,118 L 139,118 L 137,120 L 136,120 L 135,121 L 134,121 L 132,123 L 131,123 L 129,125 L 128,125 L 127,126 L 126,126 L 124,128 L 159,128 L 160,127 L 162,127 L 163,126 L 164,126 L 166,124 L 167,124 L 172,119 L 172,118 L 173,117 L 173,116 L 174,115 L 174,114 L 175,113 L 175,111 L 176,110 L 176,100 L 175,99 Z" fill="#e12127" stroke="none" /><path d="M 49,98 L 49,99 L 48,100 L 48,110 L 49,111 L 49,113 L 50,114 L 50,115 L 51,116 L 51,117 L 52,118 L 52,119 L 57,124 L 58,124 L 60,126 L 61,126 L 62,127 L 64,127 L 65,128 L 100,128 L 98,126 L 97,126 L 96,125 L 95,125 L 93,123 L 92,123 L 90,121 L 89,121 L 88,120 L 87,120 L 85,118 L 84,118 L 83,117 L 82,117 L 80,115 L 79,115 L 78,114 L 77,114 L 76,113 L 75,113 L 73,111 L 72,111 L 71,110 L 70,110 L 69,109 L 68,109 L 66,107 L 65,107 L 64,106 L 63,106 L 62,105 L 61,105 L 60,104 L 59,104 L 57,102 L 56,102 L 55,101 L 54,101 L 53,100 L 52,100 L 51,99 L 50,99 Z" fill="#e12127" stroke="none" /><path d="M 156,66 L 154,68 L 154,69 L 151,72 L 151,73 L 148,76 L 148,77 L 146,79 L 146,80 L 144,82 L 144,83 L 142,85 L 142,86 L 140,88 L 140,89 L 138,91 L 138,92 L 137,93 L 137,94 L 135,96 L 135,97 L 134,98 L 134,99 L 132,101 L 132,102 L 131,103 L 131,104 L 130,105 L 130,106 L 128,108 L 128,109 L 127,110 L 127,111 L 126,112 L 126,113 L 125,114 L 125,115 L 124,116 L 124,117 L 123,118 L 123,119 L 122,120 L 122,121 L 121,122 L 121,123 L 123,123 L 124,122 L 125,122 L 126,121 L 127,121 L 128,120 L 129,120 L 130,119 L 131,119 L 132,118 L 133,118 L 135,116 L 136,116 L 137,115 L 138,115 L 139,114 L 140,114 L 142,112 L 143,112 L 144,111 L 145,111 L 147,109 L 148,109 L 150,107 L 151,107 L 153,105 L 154,105 L 158,101 L 159,101 L 163,97 L 163,96 L 165,94 L 165,93 L 166,92 L 166,90 L 167,89 L 167,82 L 166,81 L 166,79 L 165,78 L 165,76 L 163,74 L 163,73 L 162,72 L 162,71 L 157,66 Z" fill="#e12127" stroke="none" /><path d="M 67,66 L 63,70 L 63,71 L 61,73 L 61,74 L 60,75 L 60,76 L 59,77 L 59,78 L 58,79 L 58,81 L 57,82 L 57,89 L 58,90 L 58,92 L 59,93 L 59,94 L 61,96 L 61,97 L 65,101 L 66,101 L 70,105 L 71,105 L 73,107 L 74,107 L 76,109 L 77,109 L 79,111 L 80,111 L 81,112 L 82,112 L 84,114 L 85,114 L 86,115 L 87,115 L 88,116 L 89,116 L 91,118 L 92,118 L 93,119 L 94,119 L 95,120 L 96,120 L 97,121 L 98,121 L 99,122 L 100,122 L 101,123 L 102,123 L 103,124 L 103,122 L 102,121 L 102,120 L 101,119 L 101,118 L 100,117 L 100,116 L 99,115 L 99,114 L 98,113 L 98,112 L 97,111 L 97,110 L 96,109 L 96,108 L 94,106 L 94,105 L 93,104 L 93,103 L 92,102 L 92,101 L 90,99 L 90,98 L 89,97 L 89,96 L 87,94 L 87,93 L 86,92 L 86,91 L 84,89 L 84,88 L 82,86 L 82,85 L 80,83 L 80,82 L 78,80 L 78,79 L 76,77 L 76,76 L 73,73 L 73,72 L 70,69 L 70,68 L 68,66 Z" fill="#e12127" stroke="none" /><path d="M 122,48 L 120,50 L 120,52 L 119,53 L 119,54 L 118,55 L 118,58 L 117,59 L 117,62 L 116,63 L 116,68 L 115,69 L 115,76 L 114,77 L 114,107 L 115,108 L 115,119 L 116,120 L 118,118 L 118,117 L 120,115 L 120,114 L 122,112 L 122,111 L 124,109 L 124,108 L 125,107 L 125,106 L 127,104 L 127,103 L 128,102 L 128,101 L 129,100 L 129,99 L 131,97 L 131,96 L 132,95 L 132,94 L 133,93 L 133,92 L 134,91 L 134,90 L 135,89 L 135,88 L 136,87 L 136,86 L 137,85 L 137,83 L 138,82 L 138,81 L 139,80 L 139,78 L 140,77 L 140,74 L 141,73 L 141,62 L 140,61 L 140,60 L 139,59 L 139,58 L 138,57 L 138,56 L 134,52 L 133,52 L 132,51 L 131,51 L 130,50 L 128,50 L 127,49 L 123,49 Z" fill="#e12127" stroke="none" /><path d="M 101,48 L 100,49 L 96,49 L 95,50 L 94,50 L 93,51 L 92,51 L 91,52 L 90,52 L 86,56 L 86,57 L 84,59 L 84,61 L 83,62 L 83,74 L 84,75 L 84,77 L 85,78 L 85,80 L 86,81 L 86,82 L 87,83 L 87,85 L 88,86 L 88,87 L 89,88 L 89,89 L 90,90 L 90,91 L 91,92 L 91,93 L 92,94 L 92,95 L 93,96 L 93,97 L 94,98 L 94,99 L 96,101 L 96,102 L 97,103 L 97,104 L 99,106 L 99,107 L 100,108 L 100,109 L 102,111 L 102,112 L 104,114 L 104,115 L 106,117 L 106,118 L 108,120 L 109,119 L 109,108 L 110,107 L 110,78 L 109,77 L 109,69 L 108,68 L 108,63 L 107,62 L 107,59 L 106,58 L 106,55 L 105,54 L 105,52 L 104,51 L 104,50 L 102,48 Z" fill="#e12127" stroke="none" /></svg>