<?xml version="1.0" encoding="UTF-8"?>
<svg version="1.1" xmlns="http://www.w3.org/2000/svg" width="335" height="335">
<path d="M0 0 C110.55 0 221.1 0 335 0 C335 110.55 335 221.1 335 335 C224.45 335 113.9 335 0 335 C0 224.45 0 113.9 0 0 Z " fill="#FEFEFE" transform="translate(0,0)"/>
<path d="M0 0 C9.2570651 -0.51062103 16.597246 2.63350912 23.4453125 8.75390625 C25.55333236 10.78321758 27.58848468 12.74442246 29.4140625 15.03125 C30.93898045 16.45039436 30.93898045 16.45039436 33.296875 16.03125 C36.10866204 15.13960662 38.66417206 14.03631217 41.3203125 12.75390625 C48.48084881 9.2974514 54.81410313 7.84407629 62.6953125 7.94140625 C63.48881104 7.94817383 64.28230957 7.95494141 65.09985352 7.96191406 C80.79243769 8.23691401 96.44103679 12.91706468 108.38671875 23.54296875 C121.17072072 37.06389314 128.73617786 53.92890719 128.22265625 72.62109375 C126.86812796 90.05826081 119.64871541 105.91724112 106.3125 117.47265625 C100.28112327 122.07780999 93.9689972 125.36880399 86.9453125 128.19140625 C86.11644531 128.54203125 85.28757813 128.89265625 84.43359375 129.25390625 C70.77842715 134.39870999 55.21223836 133.3950838 41.8828125 127.9375 C29.09289338 121.95038225 19.75563815 112.25112887 10.0012989 102.30602646 C7.87378901 100.13858479 5.73841244 97.97917796 3.60069275 95.82180786 C-2.46987958 89.69365268 -8.5303357 83.55563543 -14.57592773 77.40283203 C-18.29189172 73.62209425 -22.02023012 69.85392976 -25.7564106 66.09317398 C-27.16718701 64.6682381 -28.57329297 63.23866097 -29.97437859 61.8041954 C-42.0171178 49.12394286 -42.0171178 49.12394286 -57.83984375 42.46484375 C-67.88175406 42.77603525 -75.37033851 43.95764842 -82.4921875 51.44140625 C-87.8448064 58.08081637 -89.65911484 63.84318304 -89.41015625 72.37890625 C-88.57325201 79.00056615 -85.8722413 85.50767339 -81.0546875 90.19140625 C-73.27397834 95.90171211 -65.76068434 98.53981472 -56.0546875 97.19140625 C-44.95887707 93.91821725 -37.66321352 85.40771394 -30.0546875 77.19140625 C-26.2307383 78.77018058 -23.81826651 81.18642338 -20.91894531 84.10009766 C-20.42092911 84.59782181 -19.9229129 85.09554596 -19.4098053 85.60835266 C-17.77102017 87.24852695 -16.13942616 88.89566286 -14.5078125 90.54296875 C-13.37053403 91.68397881 -12.2328121 92.82454702 -11.09466553 93.96469116 C-8.10478771 96.96219387 -5.12096559 99.96565476 -2.1383667 102.97039795 C0.90802571 106.03727337 3.96010953 109.09847319 7.01171875 112.16015625 C12.99516684 118.16503408 18.97222913 124.17621857 24.9453125 130.19140625 C18.10170807 137.14850329 11.832598 140.12196939 2.0703125 140.56640625 C-9.98990789 140.27044992 -18.79331457 132.77344708 -26.8046875 124.51171875 C-27.2171875 124.07601562 -27.6296875 123.6403125 -28.0546875 123.19140625 C-29.075625 123.60712891 -29.075625 123.60712891 -30.1171875 124.03125 C-33.40994481 125.33171399 -36.72474212 126.55182468 -40.0546875 127.75390625 C-41.2509375 128.18832031 -42.4471875 128.62273437 -43.6796875 129.0703125 C-56.90490239 133.4634105 -73.35275438 132.76488172 -86.0546875 127.19140625 C-86.98152344 126.79050781 -87.90835938 126.38960938 -88.86328125 125.9765625 C-105.32724413 117.9197296 -116.20589394 103.24711632 -122.0546875 86.19140625 C-125.6491901 67.39605528 -122.82085885 48.9931394 -112.30615234 32.97460938 C-103.3142749 20.16214881 -89.96674501 12.90369061 -75.0546875 9.19140625 C-74.42014648 9.01561035 -73.78560547 8.83981445 -73.13183594 8.65869141 C-57.70949572 5.18920866 -40.75769258 9.58027098 -27.6171875 17.75390625 C-23.88940846 20.42938102 -20.50356348 23.41619623 -17.14453125 26.53295898 C-16.57899536 27.05673598 -16.01345947 27.58051298 -15.43078613 28.12016201 C-9.44569425 33.7019869 -3.66498152 39.48110728 2.09353638 45.29503059 C4.00013623 47.21939711 5.91057976 49.13987632 7.82202148 51.05943298 C13.24496579 56.50653053 18.66187505 61.95960235 24.07470703 67.41674805 C27.41168153 70.78051372 30.75352148 74.13938188 34.09838867 77.49529839 C35.36333493 78.76643236 36.62638323 80.0394581 37.88745117 81.31443977 C39.64307241 83.08930119 41.40479116 84.85789367 43.16796875 86.62524414 C43.68126236 87.14729935 44.19455597 87.66935455 44.72340393 88.20722961 C50.47550422 93.94384718 56.3971545 97.15813235 64.5703125 97.62890625 C70.95655994 97.52246879 76.27967597 94.93284328 81.9453125 92.19140625 C82.68007812 91.88976562 83.41484375 91.588125 84.171875 91.27734375 C86.43579158 89.89106884 86.93106537 88.61482859 87.9453125 86.19140625 C88.29851562 85.5984375 88.65171875 85.00546875 89.015625 84.39453125 C92.97673315 77.0591458 92.88684241 69.26874177 91.9453125 61.19140625 C89.46374404 53.26356363 83.73390821 48.46456368 76.8203125 44.31640625 C69.73334436 41.60668314 59.77259055 42.17164865 52.9453125 45.19140625 C47.29801272 48.8580883 42.7354393 53.22265407 38.453125 58.39453125 C37.0285284 60.09223704 35.53514824 61.64917038 33.9453125 63.19140625 C30.1213633 61.61263192 27.70889151 59.19638912 24.80957031 56.28271484 C24.31155411 55.78499069 23.8135379 55.28726654 23.3004303 54.77445984 C21.66164517 53.13428555 20.03005116 51.48714964 18.3984375 49.83984375 C17.26115903 48.69883369 16.1234371 47.55826548 14.98529053 46.41812134 C11.99541271 43.42061863 9.01159059 40.41715774 6.0289917 37.41241455 C2.98259929 34.34553913 -0.06948453 31.28433931 -3.12109375 28.22265625 C-9.10454184 22.21777842 -15.08160413 16.20659393 -21.0546875 10.19140625 C-14.24218051 3.29953835 -9.71633285 0.90513367 0 0 Z " fill="#497BBA" transform="translate(167.0546875,54.80859375)"/>
<path d="M0 0 C9.2570651 -0.51062103 16.597246 2.63350912 23.4453125 8.75390625 C25.55333236 10.78321758 27.58848468 12.74442246 29.4140625 15.03125 C30.93898045 16.45039436 30.93898045 16.45039436 33.296875 16.03125 C36.10866204 15.13960662 38.66417206 14.03631217 41.3203125 12.75390625 C48.48084881 9.2974514 54.81410313 7.84407629 62.6953125 7.94140625 C63.8855603 7.95155762 63.8855603 7.95155762 65.09985352 7.96191406 C80.79243769 8.23691401 96.44103679 12.91706468 108.38671875 23.54296875 C121.17072072 37.06389314 128.73617786 53.92890719 128.22265625 72.62109375 C126.86812796 90.05826081 119.64871541 105.91724112 106.3125 117.47265625 C100.28112327 122.07780999 93.9689972 125.36880399 86.9453125 128.19140625 C86.11644531 128.54203125 85.28757812 128.89265625 84.43359375 129.25390625 C70.75127517 134.40893994 54.91743675 133.50049418 41.63671875 127.76171875 C32.10216789 123.16041089 32.10216789 123.16041089 29.9453125 120.19140625 C29.05859375 117.13671875 29.05859375 117.13671875 28.2578125 113.31640625 C24.53848357 97.10163486 17.82099348 81.78987131 9.9453125 67.19140625 C9.40173096 66.17240234 9.40173096 66.17240234 8.84716797 65.1328125 C2.88622576 54.01331284 -3.78051571 43.75841738 -12.0546875 34.19140625 C-11.7246875 33.53140625 -11.3946875 32.87140625 -11.0546875 32.19140625 C-9.94381523 33.30894035 -9.94381523 33.30894035 -8.8105011 34.4490509 C-1.82714671 41.47296634 5.16149606 48.49158146 12.15533733 55.50505543 C15.75067997 59.11083074 19.34414024 62.71844098 22.93334961 66.33032227 C26.39784342 69.81656257 29.86721411 73.29788037 33.34000587 76.77585411 C34.66341455 78.10295527 35.98506299 79.43181418 37.30490685 80.76246071 C39.15525203 82.62734457 41.0117835 84.48585416 42.86987305 86.34301758 C43.68447495 87.1684053 43.68447495 87.1684053 44.51553345 88.01046753 C50.36438346 93.82789347 56.25596878 97.15000005 64.5703125 97.62890625 C70.95655994 97.52246879 76.27967597 94.93284328 81.9453125 92.19140625 C82.68007812 91.88976562 83.41484375 91.588125 84.171875 91.27734375 C86.43579158 89.89106884 86.93106537 88.61482859 87.9453125 86.19140625 C88.29851562 85.5984375 88.65171875 85.00546875 89.015625 84.39453125 C92.97673315 77.0591458 92.88684241 69.26874177 91.9453125 61.19140625 C89.46374404 53.26356363 83.73390821 48.46456368 76.8203125 44.31640625 C69.73334436 41.60668314 59.77259055 42.17164865 52.9453125 45.19140625 C47.29801272 48.8580883 42.7354393 53.22265407 38.453125 58.39453125 C37.0285284 60.09223704 35.53514824 61.64917038 33.9453125 63.19140625 C30.1213633 61.61263192 27.70889151 59.19638912 24.80957031 56.28271484 C24.31155411 55.78499069 23.8135379 55.28726654 23.3004303 54.77445984 C21.66164517 53.13428555 20.03005116 51.48714964 18.3984375 49.83984375 C17.26115903 48.69883369 16.1234371 47.55826548 14.98529053 46.41812134 C11.99541271 43.42061863 9.01159059 40.41715774 6.0289917 37.41241455 C2.98259929 34.34553913 -0.06948453 31.28433931 -3.12109375 28.22265625 C-9.10454184 22.21777842 -15.08160413 16.20659393 -21.0546875 10.19140625 C-14.24218051 3.29953835 -9.71633285 0.90513367 0 0 Z " fill="#8C80B8" transform="translate(167.0546875,54.80859375)"/>
<path d="M0 0 C1.31902817 0.00848969 1.31902817 0.00848969 2.66470337 0.01715088 C5.45672432 0.03943416 8.24743342 0.08961437 11.0390625 0.140625 C12.93878347 0.16070046 14.83852468 0.17894939 16.73828125 0.1953125 C21.38070916 0.23927244 26.02216387 0.30824318 30.6640625 0.390625 C30.890625 5.109375 30.890625 5.109375 28.8515625 7.640625 C25.02608509 10.70100693 21.59220848 10.55537882 16.84375 10.671875 C15.85485275 10.69948914 15.85485275 10.69948914 14.84597778 10.72766113 C12.0281784 10.80627527 9.2101487 10.87429427 6.39208984 10.94287109 C4.3341851 10.99447257 2.27649334 11.05174696 0.21875 11.109375 C-1.63000732 11.15481445 -1.63000732 11.15481445 -3.51611328 11.20117188 C-6.23804091 11.07335664 -6.23804091 11.07335664 -7.3359375 12.390625 C-7.37674533 14.39020864 -7.37848106 16.39107754 -7.3359375 18.390625 C-4.63266402 19.74226174 -2.46893196 19.53512588 0.5546875 19.56640625 C2.33166016 19.60217773 2.33166016 19.60217773 4.14453125 19.63867188 C6.64175758 19.68137056 9.13920475 19.71276673 11.63671875 19.73242188 C23.00858244 19.99731361 23.00858244 19.99731361 27.6640625 24.390625 C30.54073797 27.62111617 31.91694398 31.14502553 32.1640625 35.453125 C31.44611287 41.10697836 29.26938386 43.94192036 25.1015625 47.703125 C20.52965759 50.86828993 16.18782891 50.52123575 10.83984375 50.48828125 C9.97844284 50.4868663 9.11704193 50.48545135 8.22953796 50.48399353 C5.47851081 50.4783964 2.72756506 50.46584446 -0.0234375 50.453125 C-1.8886707 50.44810963 -3.75390517 50.44354679 -5.61914062 50.43945312 C-10.19143761 50.42842792 -14.76367375 50.41116527 -19.3359375 50.390625 C-18.61249362 45.54598961 -17.03622761 43.63966022 -13.3359375 40.390625 C-10.36234301 38.90382775 -7.67294571 39.27949895 -4.359375 39.29296875 C-3.33150375 39.29509117 -3.33150375 39.29509117 -2.28286743 39.29725647 C-0.09217989 39.30285825 2.0984058 39.31541094 4.2890625 39.328125 C5.77343602 39.33313978 7.25781115 39.33770272 8.7421875 39.34179688 C12.38284565 39.35282823 16.02344414 39.37009401 19.6640625 39.390625 C19.70647973 37.05767725 19.70499187 34.72359933 19.6640625 32.390625 C17.91732025 30.64388275 15.46470034 31.21957031 13.08984375 31.1796875 C11.37571289 31.13714844 11.37571289 31.13714844 9.62695312 31.09375 C7.21303749 31.04208781 4.79895421 30.99769513 2.38476562 30.9609375 C-9.86450777 30.63117579 -9.86450777 30.63117579 -14.98046875 25.85546875 C-19.11226759 20.45234719 -20.14543385 17.15162974 -19.3359375 10.390625 C-15.07864591 1.71229985 -8.9875629 -0.2198497 0 0 Z " fill="#454241" transform="translate(221.3359375,234.609375)"/>
<path d="M0 0 C1.31902817 0.00848969 1.31902817 0.00848969 2.66470337 0.01715088 C5.45672432 0.03943416 8.24743342 0.08961437 11.0390625 0.140625 C12.93878347 0.16070046 14.83852468 0.17894939 16.73828125 0.1953125 C21.38070916 0.23927244 26.02216387 0.30824318 30.6640625 0.390625 C30.890625 5.109375 30.890625 5.109375 28.8515625 7.640625 C25.02608509 10.70100693 21.59220848 10.55537882 16.84375 10.671875 C15.85485275 10.69948914 15.85485275 10.69948914 14.84597778 10.72766113 C12.0281784 10.80627527 9.2101487 10.87429427 6.39208984 10.94287109 C4.3341851 10.99447257 2.27649334 11.05174696 0.21875 11.109375 C-1.63000732 11.15481445 -1.63000732 11.15481445 -3.51611328 11.20117188 C-6.23804091 11.07335664 -6.23804091 11.07335664 -7.3359375 12.390625 C-7.5860148 14.84872498 -7.5860148 14.84872498 -7.3359375 17.390625 C-4.63878812 20.08777438 -3.21251397 19.64331429 0.5546875 19.6640625 C1.73933594 19.6846875 2.92398438 19.7053125 4.14453125 19.7265625 C6.64185953 19.75244155 9.13927839 19.77076756 11.63671875 19.78125 C23.01475676 20.00314023 23.01475676 20.00314023 27.6640625 24.390625 C31.04978457 28.93462042 32.40093458 32.48455699 32.109375 38.1796875 C31.34084375 41.99537775 29.6270582 44.87696271 26.6640625 47.390625 C21.13744317 50.24731364 16.83432878 50.80368189 10.66796875 50.68359375 C9.83442368 50.67934891 9.0008786 50.67510406 8.14207458 50.67073059 C5.50322939 50.65405814 2.86517334 50.61642858 0.2265625 50.578125 C-1.57225453 50.56306333 -3.37108363 50.54937753 -5.16992188 50.53710938 C-9.55889365 50.50419228 -13.94728219 50.45249067 -18.3359375 50.390625 C-18.2109375 47.140625 -18.2109375 47.140625 -17.3359375 43.390625 C-13.0945382 39.47952795 -9.62467744 38.8747364 -3.96875 38.78125 C-3.28916229 38.76471375 -2.60957458 38.74817749 -1.90939331 38.73114014 C0.24018638 38.68293787 2.38906031 38.66135372 4.5390625 38.640625 C6.00524332 38.61244167 7.47139165 38.58251095 8.9375 38.55078125 C12.51286879 38.47718999 16.08810423 38.42744474 19.6640625 38.390625 C20.34364853 35.99343068 20.34364853 35.99343068 20.6640625 33.390625 C18.01030578 30.73686828 16.72862094 31.13852383 13.02734375 31.1171875 C11.89232422 31.0965625 10.75730469 31.0759375 9.58789062 31.0546875 C7.19993991 31.02885785 4.81189544 31.01050277 2.42382812 31 C-4.3613133 30.86207505 -8.85725473 30.53193167 -14.3359375 26.390625 C-17.83284492 22.43359818 -19.13862534 18.81174502 -19.49609375 13.6328125 C-19.22897201 9.8931082 -17.87927166 7.11989482 -15.3359375 4.390625 C-10.16906432 0.11731281 -6.40368365 -0.15664401 0 0 Z " fill="#454241" transform="translate(104.3359375,234.609375)"/>
<path d="M0 0 C6.27 0 12.54 0 19 0 C18.01 1.485 18.01 1.485 17 3 C16.60986284 4.9896995 16.26797351 6.99019869 16 9 C13.69 9 11.38 9 9 9 C9 12.63 9 16.26 9 20 C13.45909298 19.91946759 17.9167834 19.8065955 22.375 19.6875 C24.28152344 19.65366211 24.28152344 19.65366211 26.2265625 19.61914062 C27.43828125 19.58369141 28.65 19.54824219 29.8984375 19.51171875 C31.57945557 19.47244263 31.57945557 19.47244263 33.29443359 19.43237305 C34.18727051 19.28968994 35.08010742 19.14700684 36 19 C38.33391203 16.21885944 38.33391203 16.21885944 37.625 13.3125 C37.41875 12.549375 37.2125 11.78625 37 11 C36.0925 10.7525 35.185 10.505 34.25 10.25 C30.7894215 8.91900827 29.49866262 7.65482904 27 5 C25.00591923 3.65783025 23.00698975 2.3227887 21 1 C21 0.67 21 0.34 21 0 C39.07999664 -1.03314266 39.07999664 -1.03314266 43.5 2.75 C47.40154658 7.04170124 48.46204363 11.06190184 48.3125 16.75390625 C47.62732945 21.67856958 44.81501777 24.32672445 41.125 27.375 C37.73929307 29.13556761 35.75626559 29.35773958 32 29 C37.34388455 35.33480354 43.08833812 41.19539034 49 47 C48.67 47.99 48.34 48.98 48 50 C41.2742019 50.84072476 41.2742019 50.84072476 38.19726562 48.81054688 C37.60623047 48.26462891 37.01519531 47.71871094 36.40625 47.15625 C35.71595703 46.52066162 35.02566406 45.88507324 34.31445312 45.23022461 C29.81850642 40.89789622 25.39473355 36.49715828 21 32.0625 C20.02497614 31.0824469 19.0497172 30.1026276 18.07421875 29.12304688 C15.71383382 26.75097687 13.35583095 24.3765914 11 22 C10.9906543 22.60996826 10.98130859 23.21993652 10.97167969 23.84838867 C10.91778674 26.62889487 10.83417931 29.40775262 10.75 32.1875 C10.72873047 33.62706055 10.72873047 33.62706055 10.70703125 35.09570312 C10.55919437 39.36818909 10.37316971 42.30510219 8.328125 46.11328125 C6 48 6 48 0 49 C0 32.83 0 16.66 0 0 Z " fill="#43403F" transform="translate(145,235)"/>
<path d="M0 0 C12.21 0 24.42 0 37 0 C37 0.33 37 0.66 37 1 C32.05 1.33 27.1 1.66 22 2 C24.2275 3.423125 24.2275 3.423125 26.5 4.875 C29.03125 6.4921875 29.03125 6.4921875 31 8 C31 8.66 31 9.32 31 10 C31.94875 10.103125 32.8975 10.20625 33.875 10.3125 C37 11 37 11 39 14 C38.6758631 17.32240324 38.39223697 18.60776303 36 21 C33.29443359 21.22705078 33.29443359 21.22705078 29.8984375 21.1953125 C28.08085937 21.18564453 28.08085937 21.18564453 26.2265625 21.17578125 C24.95554688 21.15902344 23.68453125 21.14226562 22.375 21.125 C21.09625 21.11597656 19.8175 21.10695312 18.5 21.09765625 C15.33314833 21.07402303 12.16666576 21.04107629 9 21 C9 17.37 9 13.74 9 10 C11.31 10 13.62 10 16 10 C15.95875 9.05125 15.9175 8.1025 15.875 7.125 C16 4 16 4 18 2 C12.06 1.67 6.12 1.34 0 1 C0 0.67 0 0.34 0 0 Z " fill="#D7D6D6" transform="translate(145,234)"/>
<path d="M0 0 C4.10958767 1.45044271 7.43258745 3.51110752 11 6 C10.60987467 8.43438204 10.28087964 9.71985758 8.51171875 11.484375 C7.90972656 11.90203125 7.30773437 12.3196875 6.6875 12.75 C5.79611328 13.39195312 5.79611328 13.39195312 4.88671875 14.046875 C3 15 3 15 -1 15 C-1.02685412 12.68756208 -1.04632841 10.3750373 -1.0625 8.0625 C-1.07410156 6.77472656 -1.08570313 5.48695313 -1.09765625 4.16015625 C-1 1 -1 1 0 0 Z " fill="#464342" transform="translate(164,237)"/>
<path d="M0 0 C0.33 0 0.66 0 1 0 C1 4.95 1 9.9 1 15 C2.32 15.33 3.64 15.66 5 16 C4 17 4 17 1.49609375 17.09765625 C0.48675781 17.08605469 -0.52257812 17.07445312 -1.5625 17.0625 C-2.57441406 17.05347656 -3.58632812 17.04445312 -4.62890625 17.03515625 C-5.41136719 17.02355469 -6.19382813 17.01195312 -7 17 C-7 14.03 -7 11.06 -7 8 C-4.69 8 -2.38 8 0 8 C0 5.36 0 2.72 0 0 Z " fill="#FEFEFE" transform="translate(162,237)"/>
</svg>
